<?xml version="1.0" encoding="UTF-8" standalone="no"?>
<!DOCTYPE svg PUBLIC "-//W3C//DTD SVG 1.1//EN" "http://www.w3.org/Graphics/SVG/1.1/DTD/svg11.dtd">
<svg width="100%" height="100%" viewBox="0 0 512 512" version="1.1" xmlns="http://www.w3.org/2000/svg" xmlns:xlink="http://www.w3.org/1999/xlink" xml:space="preserve" xmlns:serif="http://www.serif.com/" style="fill-rule:evenodd;clip-rule:evenodd;stroke-linejoin:round;stroke-miterlimit:2;">
    <g id="Base">
        <path d="M49,29L133,29C328.296,29 489,189.704 489,385L489,469C489,477.229 482.229,484 474,484L390,484C194.704,484 34,323.296 34,128L34,44C34,35.771 40.771,29 49,29Z" style="fill:rgb(253,212,1);fill-rule:nonzero;"/>
        <path d="M49,29L133,29C328.296,29 489,189.704 489,385L489,469C489,477.229 482.229,484 474,484L390,484C194.704,484 34,323.296 34,128L34,44C34,35.771 40.771,29 49,29ZM49,42L133,42C321.164,42 476,196.836 476,385L476,469C476,470.097 475.097,471 474,471L390,471C201.836,471 47,316.164 47,128L47,44C47,42.903 47.903,42 49,42Z" style="fill:rgb(248,121,0);"/>
    </g>
    <path id="Shadow" d="M187.377,81.538L476.455,370.153L480.928,416.276L477.997,474.893L383.746,471.962L354.637,442.488L331.762,418.435L295.203,357.812" style="fill:rgb(215,180,0);"/>
    <path id="Base-Corner" serif:id="Base Corner" d="M49,29L133,29C328.296,29 489,189.704 489,385L489,469C489,477.229 482.229,484 474,484L390,484C194.704,484 34,323.296 34,128L34,44C34,35.771 40.771,29 49,29ZM49,42L133,42C321.164,42 476,196.836 476,385L476,469C476,470.097 475.097,471 474,471L390,471C201.836,471 47,316.164 47,128L47,44C47,42.903 47.903,42 49,42Z" style="fill:rgb(248,121,0);"/>
    <g id="Pen" transform="matrix(0.39061,-0.225519,0.225519,0.39061,-53.6225,162.083)">
        <path d="M447.308,793.084C447.308,793.084 446.033,811.612 438.446,826.821C429.917,843.92 411.368,863.042 411.368,863.042C411.368,863.042 413.661,865.829 413.883,865.829C414.089,865.829 470.252,964.56 472.204,989.195C472.305,990.472 473.043,990.977 473.043,990.977L473.265,911.875L473.487,901.67C470.059,899.644 467.383,895.715 467.383,890.035C467.383,884.354 472.017,878.051 480.999,878.051L480.999,793.084L447.308,793.084Z" style="fill:rgb(244,241,215);"/>
        <g transform="matrix(-1,0,0,1,961.997,0)">
            <path d="M447.308,793.084C447.308,793.084 446.033,811.612 438.446,826.821C429.917,843.92 411.368,863.042 411.368,863.042C411.368,863.042 413.661,865.829 413.883,865.829C414.089,865.829 470.252,964.56 472.204,989.195C472.305,990.472 473.043,990.977 473.043,990.977L473.265,911.875L473.487,901.67C470.059,899.644 467.383,895.715 467.383,890.035C467.383,884.354 472.017,878.051 480.999,878.051L480.999,793.084L447.308,793.084Z" style="fill:rgb(220,215,190);"/>
        </g>
        <g transform="matrix(1,0,0,1,-2,0)">
            <path d="M556.488,130.848C556.488,90.288 523.558,57.359 482.999,57.359C442.439,57.359 409.509,90.288 409.509,130.848L409.509,490.807L556.488,490.807L556.488,130.848Z" style="fill:rgb(102,140,149);"/>
        </g>
        <g transform="matrix(0.506814,0,0,1,273.454,0)">
            <path d="M556.488,131.85C556.488,90.737 490.629,57.359 409.509,57.359L409.509,490.807L556.488,490.807L556.488,131.85Z" style="fill:rgb(94,128,135);"/>
        </g>
        <rect x="421.994" y="490.807" width="59.004" height="15.53" style="fill:rgb(81,109,113);"/>
        <g transform="matrix(1,0,0,18.4643,-1.42109e-12,-8556.08)">
            <path d="M480.999,490.807L421.994,490.807L421.994,504.995C421.994,505.736 433.099,506.337 446.776,506.337L480.999,506.337L480.999,490.807Z" style="fill:rgb(102,140,149);"/>
        </g>
        <g transform="matrix(1,0,0,18.4643,59.004,-8556.08)">
            <path d="M480.999,490.807L421.994,490.807L421.994,506.337L456.217,506.337C469.894,506.337 480.999,505.736 480.999,504.995L480.999,490.807Z" style="fill:rgb(94,128,135);"/>
        </g>
        <g transform="matrix(1,0,0,1,59.004,0)">
            <rect x="421.994" y="490.807" width="59.004" height="15.53" style="fill:rgb(75,100,102);"/>
        </g>
        <g transform="matrix(1,0,0,1,-3,0)">
            <path d="M400.08,151.855C400.08,149.598 398.247,147.765 395.99,147.765L387.809,147.765C385.551,147.765 383.719,149.598 383.719,151.855L383.719,339.184C383.719,341.441 385.551,343.274 387.809,343.274L395.99,343.274C398.247,343.274 400.08,341.441 400.08,339.184L400.08,151.855Z" style="fill:rgb(239,141,141);"/>
        </g>
        <g transform="matrix(11.2963,0,0,1,-4122.34,0)">
            <rect x="400.08" y="167.177" width="7.429" height="39.379" style="fill:rgb(239,141,141);"/>
        </g>
        <g transform="matrix(10.0273,0,0,1,-3530.71,0)">
            <rect x="400.08" y="167.177" width="7.429" height="39.379" style="fill:rgb(218,128,127);"/>
        </g>
    </g>
    <g transform="matrix(127,0,0,127,129.154,302.513)">
        <path d="M0.041,-0.361C0.041,-0.497 0.066,-0.592 0.115,-0.646C0.163,-0.701 0.238,-0.728 0.338,-0.728C0.387,-0.728 0.426,-0.722 0.457,-0.71C0.488,-0.698 0.513,-0.683 0.533,-0.664C0.552,-0.645 0.568,-0.625 0.579,-0.604C0.59,-0.583 0.599,-0.558 0.606,-0.53C0.619,-0.477 0.626,-0.421 0.626,-0.363C0.626,-0.233 0.604,-0.138 0.56,-0.078C0.516,-0.018 0.44,0.012 0.333,0.012C0.273,0.012 0.224,0.003 0.187,-0.017C0.15,-0.036 0.119,-0.064 0.096,-0.101C0.078,-0.127 0.065,-0.163 0.055,-0.209C0.046,-0.255 0.041,-0.306 0.041,-0.361ZM0.238,-0.36C0.238,-0.269 0.246,-0.207 0.262,-0.174C0.279,-0.14 0.302,-0.124 0.333,-0.124C0.353,-0.124 0.37,-0.131 0.385,-0.145C0.4,-0.159 0.411,-0.181 0.418,-0.212C0.425,-0.243 0.428,-0.29 0.428,-0.355C0.428,-0.45 0.42,-0.514 0.404,-0.547C0.388,-0.579 0.364,-0.596 0.332,-0.596C0.299,-0.596 0.275,-0.579 0.26,-0.546C0.246,-0.512 0.238,-0.451 0.238,-0.36Z" style="fill:rgb(47,47,47);fill-rule:nonzero;"/>
        <path d="M-0.022,-0.361C-0.022,-0.301 -0.017,-0.246 -0.006,-0.196C0.005,-0.141 0.022,-0.099 0.043,-0.067C0.073,-0.02 0.111,0.015 0.158,0.039C0.203,0.062 0.261,0.075 0.333,0.075C0.465,0.075 0.557,0.033 0.611,-0.041C0.661,-0.109 0.689,-0.216 0.689,-0.363C0.689,-0.426 0.682,-0.487 0.667,-0.545C0.659,-0.579 0.648,-0.608 0.634,-0.633C0.62,-0.66 0.601,-0.685 0.577,-0.709C0.552,-0.733 0.519,-0.754 0.48,-0.769C0.443,-0.783 0.396,-0.791 0.338,-0.791C0.217,-0.791 0.127,-0.755 0.068,-0.689C0.011,-0.626 -0.022,-0.518 -0.022,-0.361ZM0.041,-0.361C0.041,-0.497 0.066,-0.592 0.115,-0.646C0.163,-0.701 0.238,-0.728 0.338,-0.728C0.387,-0.728 0.426,-0.722 0.457,-0.71C0.488,-0.698 0.513,-0.683 0.533,-0.664C0.552,-0.645 0.568,-0.625 0.579,-0.604C0.59,-0.583 0.599,-0.558 0.606,-0.53C0.619,-0.477 0.626,-0.421 0.626,-0.363C0.626,-0.233 0.604,-0.138 0.56,-0.078C0.516,-0.018 0.44,0.012 0.333,0.012C0.273,0.012 0.224,0.003 0.187,-0.017C0.15,-0.036 0.119,-0.064 0.096,-0.101C0.078,-0.127 0.065,-0.163 0.055,-0.209C0.046,-0.255 0.041,-0.306 0.041,-0.361ZM0.238,-0.36C0.238,-0.269 0.246,-0.207 0.262,-0.174C0.279,-0.14 0.302,-0.124 0.333,-0.124C0.353,-0.124 0.37,-0.131 0.385,-0.145C0.4,-0.159 0.411,-0.181 0.418,-0.212C0.425,-0.243 0.428,-0.29 0.428,-0.355C0.428,-0.45 0.42,-0.514 0.404,-0.547C0.388,-0.579 0.364,-0.596 0.332,-0.596C0.299,-0.596 0.275,-0.579 0.26,-0.546C0.246,-0.512 0.238,-0.451 0.238,-0.36ZM0.301,-0.36C0.301,-0.438 0.305,-0.492 0.318,-0.52C0.321,-0.527 0.325,-0.533 0.332,-0.533C0.339,-0.533 0.344,-0.527 0.348,-0.519C0.361,-0.491 0.365,-0.436 0.365,-0.355C0.365,-0.297 0.363,-0.254 0.356,-0.226C0.353,-0.21 0.349,-0.198 0.341,-0.19C0.339,-0.188 0.336,-0.187 0.333,-0.187C0.326,-0.187 0.323,-0.193 0.319,-0.201C0.305,-0.229 0.301,-0.283 0.301,-0.36Z" style="fill:rgb(200,200,200);"/>
    </g>
    <g transform="matrix(127,0,0,127,213.862,302.513)">
        <path d="M0.492,-0.728L0.492,-0L0.291,-0L0.291,-0.477C0.258,-0.452 0.226,-0.432 0.196,-0.417C0.166,-0.402 0.127,-0.387 0.082,-0.373L0.082,-0.536C0.149,-0.558 0.202,-0.584 0.239,-0.615C0.277,-0.645 0.306,-0.683 0.327,-0.728L0.492,-0.728Z" style="fill:rgb(47,47,47);fill-rule:nonzero;"/>
        <path d="M0.555,-0.728C0.555,-0.763 0.526,-0.791 0.492,-0.791L0.327,-0.791C0.303,-0.791 0.281,-0.777 0.27,-0.755C0.253,-0.719 0.23,-0.688 0.199,-0.664C0.167,-0.637 0.121,-0.615 0.062,-0.596C0.036,-0.588 0.019,-0.563 0.019,-0.536L0.019,-0.373C0.019,-0.353 0.028,-0.334 0.044,-0.322C0.06,-0.311 0.081,-0.307 0.1,-0.313C0.15,-0.328 0.191,-0.344 0.224,-0.361C0.225,-0.361 0.226,-0.362 0.228,-0.362C0.228,-0.362 0.228,0 0.228,0C0.228,0.035 0.256,0.063 0.291,0.063L0.492,0.063C0.526,0.063 0.555,0.035 0.555,-0L0.555,-0.728ZM0.492,-0.728L0.492,0L0.291,0L0.291,-0.477C0.258,-0.452 0.226,-0.432 0.196,-0.417C0.166,-0.402 0.127,-0.387 0.082,-0.373L0.082,-0.536C0.149,-0.558 0.202,-0.584 0.239,-0.615C0.277,-0.645 0.306,-0.683 0.327,-0.728L0.492,-0.728Z" style="fill:rgb(200,200,200);"/>
    </g>
    <g transform="matrix(127,0,0,127,298.57,302.513)">
        <path d="M0.041,-0.361C0.041,-0.497 0.066,-0.592 0.115,-0.646C0.163,-0.701 0.238,-0.728 0.338,-0.728C0.387,-0.728 0.426,-0.722 0.457,-0.71C0.488,-0.698 0.513,-0.683 0.533,-0.664C0.552,-0.645 0.568,-0.625 0.579,-0.604C0.59,-0.583 0.599,-0.558 0.606,-0.53C0.619,-0.477 0.626,-0.421 0.626,-0.363C0.626,-0.233 0.604,-0.138 0.56,-0.078C0.516,-0.018 0.44,0.012 0.333,0.012C0.273,0.012 0.224,0.003 0.187,-0.017C0.15,-0.036 0.119,-0.064 0.096,-0.101C0.078,-0.127 0.065,-0.163 0.055,-0.209C0.046,-0.255 0.041,-0.306 0.041,-0.361ZM0.238,-0.36C0.238,-0.269 0.246,-0.207 0.262,-0.174C0.279,-0.14 0.302,-0.124 0.333,-0.124C0.353,-0.124 0.37,-0.131 0.385,-0.145C0.4,-0.159 0.411,-0.181 0.418,-0.212C0.425,-0.243 0.428,-0.29 0.428,-0.355C0.428,-0.45 0.42,-0.514 0.404,-0.547C0.388,-0.579 0.364,-0.596 0.332,-0.596C0.299,-0.596 0.275,-0.579 0.26,-0.546C0.246,-0.512 0.238,-0.451 0.238,-0.36Z" style="fill:rgb(47,47,47);fill-rule:nonzero;"/>
        <path d="M-0.022,-0.361C-0.022,-0.301 -0.017,-0.246 -0.006,-0.196C0.005,-0.141 0.022,-0.099 0.043,-0.067C0.073,-0.02 0.111,0.015 0.158,0.039C0.203,0.062 0.261,0.075 0.333,0.075C0.465,0.075 0.557,0.033 0.611,-0.041C0.661,-0.109 0.689,-0.216 0.689,-0.363C0.689,-0.426 0.682,-0.487 0.667,-0.545C0.659,-0.579 0.648,-0.608 0.634,-0.633C0.62,-0.66 0.601,-0.685 0.577,-0.709C0.552,-0.733 0.519,-0.754 0.48,-0.769C0.443,-0.783 0.396,-0.791 0.338,-0.791C0.217,-0.791 0.127,-0.755 0.068,-0.689C0.011,-0.626 -0.022,-0.518 -0.022,-0.361ZM0.041,-0.361C0.041,-0.497 0.066,-0.592 0.115,-0.646C0.163,-0.701 0.238,-0.728 0.338,-0.728C0.387,-0.728 0.426,-0.722 0.457,-0.71C0.488,-0.698 0.513,-0.683 0.533,-0.664C0.552,-0.645 0.568,-0.625 0.579,-0.604C0.59,-0.583 0.599,-0.558 0.606,-0.53C0.619,-0.477 0.626,-0.421 0.626,-0.363C0.626,-0.233 0.604,-0.138 0.56,-0.078C0.516,-0.018 0.44,0.012 0.333,0.012C0.273,0.012 0.224,0.003 0.187,-0.017C0.15,-0.036 0.119,-0.064 0.096,-0.101C0.078,-0.127 0.065,-0.163 0.055,-0.209C0.046,-0.255 0.041,-0.306 0.041,-0.361ZM0.238,-0.36C0.238,-0.269 0.246,-0.207 0.262,-0.174C0.279,-0.14 0.302,-0.124 0.333,-0.124C0.353,-0.124 0.37,-0.131 0.385,-0.145C0.4,-0.159 0.411,-0.181 0.418,-0.212C0.425,-0.243 0.428,-0.29 0.428,-0.355C0.428,-0.45 0.42,-0.514 0.404,-0.547C0.388,-0.579 0.364,-0.596 0.332,-0.596C0.299,-0.596 0.275,-0.579 0.26,-0.546C0.246,-0.512 0.238,-0.451 0.238,-0.36ZM0.301,-0.36C0.301,-0.438 0.305,-0.492 0.318,-0.52C0.321,-0.527 0.325,-0.533 0.332,-0.533C0.339,-0.533 0.344,-0.527 0.348,-0.519C0.361,-0.491 0.365,-0.436 0.365,-0.355C0.365,-0.297 0.363,-0.254 0.356,-0.226C0.353,-0.21 0.349,-0.198 0.341,-0.19C0.339,-0.188 0.336,-0.187 0.333,-0.187C0.326,-0.187 0.323,-0.193 0.319,-0.201C0.305,-0.229 0.301,-0.283 0.301,-0.36Z" style="fill:rgb(200,200,200);"/>
    </g>
</svg>
