<?xml version="1.0" encoding="UTF-8" ?>
<!DOCTYPE svg PUBLIC "-//W3C//DTD SVG 1.1//EN" "http://www.w3.org/Graphics/SVG/1.1/DTD/svg11.dtd">
<svg width="256pt" height="256pt" viewBox="0 0 256 256" version="1.1" xmlns="http://www.w3.org/2000/svg">
<g id="#00aeefff">
<path fill="#00aeef" opacity="1.00" d=" M 21.89 72.94 C 64.61 55.62 107.33 38.29 150.05 20.98 C 150.07 36.43 150.05 51.87 150.06 67.32 C 123.34 71.20 96.60 74.93 69.88 78.79 C 69.87 111.08 69.90 143.38 69.87 175.67 C 53.86 182.31 37.89 189.03 21.89 195.68 C 21.87 154.77 21.89 113.86 21.89 72.94 Z" />
<path fill="#00aeef" opacity="1.00" d=" M 160.05 20.98 C 185.47 29.32 210.88 37.69 236.29 46.04 C 236.30 102.99 236.28 159.94 236.30 216.90 C 210.89 223.28 185.48 229.65 160.07 236.02 C 160.05 164.34 160.08 92.66 160.05 20.98 M 208.26 141.57 C 213.28 140.28 218.29 138.99 223.30 137.70 C 223.28 126.48 223.31 115.26 223.28 104.04 C 218.26 116.55 213.25 129.05 208.26 141.57 M 201.92 157.43 C 199.35 163.75 196.83 170.10 194.30 176.44 C 203.96 173.83 213.61 171.21 223.27 168.62 C 223.32 163.05 223.29 157.48 223.28 151.92 C 216.16 153.75 209.04 155.58 201.92 157.43 M 188.11 191.90 C 185.58 198.14 183.10 204.40 180.60 210.65 C 194.83 207.21 209.07 203.78 223.30 200.31 C 223.29 194.34 223.30 188.37 223.29 182.39 C 211.56 185.55 199.84 188.74 188.11 191.90 Z" />
</g>
<g id="#ffffffff">
<path fill="#ffffff" opacity="1.00" d=" M 208.26 141.57 C 213.25 129.05 218.26 116.55 223.28 104.04 C 223.31 115.26 223.28 126.48 223.30 137.70 C 218.29 138.99 213.28 140.28 208.26 141.57 Z" />
<path fill="#ffffff" opacity="1.00" d=" M 201.92 157.43 C 209.04 155.58 216.16 153.75 223.28 151.92 C 223.29 157.48 223.32 163.05 223.27 168.62 C 213.61 171.21 203.96 173.83 194.30 176.44 C 196.83 170.10 199.35 163.75 201.92 157.43 Z" />
<path fill="#ffffff" opacity="1.00" d=" M 188.11 191.90 C 199.84 188.74 211.56 185.55 223.29 182.39 C 223.30 188.37 223.29 194.34 223.30 200.31 C 209.07 203.78 194.83 207.21 180.60 210.65 C 183.10 204.40 185.58 198.14 188.11 191.90 Z" />
</g>
</svg>
