<?xml version="1.0" encoding="UTF-8" standalone="no"?>
<!DOCTYPE svg PUBLIC "-//W3C//DTD SVG 1.1//EN" "http://www.w3.org/Graphics/SVG/1.1/DTD/svg11.dtd">
<svg width="100%" height="100%" viewBox="0 0 512 512" version="1.1" xmlns="http://www.w3.org/2000/svg" xmlns:xlink="http://www.w3.org/1999/xlink" xml:space="preserve" xmlns:serif="http://www.serif.com/" style="fill-rule:evenodd;clip-rule:evenodd;stroke-miterlimit:1.5;">
    <g transform="matrix(0.91962,0,0,0.91962,20.5774,20.5774)">
        <path d="M512,47.311C512,21.199 490.801,0 464.689,0L47.311,0C21.199,0 0,21.199 0,47.311L0,464.689C0,490.801 21.199,512 47.311,512L464.689,512C490.801,512 512,490.801 512,464.689L512,47.311Z" style="fill:rgb(0,149,221);stroke:rgb(0,149,221);stroke-width:8.7px;"/>
    </g>
    <rect x="96.231" y="94.358" width="194.93" height="145.992" style="fill:white;"/>
    <g transform="matrix(1,0,0,1,62.3036,79.3703)">
        <rect x="96.231" y="94.358" width="194.93" height="145.992" style="fill:white;stroke:rgb(0,149,221);stroke-width:8px;"/>
    </g>
    <g transform="matrix(1,0,0,1,131.393,176.835)">
        <rect x="96.231" y="94.358" width="194.93" height="145.992" style="fill:white;stroke:rgb(0,149,221);stroke-width:8px;"/>
    </g>
</svg>
