<?xml version="1.0" encoding="UTF-8" standalone="no"?>
<!DOCTYPE svg PUBLIC "-//W3C//DTD SVG 1.1//EN" "http://www.w3.org/Graphics/SVG/1.1/DTD/svg11.dtd">
<svg width="100%" height="100%" viewBox="0 0 512 512" version="1.1" xmlns="http://www.w3.org/2000/svg" xmlns:xlink="http://www.w3.org/1999/xlink" xml:space="preserve" xmlns:serif="http://www.serif.com/" style="fill-rule:evenodd;clip-rule:evenodd;stroke-linejoin:round;stroke-miterlimit:2;">
    <g transform="matrix(1.56098,0,0,1.56098,-143.61,-143.61)">
        <circle cx="256" cy="256" r="164"/>
    </g>
    <g>
        <g transform="matrix(3.22936,0.865305,-0.865305,3.22936,-886.959,-787.495)">
            <path d="M478,213C478,201.239 474.904,189.685 469.024,179.5L411,213L478,213Z" style="fill:rgb(255,99,1);"/>
        </g>
        <g transform="matrix(3.22936,-0.865305,0.865305,3.22936,-1255.58,-76.214)">
            <path d="M478,213C478,201.239 474.904,189.685 469.024,179.5L411,213L478,213Z" style="fill:rgb(255,145,0);"/>
        </g>
        <g transform="matrix(2.36406,-2.36406,2.36406,2.36406,-1219.17,724.084)">
            <path d="M478,213C478,201.239 474.904,189.685 469.024,179.5L411,213L478,213Z" style="fill:rgb(255,199,0);"/>
        </g>
        <g transform="matrix(0.865305,-3.22936,3.22936,0.865305,-787.495,1398.96)">
            <path d="M478,213C478,201.239 474.904,189.685 469.024,179.5L411,213L478,213Z" style="fill:rgb(255,255,0);"/>
        </g>
        <g transform="matrix(-0.865305,-3.22936,3.22936,-0.865305,-76.214,1767.58)">
            <path d="M478,213C478,201.239 474.904,189.685 469.024,179.5L411,213L478,213Z" style="fill:rgb(138,200,25);"/>
        </g>
        <g transform="matrix(-2.36406,-2.36406,2.36406,-2.36406,724.084,1731.17)">
            <path d="M478,213C478,201.239 474.904,189.685 469.024,179.5L411,213L478,213Z" style="fill:rgb(0,142,91);"/>
        </g>
        <g transform="matrix(-3.22936,-0.865305,0.865305,-3.22936,1398.96,1299.5)">
            <path d="M478,213C478,201.239 474.904,189.685 469.024,179.5L411,213L478,213Z" style="fill:rgb(2,151,186);"/>
        </g>
        <g transform="matrix(-3.22936,0.865305,-0.865305,-3.22936,1767.58,588.214)">
            <path d="M478,213C478,201.239 474.904,189.685 469.024,179.5L411,213L478,213Z" style="fill:rgb(39,114,178);"/>
        </g>
        <g transform="matrix(-2.36406,2.36406,-2.36406,-2.36406,1731.17,-212.084)">
            <path d="M478,213C478,201.239 474.904,189.685 469.024,179.5L411,213L478,213Z" style="fill:rgb(68,78,161);"/>
        </g>
        <g transform="matrix(-0.865305,3.22936,-3.22936,-0.865305,1299.5,-886.959)">
            <path d="M478,213C478,201.239 474.904,189.685 469.024,179.5L411,213L478,213Z" style="fill:rgb(113,54,151);"/>
        </g>
        <g transform="matrix(0.865305,3.22936,-3.22936,0.865305,588.214,-1255.58)">
            <path d="M478,213C478,201.239 474.904,189.685 469.024,179.5L411,213L478,213Z" style="fill:rgb(198,3,126);"/>
        </g>
        <g transform="matrix(2.36406,2.36406,-2.36406,2.36406,-212.084,-1219.17)">
            <path d="M478,213C478,201.239 474.904,189.685 469.024,179.5L411,213L478,213Z" style="fill:rgb(255,0,0);"/>
        </g>
    </g>
    <g transform="matrix(1.0122,0,0,1.0122,-3.12195,-3.12195)">
        <circle cx="256" cy="256" r="164"/>
    </g>
    <g transform="matrix(1.15096,0,0,0.940279,-55.7293,11.3194)">
        <g transform="matrix(115,0,0,115,134,300)">
            <path d="M0.589,-0L0.461,-0L0.409,-0.162L0.175,-0.162L0.126,-0L0,-0L0.229,-0.716L0.354,-0.716L0.589,-0ZM0.371,-0.283L0.29,-0.549L0.211,-0.283L0.371,-0.283Z" style="fill:white;fill-rule:nonzero;"/>
        </g>
        <g transform="matrix(115,0,0,115,202.057,300)">
            <path d="M0.059,-0.716L0.177,-0.716L0.177,-0.328C0.177,-0.268 0.178,-0.229 0.181,-0.21C0.186,-0.179 0.199,-0.154 0.219,-0.137C0.238,-0.12 0.264,-0.111 0.297,-0.111C0.324,-0.111 0.346,-0.117 0.364,-0.13C0.381,-0.142 0.393,-0.159 0.399,-0.18C0.406,-0.202 0.409,-0.249 0.409,-0.32L0.409,-0.716L0.527,-0.716L0.527,-0.34C0.527,-0.244 0.522,-0.174 0.511,-0.132C0.501,-0.089 0.478,-0.054 0.442,-0.028C0.406,-0.001 0.359,0.012 0.3,0.012C0.239,0.012 0.191,0.001 0.156,-0.021C0.122,-0.043 0.097,-0.074 0.082,-0.114C0.066,-0.153 0.059,-0.227 0.059,-0.334L0.059,-0.716Z" style="fill:white;fill-rule:nonzero;"/>
        </g>
        <g transform="matrix(115,0,0,115,270.113,300)">
            <path d="M0.06,-0L0.06,-0.716L0.31,-0.716C0.373,-0.716 0.419,-0.709 0.446,-0.697C0.474,-0.684 0.496,-0.661 0.514,-0.63C0.531,-0.598 0.54,-0.56 0.54,-0.516C0.54,-0.46 0.527,-0.415 0.5,-0.38C0.473,-0.346 0.435,-0.325 0.385,-0.316C0.411,-0.298 0.432,-0.278 0.448,-0.256C0.465,-0.234 0.487,-0.196 0.516,-0.14L0.587,-0L0.446,-0L0.36,-0.156C0.329,-0.212 0.308,-0.247 0.297,-0.261C0.286,-0.276 0.275,-0.285 0.262,-0.291C0.25,-0.296 0.23,-0.299 0.203,-0.299L0.178,-0.299L0.178,-0L0.06,-0ZM0.178,-0.413L0.266,-0.413C0.32,-0.413 0.354,-0.415 0.369,-0.42C0.383,-0.425 0.395,-0.434 0.404,-0.449C0.413,-0.463 0.418,-0.482 0.418,-0.506C0.418,-0.529 0.413,-0.547 0.404,-0.561C0.395,-0.575 0.383,-0.584 0.367,-0.589C0.356,-0.593 0.324,-0.595 0.271,-0.595L0.178,-0.595L0.178,-0.413Z" style="fill:white;fill-rule:nonzero;"/>
        </g>
        <g transform="matrix(115,0,0,115,338.17,300)">
            <path d="M0.589,-0L0.461,-0L0.409,-0.162L0.175,-0.162L0.126,-0L0,-0L0.229,-0.716L0.354,-0.716L0.589,-0ZM0.371,-0.283L0.29,-0.549L0.211,-0.283L0.371,-0.283Z" style="fill:white;fill-rule:nonzero;"/>
        </g>
    </g>
</svg>
