<?xml version="1.0" encoding="UTF-8" ?>
<!DOCTYPE svg PUBLIC "-//W3C//DTD SVG 1.1//EN" "http://www.w3.org/Graphics/SVG/1.1/DTD/svg11.dtd">
<svg width="512pt" height="512pt" viewBox="0 0 512 512" version="1.1" xmlns="http://www.w3.org/2000/svg">
<g id="#f9f9f9ff">
<path fill="#f9f9f9" opacity="1.00" d=" M 236.63 20.83 C 279.66 17.20 323.66 25.47 362.29 44.82 C 412.16 69.53 452.75 112.35 474.67 163.52 C 494.50 209.26 499.19 261.32 488.15 309.93 C 479.90 346.71 462.60 381.40 438.29 410.21 C 413.28 439.98 380.87 463.49 344.75 477.89 C 304.44 494.09 259.64 498.75 216.83 491.51 C 161.58 482.42 110.12 452.74 74.31 409.73 C 49.99 380.75 32.74 345.86 24.62 308.90 C 15.20 266.37 17.69 221.26 31.92 180.08 C 47.08 135.83 75.78 96.41 113.08 68.20 C 148.65 41.10 192.05 24.43 236.63 20.83 M 240.63 54.62 C 239.10 59.27 238.49 64.14 237.86 68.98 C 231.23 108.29 224.69 147.62 218.09 186.94 C 217.40 191.70 216.19 196.40 216.16 201.23 C 218.34 200.09 220.41 198.75 222.42 197.33 C 235.11 188.66 248.70 181.11 263.35 176.30 C 283.72 169.36 305.71 168.75 326.88 171.61 C 347.28 174.85 367.59 182.87 382.41 197.65 C 398.51 213.23 407.10 235.10 409.98 257.00 C 411.91 271.54 412.02 286.36 410.23 300.92 C 406.78 339.00 395.01 377.10 372.01 408.02 C 366.07 416.26 358.78 423.38 351.76 430.67 C 347.31 434.61 342.60 438.25 337.94 441.93 C 345.53 438.70 352.56 434.39 359.96 430.79 C 403.59 405.16 436.98 362.58 451.16 313.97 C 459.18 287.52 460.88 259.43 457.96 232.02 C 453.74 196.57 439.76 162.38 418.04 134.04 C 388.01 94.39 342.82 66.32 293.81 57.58 C 276.33 54.03 258.39 53.64 240.63 54.62 M 96.12 132.98 C 72.76 163.09 58.03 199.96 54.84 237.97 C 53.43 251.19 53.51 264.56 55.12 277.75 C 58.77 317.47 75.55 355.50 100.80 386.22 C 101.21 386.28 102.02 386.40 102.42 386.45 C 105.05 369.24 108.31 352.13 111.09 334.95 C 124.73 255.31 138.29 175.67 151.92 96.03 C 152.28 91.36 154.30 86.82 153.51 82.11 C 131.59 95.51 111.74 112.52 96.12 132.98 M 256.43 232.53 C 240.08 234.85 224.78 242.48 212.43 253.33 C 209.54 256.13 205.03 258.24 204.73 262.76 C 203.38 272.72 201.37 282.58 199.74 292.49 C 196.51 309.61 193.93 326.86 190.65 343.97 C 189.17 354.99 186.29 365.81 185.31 376.88 C 189.91 384.85 197.06 391.27 204.83 396.14 C 213.95 401.94 224.62 404.63 235.17 406.39 C 247.35 407.48 260.04 408.04 271.73 403.79 C 289.52 398.15 303.24 383.77 311.50 367.41 C 320.26 350.90 324.03 332.37 326.77 314.06 C 327.41 304.05 328.34 294.00 327.29 283.99 C 326.29 266.79 318.98 248.65 303.85 239.23 C 289.84 230.26 272.33 230.65 256.43 232.53 Z" />
</g>
<g id="#72bc19ff">
<path fill="#72bc19" opacity="1.00" d=" M 240.63 54.62 C 258.39 53.64 276.33 54.03 293.81 57.58 C 342.82 66.32 388.01 94.39 418.04 134.04 C 439.76 162.38 453.74 196.57 457.96 232.02 C 460.88 259.43 459.18 287.52 451.16 313.97 C 436.98 362.58 403.59 405.16 359.96 430.79 C 352.56 434.39 345.53 438.70 337.94 441.93 C 342.60 438.25 347.31 434.61 351.76 430.67 C 358.78 423.38 366.07 416.26 372.01 408.02 C 395.01 377.10 406.78 339.00 410.23 300.92 C 412.02 286.36 411.91 271.54 409.98 257.00 C 407.10 235.10 398.51 213.23 382.41 197.65 C 367.59 182.87 347.28 174.85 326.88 171.61 C 305.71 168.75 283.72 169.36 263.35 176.30 C 248.70 181.11 235.11 188.66 222.42 197.33 C 220.41 198.75 218.34 200.09 216.16 201.23 C 216.19 196.40 217.40 191.70 218.09 186.94 C 224.69 147.62 231.23 108.29 237.86 68.98 C 238.49 64.14 239.10 59.27 240.63 54.62 Z" />
<path fill="#72bc19" opacity="1.00" d=" M 96.12 132.98 C 111.74 112.52 131.59 95.51 153.51 82.11 C 154.30 86.82 152.28 91.36 151.92 96.03 C 138.29 175.67 124.73 255.31 111.09 334.95 C 108.31 352.13 105.05 369.24 102.42 386.45 C 102.02 386.40 101.21 386.28 100.80 386.22 C 75.55 355.50 58.77 317.47 55.12 277.75 C 53.51 264.56 53.43 251.19 54.84 237.97 C 58.03 199.96 72.76 163.09 96.12 132.98 Z" />
<path fill="#72bc19" opacity="1.00" d=" M 256.43 232.53 C 272.33 230.65 289.84 230.26 303.85 239.23 C 318.98 248.65 326.29 266.79 327.29 283.99 C 328.34 294.00 327.41 304.05 326.77 314.06 C 324.03 332.37 320.26 350.90 311.50 367.41 C 303.24 383.77 289.52 398.15 271.73 403.79 C 260.04 408.04 247.35 407.48 235.17 406.39 C 224.62 404.63 213.95 401.94 204.83 396.14 C 197.06 391.27 189.91 384.85 185.31 376.88 C 186.29 365.81 189.17 354.99 190.65 343.97 C 193.93 326.86 196.51 309.61 199.74 292.49 C 201.37 282.58 203.38 272.72 204.73 262.76 C 205.03 258.24 209.54 256.13 212.43 253.33 C 224.78 242.48 240.08 234.85 256.43 232.53 Z" />
</g>
</svg>
