<?xml version="1.0" encoding="UTF-8" standalone="no"?><!DOCTYPE svg PUBLIC "-//W3C//DTD SVG 1.1//EN" "http://www.w3.org/Graphics/SVG/1.1/DTD/svg11.dtd"><svg width="100%" height="100%" viewBox="0 0 512 512" version="1.1" xmlns="http://www.w3.org/2000/svg" xmlns:xlink="http://www.w3.org/1999/xlink" xml:space="preserve" xmlns:serif="http://www.serif.com/" style="fill-rule:evenodd;clip-rule:evenodd;stroke-linejoin:round;stroke-miterlimit:2;"><path d="M256.025,0.05c-138.355,-2.728 -252.841,106.988 -256,245.333c0.361,70.423 31.544,137.157 85.333,182.613l0,73.387c0,5.891 4.776,10.667 10.667,10.667c1.999,0 3.958,-0.562 5.653,-1.621l59.456,-37.141c30.292,11.586 62.459,17.494 94.891,17.429c138.355,2.728 252.841,-106.988 256,-245.333c-3.159,-138.346 -117.645,-248.062 -256,-245.334Z" style="fill:#f1b735;fill-rule:nonzero;"/><g id="Bee"><path d="M153.635,91.616c7.912,-1.557 16.125,-0.206 23.575,2.66c14.054,5.701 24.861,17.058 33.655,29.085c13.863,19.417 23.45,41.501 31.384,63.886c1.8,6.23 4.46,12.24 5.4,18.69c-21.533,-8.456 -42.537,-18.301 -62.99,-29.115c-15.112,-8.235 -30.077,-16.956 -43.418,-27.895c-6.921,-5.547 -13.4,-11.923 -17.816,-19.681c-3.511,-5.966 -4.511,-13.841 -0.646,-19.895c4.797,-7.339 12.842,-11.733 20.798,-14.884c3.174,-1.492 6.715,-1.859 10.058,-2.851Z" style="fill:#040506;fill-rule:nonzero;"/><path d="M213.142,97.302c6.913,-1.836 14.98,-1.528 20.857,2.954c6.443,4.841 9.661,12.687 11.667,20.24c0.721,2.715 1.3,5.201 1.66,7.861c2.513,12.592 1.785,25.529 1.3,38.29c-0.925,4.247 -0.161,8.647 -1.182,12.871c-0.419,2.888 -0.353,5.826 -0.779,8.714c-0.963,-1.624 -1.668,-3.38 -2.079,-5.217c-7.127,-20.445 -16.449,-40.222 -28.615,-58.185c-4.342,-6.318 -9.022,-12.445 -14.539,-17.793c-1.132,-1.088 -2.256,-2.19 -3.181,-3.461c4.848,-2.328 9.557,-5.238 14.891,-6.274Z" style="fill:#040506;fill-rule:nonzero;"/><path d="M448.315,158.948c6.906,-1.528 14.149,-0.985 20.916,0.933c5.062,2.02 9.624,5.921 11.343,11.204c0.801,3.494 0.654,6.744 -1.763,9.08c-1.999,2.637 -5.143,3.894 -8.184,4.871c4.392,3.147 9.928,6.851 10.264,12.76c0.006,0.119 0.011,0.24 0.013,0.361c0.441,4.386 -1.888,8.566 -5.172,11.306c-3.585,1.844 -8.219,1.174 -11.339,-1.731c-2.343,-2.182 -2.142,-5.88 -1.635,-8.796c0.542,-3.116 3.034,-5.099 5.4,-6.759c-3.108,-2.212 -6.987,-2.674 -10.542,-3.821c-5.944,-0.8 -12.027,-0.639 -17.985,-0.007c-4.459,1.168 -9.102,1.653 -13.385,3.424c-12.541,4.121 -23.767,11.504 -33.699,20.1c13.128,9.08 23.149,23.502 24.67,39.62c0.771,3.96 0.749,8.126 0.095,12.108c-1.572,18.55 -14.098,35.08 -30.349,43.638c-21.129,11.432 -48.51,9.661 -68.066,-4.297c-4.68,11.35 -12.431,21.305 -21.981,28.989c-6.414,5.503 -13.753,9.764 -21.078,13.915c-0.294,-5.392 -0.25,-10.814 -0.698,-16.199c-0.918,-6.517 -1.557,-13.063 -2.255,-19.608c-1.418,-5.312 -1.506,-10.866 -3.064,-16.134c-5.995,-29.944 -18.131,-58.648 -35.212,-83.994c4.408,0.022 8.485,1.94 12.842,2.359c18.697,4.503 37.475,11.424 52.183,24.236c4.643,-10.175 12.188,-18.983 21.584,-25.066c8.287,-5.562 17.97,-8.706 27.793,-10.087c7.243,-0.36 14.685,-0.742 21.716,1.359c3.181,0.602 6.348,1.352 9.22,2.931c14.436,-20.585 34.823,-38.041 59.434,-44.756c2.873,-1.065 5.87,-1.726 8.934,-1.939m-47.885,33.295c-4.1,4.254 -8.545,8.346 -11.571,13.474c1.946,-1.213 3.548,-2.888 5.385,-4.254c10.175,-7.942 21.731,-14.238 34.154,-17.808c3.931,-0.654 7.692,-2.204 11.711,-2.307c7.934,-0.397 16.067,-0.904 23.832,1.146c-1.359,-2.447 -3.613,-4.797 -3.238,-7.817c-0.225,-2.561 1.144,-4.649 2.895,-6.287c0.931,-0.872 2.005,-1.615 3.076,-2.235c-6.355,-0.882 -12.805,-0.918 -19.167,-0.132c-17.853,3.732 -34.36,13.18 -47.077,26.22" style="fill:#040506;fill-rule:nonzero;"/><path d="M184.74,205.878c4.422,0.117 8.852,-0.121 13.26,0.241c0.037,0.003 0.074,0.006 0.111,0.009c4.353,0.367 8.632,0.044 12.834,0.845c12.078,17.683 21.012,37.446 27.256,57.884c2.564,8.037 4.394,16.265 6.363,24.457c0.345,4.062 1.726,7.934 2.262,11.953c0.427,4.871 1.94,9.572 2.271,14.458c0.367,5.914 1.954,11.688 2.218,17.617c0.294,7.31 1.94,14.48 2.189,21.805c-8.242,2.689 -16.654,4.738 -25.118,6.59c-1.844,0.316 -3.835,0.198 -5.495,1.197c-0.859,-3.842 -0.242,-7.831 -0.992,-11.688c-0.463,-3.005 -0.161,-6.069 -0.448,-9.081c-1.109,-6.017 -0.705,-12.18 -1.447,-18.241c-0.948,-6.061 -1.602,-12.159 -2.182,-18.279c-1.469,-6.061 -1.594,-12.342 -3.262,-18.359c-2.219,-12.548 -5.503,-24.883 -9.536,-36.968c-3.401,-10.352 -7.912,-20.277 -12.438,-30.165c-1.063,-2.323 -3.648,-6.807 -4.906,-8.777c-0.84,-1.316 -2.22,-3.94 -2.94,-5.498Z" style="fill:#040506;fill-rule:nonzero;"/><path d="M143.614,210.11c5.745,-0.478 11.277,-2.601 17.095,-2.358c2.968,5.723 6.208,11.313 9.022,17.125c0.955,2.035 1.459,4.302 2.77,6.602c1.923,3.375 2.953,5.791 4.106,9.252c6.921,17.073 11.468,34.962 15.076,52.991c0.323,4.202 1.616,8.243 2.16,12.408c0.374,5.18 1.52,10.256 2.182,15.399c0.565,9.888 2.586,19.608 2.732,29.54c0.662,4.702 1.051,9.434 0.933,14.201c-8.676,0.089 -17.36,0.243 -26.021,-0.066c-3.468,-0.595 -6.98,-0.749 -10.484,-0.947c-0.176,-5.143 0.052,-10.344 -0.955,-15.414c-0.081,-6.156 -1.286,-12.21 -1.572,-18.351c-1.425,-7.075 -1.881,-14.304 -3.747,-21.291c-0.433,-4.761 -2.307,-9.213 -2.865,-13.951c-1.367,-4.033 -1.998,-8.265 -3.475,-12.262c-1.631,-7.111 -4.562,-13.833 -6.421,-20.879c-1.004,-3.804 -3.676,-8.576 -4.614,-10.887c-4.004,-9.867 -8.786,-19.41 -14.054,-28.667c-1.329,-2.197 -2.755,-4.364 -3.629,-6.796c7.148,-2.306 14.451,-3.967 21.761,-5.649" style="fill:#040506;fill-rule:nonzero;"/><path d="M98.035,225.589c2.109,-1.006 4.107,-2.241 6.37,-2.88c7.545,12.063 13.731,24.942 18.91,38.181c0.162,1.711 1.44,6.09 2.16,6.604c2.703,7.494 4.687,15.2 6.671,22.907c0.382,4.136 2.071,8.001 2.439,12.137c0.382,4.209 1.851,8.25 2.138,12.482c0.404,5.921 2.13,11.673 2.27,17.624c0.051,3.703 0.999,7.303 1.19,10.991c1.036,5.708 0.948,11.534 1.396,17.301c-8.537,-1.925 -17.155,-3.886 -25.265,-7.244c-16.677,7.766 -33.56,15.149 -49.825,23.781c8.823,-10.483 16.743,-21.687 25.089,-32.545c0.587,-0.61 0.837,-1.404 1.08,-2.19c-2.373,-0.734 -4.298,-2.343 -6.392,-3.607c-12.408,-8.074 -23.634,-18.734 -30.004,-32.281c-3.071,-6.627 -4.834,-13.907 -4.496,-21.232c-0.536,-13.745 6.157,-26.712 15.105,-36.762c8.676,-9.778 19.608,-17.287 31.164,-23.267" style="fill:#040506;fill-rule:nonzero;"/><circle cx="387.294" cy="236.172" r="19.755" style="fill:#f1b735;"/><path d="M103.046,281.886c0.984,-1.131 1.822,-2.931 3.614,-2.615c1.403,0.779 2.344,2.182 3.196,3.497c0.815,1.881 -0.345,4.143 -2.527,4.019c-1.925,-1.125 -3.093,-3.101 -4.283,-4.901Z" style="fill:#040506;fill-rule:nonzero;"/><path d="M396.578,226.214c5.124,0 9.284,4.16 9.284,9.284c0,5.124 -4.16,9.284 -9.284,9.284c-5.124,0 -9.284,-4.16 -9.284,-9.284c0,-5.124 4.16,-9.284 9.284,-9.284Zm2.163,2.474c2.878,0 5.215,2.336 5.215,5.215c0,2.878 -2.337,5.215 -5.215,5.215c-2.878,0 -5.215,-2.337 -5.215,-5.215c0,-2.879 2.337,-5.215 5.215,-5.215Z"/></g></svg>