<?xml version="1.0" encoding="UTF-8" standalone="no"?>
<svg
   xmlns:dc="http://purl.org/dc/elements/1.1/"
   xmlns:cc="http://creativecommons.org/ns#"
   xmlns:rdf="http://www.w3.org/1999/02/22-rdf-syntax-ns#"
   xmlns:svg="http://www.w3.org/2000/svg"
   xmlns="http://www.w3.org/2000/svg"
   xmlns:sodipodi="http://sodipodi.sourceforge.net/DTD/sodipodi-0.dtd"
   xmlns:inkscape="http://www.inkscape.org/namespaces/inkscape"
   width="225pt"
   height="225pt"
   viewBox="0 0 225 225"
   version="1.1"
   id="svg15"
   sodipodi:docname="Download.svg"
   inkscape:export-filename="C:\Users\tobse\Desktop\BoostnoteLogo.png"
   inkscape:export-xdpi="327.67999"
   inkscape:export-ydpi="327.67999"
   inkscape:version="0.92.4 (5da689c313, 2019-01-14)">
  <metadata
     id="metadata21">
    <rdf:RDF>
      <cc:Work
         rdf:about="">
        <dc:format>image/svg+xml</dc:format>
        <dc:type
           rdf:resource="http://purl.org/dc/dcmitype/StillImage" />
      </cc:Work>
    </rdf:RDF>
  </metadata>
  <defs
     id="defs19" />
  <sodipodi:namedview
     pagecolor="#ffffff"
     bordercolor="#666666"
     borderopacity="1"
     objecttolerance="10"
     gridtolerance="10"
     guidetolerance="10"
     inkscape:pageopacity="0"
     inkscape:pageshadow="2"
     inkscape:window-width="3840"
     inkscape:window-height="2097"
     id="namedview17"
     showgrid="false"
     inkscape:zoom="8.9001173"
     inkscape:cx="106.43618"
     inkscape:cy="125.72951"
     inkscape:window-x="-8"
     inkscape:window-y="-8"
     inkscape:window-maximized="1"
     inkscape:current-layer="svg15" />
  <g
     id="#ffffffff">
    <path
       fill="#ffffff"
       opacity="1.00"
       d=" M 158.00 65.10 C 158.82 65.57 159.64 66.03 160.46 66.50 C 150.27 98.91 139.80 131.24 129.51 163.62 C 128.18 167.51 127.19 171.52 125.57 175.30 C 120.03 161.45 114.26 147.68 108.61 133.87 C 124.55 112.70 140.38 91.45 156.31 70.28 C 157.50 68.80 157.64 66.88 158.00 65.10 Z"
       id="path2" />
    <path
       fill="#ffffff"
       opacity="1.00"
       d=" M 144.74 75.73 C 148.63 72.93 152.20 69.64 156.52 67.48 C 153.89 71.12 150.48 74.07 147.34 77.26 C 135.50 89.12 123.62 100.95 111.80 112.84 C 110.46 114.13 109.04 115.33 107.63 116.54 C 102.00 116.60 96.38 116.34 90.76 116.10 C 108.87 102.79 126.73 89.16 144.74 75.73 Z"
       id="path4" />
    <path
       fill="#ffffff"
       opacity="1.00"
       d=" M 64.04 160.86 C 62.46 145.62 73.65 129.77 88.80 126.95 C 84.67 132.45 80.74 138.40 79.54 145.31 C 86.43 143.97 92.32 140.03 97.93 136.02 C 94.86 151.11 79.27 162.17 64.04 160.86 Z"
       id="path6" />
  </g>
  <g
     id="#00c586ff">
    <path
       d="m 107.18,11.2 c 22.57,-1.22 45.55,5.35 63.95,18.53 17.64,12.49 31.12,30.79 37.67,51.4 7.28,22.65 6.29,47.88 -2.93,69.83 -8.92,21.53 -25.59,39.71 -46.24,50.5 -21.16,11.21 -46.39,14.43 -69.7,8.98 C 70.04,205.92 51.69,195.12 38.01,180.01 21.17,161.7 11.56,136.93 11.75,112.05 11.6,89.52 19.44,67.08 33.45,49.44 51.09,26.93 78.61,12.67 107.18,11.2 M 49.82,98.68 c 1.459294,0.730973 2.473873,1.018657 3.38,1.99 12.55,5.07 25.03,10.3 37.56,15.43 5.62,0.24 11.24,0.5 16.87,0.44 1.16,5.67 0.42,11.57 0.98,17.33 5.65,13.81 11.42,27.58 16.96,41.43 1.62,-3.78 2.61,-7.79 3.94,-11.68 10.29,-32.38 20.76,-64.71 30.95,-97.12 0.39186,-1.30847 0.95134,-2.724362 1.15,-3.55 C 124.4,75.03 87.12,86.91 49.82,98.68 m 14.22,62.18 c 15.23,1.31 30.82,-9.75 33.89,-24.84 -5.61,4.01 -11.5,7.95 -18.39,9.29 1.2,-6.91 5.13,-12.86 9.26,-18.36 -15.15,2.82 -26.34,18.67 -24.76,33.91 z"
       id="path9"
       inkscape:connector-curvature="0"
       style="opacity:1;fill:#00c586"
       sodipodi:nodetypes="ccccccccccccccccccccccccc"
       inkscape:export-xdpi="327"
       inkscape:export-ydpi="327" />
  </g>
  <g
     id="#ccf3e7ff">
    <path
       d="m 49.82,98.68 c 37.3,-11.77 74.58,-23.65 111.79,-35.73 -2.39361,3.662264 -2.92791,4.410781 -5.3,7.33 -15.93,21.17 -31.76,42.42 -47.7,63.59 -0.56,-5.76 0.18,-11.66 -0.98,-17.33 1.41,-1.21 2.83,-2.41 4.17,-3.7 11.82,-11.89 23.7,-23.72 35.54,-35.58 3.14,-3.19 9.81239,-9.104446 12.44239,-12.744446 C 155.46239,66.675554 148.63,72.93 144.74,75.73 126.73,89.16 108.87,102.79 90.76,116.1 78.23,110.97 65.75,105.74 53.2,100.67 52.083201,100.01466 51.786403,99.940207 49.82,98.68 Z"
       id="path12"
       inkscape:connector-curvature="0"
       style="opacity:1;fill:#ccf3e7"
       sodipodi:nodetypes="cccccccccccc" />
  </g>
</svg>
