<?xml version="1.0" encoding="UTF-8" ?>
<!DOCTYPE svg PUBLIC "-//W3C//DTD SVG 1.1//EN" "http://www.w3.org/Graphics/SVG/1.1/DTD/svg11.dtd">
<svg width="512pt" height="512pt" viewBox="0 0 512 512" version="1.1" xmlns="http://www.w3.org/2000/svg">
<g id="#ffffffff">
<path fill="#ffffff" opacity="1.00" d=" M 66.58 0.00 L 440.42 0.00 C 446.45 0.73 452.38 3.00 456.95 7.08 C 463.55 12.68 467.25 21.33 467.00 29.95 C 466.98 151.66 467.02 273.36 466.98 395.07 C 467.16 407.11 458.91 418.56 447.54 422.40 C 441.07 424.78 434.09 423.69 427.37 424.13 C 422.18 419.13 417.00 414.10 412.05 408.85 C 416.95 400.84 421.88 392.75 424.91 383.79 C 432.30 364.01 434.06 342.17 429.75 321.49 C 425.41 299.61 414.29 279.22 398.47 263.53 C 377.87 243.00 349.17 230.51 319.99 230.48 C 297.90 229.95 275.64 236.09 257.05 248.06 C 234.25 262.45 216.73 285.18 209.09 311.08 C 202.70 331.42 202.36 353.56 208.01 374.11 C 212.94 392.81 222.99 409.96 236.30 423.93 C 182.21 424.10 128.11 423.94 74.01 424.01 C 68.63 424.11 63.07 424.02 58.04 421.86 C 47.38 417.60 39.86 406.57 40.00 395.05 C 40.00 273.01 40.00 150.97 40.00 28.94 C 39.72 14.28 52.04 1.12 66.58 0.00 M 149.29 39.12 C 143.49 40.40 138.26 44.01 135.08 49.04 C 128.53 58.64 127.33 70.67 127.41 81.99 C 127.56 92.36 129.09 103.21 134.97 112.02 C 139.24 118.65 147.06 122.94 155.00 122.44 C 162.81 122.42 170.10 117.66 173.90 110.95 C 179.91 100.78 180.65 88.54 180.50 77.01 C 180.00 66.66 178.34 55.66 171.75 47.28 C 166.65 40.51 157.53 37.29 149.29 39.12 M 213.31 39.25 C 207.29 40.63 202.19 44.80 199.01 50.02 C 194.33 57.50 192.70 66.43 192.24 75.13 C 191.82 85.43 192.27 96.08 196.27 105.73 C 198.63 111.53 202.58 116.97 208.23 119.91 C 215.88 123.99 225.92 123.21 232.66 117.66 C 239.38 112.16 242.45 103.50 243.93 95.19 C 245.42 84.89 245.54 74.34 243.56 64.09 C 241.95 56.41 238.77 48.57 232.54 43.49 C 227.28 39.08 219.92 37.70 213.31 39.25 M 407.31 39.24 C 396.61 41.63 390.30 52.08 387.94 62.08 C 385.01 75.47 385.03 89.75 389.08 102.91 C 391.47 110.02 395.88 117.00 402.89 120.27 C 411.07 124.31 421.74 122.73 428.19 116.19 C 434.87 109.59 437.32 100.00 438.38 90.95 C 439.19 79.77 439.33 68.21 435.64 57.48 C 433.38 51.07 429.55 44.80 423.43 41.45 C 418.62 38.62 412.71 38.02 407.31 39.24 M 79.03 40.27 C 78.74 67.12 78.84 93.98 78.98 120.83 C 85.88 120.88 92.78 120.88 99.68 120.83 C 99.61 93.98 99.64 67.13 99.66 40.29 C 92.78 40.27 85.91 40.35 79.03 40.27 M 272.69 39.93 C 272.48 66.98 272.55 94.03 272.66 121.07 C 279.69 121.10 286.73 121.25 293.76 120.98 C 293.67 94.01 293.73 67.05 293.73 40.08 C 286.73 39.69 279.71 39.93 272.69 39.93 M 337.42 40.32 C 337.47 67.15 337.52 93.97 337.39 120.80 C 344.32 120.94 351.25 120.76 358.18 120.94 C 358.28 94.04 358.33 67.12 358.15 40.22 C 351.24 40.44 344.33 40.20 337.42 40.32 M 83.37 170.52 C 77.22 172.14 72.21 176.71 69.12 182.16 C 63.55 192.08 62.67 203.85 63.00 214.99 C 63.34 226.79 65.67 239.91 74.86 248.18 C 81.80 254.33 92.68 255.36 100.68 250.68 C 105.94 247.60 109.70 242.42 111.82 236.77 C 116.03 226.10 116.02 214.37 115.45 203.08 C 114.58 193.85 112.33 184.12 105.94 177.06 C 100.47 170.83 91.32 168.09 83.37 170.52 M 212.36 170.58 C 207.24 172.02 202.83 175.48 199.84 179.83 C 194.71 187.22 192.88 196.32 192.29 205.14 C 191.85 214.21 192.06 223.46 194.65 232.23 C 196.39 238.13 199.24 243.93 203.93 248.05 C 210.99 254.43 222.31 255.44 230.38 250.37 C 237.09 246.32 240.76 238.84 242.75 231.53 C 245.49 220.77 245.49 209.48 244.17 198.52 C 242.89 190.55 240.32 182.35 234.56 176.44 C 229.00 170.58 220.09 168.11 212.36 170.58 M 341.41 170.62 C 333.80 172.83 328.40 179.44 325.47 186.53 C 321.34 196.88 320.84 208.32 321.65 219.32 C 328.69 219.82 335.74 220.29 342.68 221.62 C 342.24 214.98 341.90 208.26 342.82 201.64 C 343.59 197.52 344.51 192.91 348.00 190.17 C 351.69 193.36 352.31 198.50 353.11 203.02 C 353.81 210.04 353.70 217.17 352.46 224.13 C 356.71 225.61 361.05 226.85 365.19 228.62 C 367.52 229.53 369.77 230.92 372.36 230.89 C 373.95 222.72 374.79 214.35 374.27 206.02 C 373.55 196.38 371.88 186.17 365.68 178.40 C 360.26 171.09 350.07 167.79 341.41 170.62 M 144.21 171.41 L 143.63 172.05 C 143.52 198.71 143.52 225.39 143.63 252.05 C 150.51 252.13 157.39 252.15 164.27 252.06 C 164.45 227.04 164.26 202.02 164.36 176.99 C 164.37 175.09 164.31 173.18 164.09 171.28 C 157.46 171.52 150.83 171.24 144.21 171.41 M 273.03 171.33 C 272.55 190.15 272.86 209.01 272.88 227.84 C 279.62 225.24 286.57 223.25 293.62 221.69 C 293.48 204.92 293.59 188.14 293.56 171.37 C 286.72 171.34 279.88 171.43 273.03 171.33 M 402.27 171.34 C 402.16 198.23 402.26 225.11 402.21 252.00 C 409.07 252.14 415.93 252.23 422.79 251.97 C 422.70 225.10 422.82 198.23 422.73 171.37 C 415.90 171.35 409.08 171.42 402.27 171.34 M 150.31 301.16 C 144.08 302.06 138.66 306.01 135.15 311.13 C 129.78 319.00 127.81 328.66 127.53 338.04 C 127.06 350.10 127.91 362.97 134.50 373.44 C 138.70 380.46 146.77 385.15 155.02 384.66 C 162.63 384.61 169.73 380.06 173.60 373.62 C 179.45 364.22 180.41 352.80 180.53 341.99 C 180.37 330.92 178.95 319.07 172.09 309.96 C 167.24 303.28 158.47 299.48 150.31 301.16 M 79.10 302.41 C 78.63 308.26 79.00 314.14 78.87 320.00 C 78.97 340.94 78.72 361.89 78.99 382.83 C 85.88 382.83 92.78 382.89 99.67 382.79 C 99.62 356.01 99.65 329.23 99.66 302.45 C 92.81 302.47 85.96 302.52 79.10 302.41 Z" />
<path fill="#ffffff" opacity="1.00" d=" M 218.26 59.15 C 220.73 60.28 221.57 63.05 222.36 65.43 C 224.55 72.43 224.03 79.84 223.91 87.07 C 223.39 92.05 222.67 97.42 219.57 101.53 C 217.78 102.40 216.89 100.10 216.05 98.95 C 213.19 93.10 213.07 86.39 212.85 80.01 C 213.29 72.88 213.22 64.81 218.26 59.15 Z" />
<path fill="#ffffff" opacity="1.00" d=" M 412.24 59.09 C 414.75 60.70 415.74 63.66 416.51 66.39 C 418.37 73.13 418.11 80.19 417.83 87.10 C 417.25 92.06 416.52 97.36 413.50 101.50 C 411.76 102.38 410.76 100.20 410.00 99.02 C 406.93 92.85 406.87 85.75 406.76 79.02 C 407.11 72.16 407.40 64.48 412.24 59.09 Z" />
<path fill="#ffffff" opacity="1.00" d=" M 148.56 73.24 C 149.27 68.26 149.96 62.59 154.01 59.10 C 155.24 60.22 156.44 61.46 156.98 63.08 C 160.13 70.98 159.75 79.69 159.31 88.02 C 158.66 92.77 158.05 98.02 154.69 101.71 C 152.82 102.03 152.06 99.95 151.29 98.65 C 147.66 90.71 148.23 81.73 148.56 73.24 Z" />
<path fill="#ffffff" opacity="1.00" d=" M 86.34 194.28 C 87.02 192.81 88.72 189.25 90.58 191.30 C 94.82 197.23 94.82 205.00 94.88 212.00 C 94.78 219.22 94.68 227.29 89.90 233.18 C 86.51 231.48 85.67 227.39 84.83 224.05 C 83.02 214.23 82.97 203.77 86.34 194.28 Z" />
<path fill="#ffffff" opacity="1.00" d=" M 213.76 200.45 C 214.58 196.73 215.47 192.38 218.97 190.23 C 222.52 194.24 223.31 199.80 223.90 204.93 C 224.07 213.36 224.67 222.22 221.14 230.11 C 220.48 231.29 219.93 233.08 218.24 232.81 C 215.40 230.18 214.46 226.23 213.72 222.58 C 212.61 215.25 212.69 207.77 213.76 200.45 Z" />
<path fill="#ffffff" opacity="1.00" d=" M 304.43 261.70 C 315.64 259.81 327.14 260.53 338.19 263.02 C 360.97 268.58 381.05 284.25 391.98 305.00 C 398.65 317.53 402.28 331.77 401.75 346.00 C 401.64 367.83 392.03 389.25 376.43 404.42 C 364.32 416.10 348.71 424.18 332.09 426.94 C 318.26 429.08 303.83 428.23 290.61 423.47 C 277.47 418.98 265.62 410.96 256.23 400.77 C 242.02 385.21 233.81 364.12 234.44 343.01 C 234.37 326.64 239.87 310.49 249.01 297.00 C 261.72 278.41 282.18 265.29 304.43 261.70 M 348.40 294.61 C 340.26 295.69 333.15 301.03 328.96 307.98 C 322.22 319.00 320.72 332.32 320.90 344.99 C 320.94 357.40 322.95 370.43 330.07 380.90 C 334.86 388.09 343.25 392.92 351.98 392.75 C 360.50 393.09 368.89 388.71 373.75 381.76 C 378.99 374.27 381.35 365.19 382.45 356.24 C 383.28 345.38 383.52 334.33 381.24 323.62 C 379.27 314.95 375.72 306.09 368.70 300.29 C 363.17 295.54 355.56 293.62 348.40 294.61 M 264.22 296.37 C 263.32 302.89 264.33 309.46 264.16 316.01 C 264.07 334.01 264.07 351.99 264.16 370.00 C 264.30 376.93 263.35 383.86 264.15 390.77 C 272.29 390.81 280.44 390.82 288.59 390.75 C 288.53 359.30 288.53 327.85 288.59 296.39 C 280.46 296.37 272.34 296.39 264.22 296.37 Z" />
<path fill="#ffffff" opacity="1.00" d=" M 351.28 319.16 C 353.25 318.40 354.23 320.61 355.04 321.98 C 357.29 326.64 358.09 331.86 358.50 336.98 C 358.80 345.45 358.92 354.15 356.32 362.32 C 355.35 364.80 354.48 368.35 351.17 368.20 C 348.73 365.14 347.42 361.39 346.69 357.59 C 345.00 348.56 345.03 339.24 346.54 330.19 C 347.34 326.26 348.41 322.11 351.28 319.16 Z" />
<path fill="#ffffff" opacity="1.00" d=" M 153.19 321.95 C 155.01 321.24 155.93 323.09 156.62 324.43 C 159.20 329.89 159.55 336.05 159.60 342.00 C 159.58 348.61 159.33 355.49 156.51 361.59 C 155.95 363.00 154.18 364.76 152.83 363.16 C 148.41 357.14 148.36 349.16 148.34 342.00 C 148.38 335.15 148.68 327.51 153.19 321.95 Z" />
</g>
<g id="#242021ff">
<path fill="#242021" opacity="1.00" d=" M 149.29 39.12 C 157.53 37.29 166.65 40.51 171.75 47.28 C 178.34 55.66 180.00 66.66 180.50 77.01 C 180.65 88.54 179.91 100.78 173.90 110.95 C 170.10 117.66 162.81 122.42 155.00 122.44 C 147.06 122.94 139.24 118.65 134.97 112.02 C 129.09 103.21 127.56 92.36 127.41 81.99 C 127.33 70.67 128.53 58.64 135.08 49.04 C 138.26 44.01 143.49 40.40 149.29 39.12 M 148.56 73.24 C 148.23 81.73 147.66 90.71 151.29 98.65 C 152.06 99.95 152.82 102.03 154.69 101.71 C 158.05 98.02 158.66 92.77 159.31 88.02 C 159.75 79.69 160.13 70.98 156.98 63.08 C 156.44 61.46 155.24 60.22 154.01 59.10 C 149.96 62.59 149.27 68.26 148.56 73.24 Z" />
<path fill="#242021" opacity="1.00" d=" M 213.31 39.25 C 219.92 37.70 227.28 39.08 232.54 43.49 C 238.77 48.57 241.95 56.41 243.56 64.09 C 245.54 74.34 245.42 84.89 243.93 95.19 C 242.45 103.50 239.38 112.16 232.66 117.66 C 225.92 123.21 215.88 123.99 208.23 119.91 C 202.58 116.97 198.63 111.53 196.27 105.73 C 192.27 96.08 191.82 85.43 192.24 75.13 C 192.70 66.43 194.33 57.50 199.01 50.02 C 202.19 44.80 207.29 40.63 213.31 39.25 M 218.26 59.15 C 213.22 64.81 213.29 72.88 212.85 80.01 C 213.07 86.39 213.19 93.10 216.05 98.95 C 216.89 100.10 217.78 102.40 219.57 101.53 C 222.67 97.42 223.39 92.05 223.91 87.07 C 224.03 79.84 224.55 72.43 222.36 65.43 C 221.57 63.05 220.73 60.28 218.26 59.15 Z" />
<path fill="#242021" opacity="1.00" d=" M 407.31 39.24 C 412.71 38.02 418.62 38.62 423.43 41.45 C 429.55 44.80 433.38 51.07 435.64 57.48 C 439.33 68.21 439.19 79.77 438.38 90.95 C 437.32 100.00 434.87 109.59 428.19 116.19 C 421.74 122.73 411.07 124.31 402.89 120.27 C 395.88 117.00 391.47 110.02 389.08 102.91 C 385.03 89.75 385.01 75.47 387.94 62.08 C 390.30 52.08 396.61 41.63 407.31 39.24 M 412.24 59.09 C 407.40 64.48 407.11 72.16 406.76 79.02 C 406.87 85.75 406.93 92.85 410.00 99.02 C 410.76 100.20 411.76 102.38 413.50 101.50 C 416.52 97.36 417.25 92.06 417.83 87.10 C 418.11 80.19 418.37 73.13 416.51 66.39 C 415.74 63.66 414.75 60.70 412.24 59.09 Z" />
<path fill="#242021" opacity="1.00" d=" M 79.03 40.27 C 85.91 40.35 92.78 40.27 99.66 40.29 C 99.64 67.13 99.61 93.98 99.68 120.83 C 92.78 120.88 85.88 120.88 78.98 120.83 C 78.84 93.98 78.74 67.12 79.03 40.27 Z" />
<path fill="#242021" opacity="1.00" d=" M 272.69 39.93 C 279.71 39.93 286.73 39.69 293.73 40.08 C 293.73 67.05 293.67 94.01 293.76 120.98 C 286.73 121.25 279.69 121.10 272.66 121.07 C 272.55 94.03 272.48 66.98 272.69 39.93 Z" />
<path fill="#242021" opacity="1.00" d=" M 337.42 40.32 C 344.33 40.20 351.24 40.44 358.15 40.22 C 358.33 67.12 358.28 94.04 358.18 120.94 C 351.25 120.76 344.32 120.94 337.39 120.80 C 337.52 93.97 337.47 67.15 337.42 40.32 Z" />
<path fill="#242021" opacity="1.00" d=" M 83.37 170.52 C 91.32 168.09 100.47 170.83 105.94 177.06 C 112.33 184.12 114.58 193.85 115.45 203.08 C 116.02 214.37 116.03 226.10 111.82 236.77 C 109.70 242.42 105.94 247.60 100.68 250.68 C 92.68 255.36 81.80 254.33 74.86 248.18 C 65.67 239.91 63.34 226.79 63.00 214.99 C 62.67 203.85 63.55 192.08 69.12 182.16 C 72.21 176.71 77.22 172.14 83.37 170.52 M 86.34 194.28 C 82.97 203.77 83.02 214.23 84.83 224.05 C 85.67 227.39 86.51 231.48 89.90 233.18 C 94.68 227.29 94.78 219.22 94.88 212.00 C 94.82 205.00 94.82 197.23 90.58 191.30 C 88.72 189.25 87.02 192.81 86.34 194.28 Z" />
<path fill="#242021" opacity="1.00" d=" M 212.36 170.58 C 220.09 168.11 229.00 170.58 234.56 176.44 C 240.32 182.35 242.89 190.55 244.17 198.52 C 245.49 209.48 245.49 220.77 242.75 231.53 C 240.76 238.84 237.09 246.32 230.38 250.37 C 222.31 255.44 210.99 254.43 203.93 248.05 C 199.24 243.93 196.39 238.13 194.65 232.23 C 192.06 223.46 191.85 214.21 192.29 205.14 C 192.88 196.32 194.71 187.22 199.84 179.83 C 202.83 175.48 207.24 172.02 212.36 170.58 M 213.76 200.45 C 212.69 207.77 212.61 215.25 213.72 222.58 C 214.46 226.23 215.40 230.18 218.24 232.81 C 219.93 233.08 220.48 231.29 221.14 230.11 C 224.67 222.22 224.07 213.36 223.90 204.93 C 223.31 199.80 222.52 194.24 218.97 190.23 C 215.47 192.38 214.58 196.73 213.76 200.45 Z" />
<path fill="#242021" opacity="1.00" d=" M 341.41 170.62 C 350.07 167.79 360.26 171.09 365.68 178.40 C 371.88 186.17 373.55 196.38 374.27 206.02 C 374.79 214.35 373.95 222.72 372.36 230.89 C 369.77 230.92 367.52 229.53 365.19 228.62 C 361.05 226.85 356.71 225.61 352.46 224.13 C 353.70 217.17 353.81 210.04 353.11 203.02 C 352.31 198.50 351.69 193.36 348.00 190.17 C 344.51 192.91 343.59 197.52 342.82 201.64 C 341.90 208.26 342.24 214.98 342.68 221.62 C 335.74 220.29 328.69 219.82 321.65 219.32 C 320.84 208.32 321.34 196.88 325.47 186.53 C 328.40 179.44 333.80 172.83 341.41 170.62 Z" />
<path fill="#242021" opacity="1.00" d=" M 144.21 171.41 C 150.83 171.24 157.46 171.52 164.09 171.28 C 164.31 173.18 164.37 175.09 164.36 176.99 C 164.26 202.02 164.45 227.04 164.27 252.06 C 157.39 252.15 150.51 252.13 143.63 252.05 C 143.52 225.39 143.52 198.71 143.63 172.05 L 144.21 171.41 Z" />
<path fill="#242021" opacity="1.00" d=" M 273.03 171.33 C 279.88 171.43 286.72 171.34 293.56 171.37 C 293.59 188.14 293.48 204.92 293.62 221.69 C 286.57 223.25 279.62 225.24 272.88 227.84 C 272.86 209.01 272.55 190.15 273.03 171.33 Z" />
<path fill="#242021" opacity="1.00" d=" M 402.27 171.34 C 409.08 171.42 415.90 171.35 422.73 171.37 C 422.82 198.23 422.70 225.10 422.79 251.97 C 415.93 252.23 409.07 252.14 402.21 252.00 C 402.26 225.11 402.16 198.23 402.27 171.34 Z" />
<path fill="#242021" opacity="1.00" d=" M 348.40 294.61 C 355.56 293.62 363.17 295.54 368.70 300.29 C 375.72 306.09 379.27 314.95 381.24 323.62 C 383.52 334.33 383.28 345.38 382.45 356.24 C 381.35 365.19 378.99 374.27 373.75 381.76 C 368.89 388.71 360.50 393.09 351.98 392.75 C 343.25 392.92 334.86 388.09 330.07 380.90 C 322.95 370.43 320.94 357.40 320.90 344.99 C 320.72 332.32 322.22 319.00 328.96 307.98 C 333.15 301.03 340.26 295.69 348.40 294.61 M 351.28 319.16 C 348.41 322.11 347.34 326.26 346.54 330.19 C 345.03 339.24 345.00 348.56 346.69 357.59 C 347.42 361.39 348.73 365.14 351.17 368.20 C 354.48 368.35 355.35 364.80 356.32 362.32 C 358.92 354.15 358.80 345.45 358.50 336.98 C 358.09 331.86 357.29 326.64 355.04 321.98 C 354.23 320.61 353.25 318.40 351.28 319.16 Z" />
<path fill="#242021" opacity="1.00" d=" M 264.22 296.37 C 272.34 296.39 280.46 296.37 288.59 296.39 C 288.53 327.85 288.53 359.30 288.59 390.75 C 280.44 390.82 272.29 390.81 264.15 390.77 C 263.35 383.86 264.30 376.93 264.16 370.00 C 264.07 351.99 264.07 334.01 264.16 316.01 C 264.33 309.46 263.32 302.89 264.22 296.37 Z" />
<path fill="#242021" opacity="1.00" d=" M 150.31 301.16 C 158.47 299.48 167.24 303.28 172.09 309.96 C 178.95 319.07 180.37 330.92 180.53 341.99 C 180.41 352.80 179.45 364.22 173.60 373.62 C 169.73 380.06 162.63 384.61 155.02 384.66 C 146.77 385.15 138.70 380.46 134.50 373.44 C 127.91 362.97 127.06 350.10 127.53 338.04 C 127.81 328.66 129.78 319.00 135.15 311.13 C 138.66 306.01 144.08 302.06 150.31 301.16 M 153.19 321.95 C 148.68 327.51 148.38 335.15 148.34 342.00 C 148.36 349.16 148.41 357.14 152.83 363.16 C 154.18 364.76 155.95 363.00 156.51 361.59 C 159.33 355.49 159.58 348.61 159.60 342.00 C 159.55 336.05 159.20 329.89 156.62 324.43 C 155.93 323.09 155.01 321.24 153.19 321.95 Z" />
<path fill="#242021" opacity="1.00" d=" M 79.10 302.41 C 85.96 302.52 92.81 302.47 99.66 302.45 C 99.65 329.23 99.62 356.01 99.67 382.79 C 92.78 382.89 85.88 382.83 78.99 382.83 C 78.72 361.89 78.97 340.94 78.87 320.00 C 79.00 314.14 78.63 308.26 79.10 302.41 Z" />
</g>
<g id="#1d76bbff">
<path fill="#1d76bb" opacity="1.00" d=" M 257.05 248.06 C 275.64 236.09 297.90 229.95 319.99 230.48 C 349.17 230.51 377.87 243.00 398.47 263.53 C 414.29 279.22 425.41 299.61 429.75 321.49 C 434.06 342.17 432.30 364.01 424.91 383.79 C 421.88 392.75 416.95 400.84 412.05 408.85 C 417.00 414.10 422.18 419.13 427.37 424.13 C 442.56 439.78 458.19 454.98 473.53 470.47 C 476.79 473.85 478.96 478.31 479.59 482.96 C 480.59 493.75 471.99 504.63 461.05 505.52 C 454.67 506.30 448.15 503.92 443.69 499.32 C 423.39 479.03 403.06 458.76 382.80 438.42 C 376.55 441.58 370.82 445.69 364.34 448.43 C 341.96 458.57 316.22 461.07 292.31 455.41 C 271.07 450.69 251.61 439.27 236.30 423.93 C 222.99 409.96 212.94 392.81 208.01 374.11 C 202.36 353.56 202.70 331.42 209.09 311.08 C 216.73 285.18 234.25 262.45 257.05 248.06 M 304.43 261.70 C 282.18 265.29 261.72 278.41 249.01 297.00 C 239.87 310.49 234.37 326.64 234.44 343.01 C 233.81 364.12 242.02 385.21 256.23 400.77 C 265.62 410.96 277.47 418.98 290.61 423.47 C 303.83 428.23 318.26 429.08 332.09 426.94 C 348.71 424.18 364.32 416.10 376.43 404.42 C 392.03 389.25 401.64 367.83 401.75 346.00 C 402.28 331.77 398.65 317.53 391.98 305.00 C 381.05 284.25 360.97 268.58 338.19 263.02 C 327.14 260.53 315.64 259.81 304.43 261.70 Z" />
</g>
</svg>
