<?xml version="1.0" encoding="UTF-8" ?>
<!DOCTYPE svg PUBLIC "-//W3C//DTD SVG 1.1//EN" "http://www.w3.org/Graphics/SVG/1.1/DTD/svg11.dtd">
<svg width="1080pt" height="1080pt" viewBox="0 0 1080 1080" version="1.1" xmlns="http://www.w3.org/2000/svg">
<g id="#1fb0dcff">
<path fill="#1fb0dc" opacity="1.00" d=" M 234.73 0.00 L 848.87 0.00 C 851.05 0.32 853.28 0.52 855.50 0.67 L 855.44 1.44 C 862.96 1.54 870.34 3.19 877.75 4.32 C 892.57 7.28 907.18 11.37 921.27 16.86 C 922.88 17.53 924.52 18.17 926.18 18.79 C 934.21 22.33 942.28 25.87 949.95 30.18 C 999.41 57.03 1039.18 101.12 1060.82 153.07 C 1061.66 155.00 1062.34 156.99 1063.21 158.92 C 1070.12 176.76 1074.86 195.40 1077.72 214.31 C 1079.02 223.94 1080.04 233.58 1080.00 243.30 L 1080.00 697.74 C 1071.15 685.77 1060.79 674.89 1048.81 666.01 C 1032.83 653.96 1014.21 645.95 995.16 640.15 C 976.26 634.47 956.96 630.24 937.94 624.99 C 911.30 617.97 885.21 608.43 861.03 595.15 C 832.58 579.79 806.88 559.75 783.55 537.45 C 777.07 531.30 771.28 524.23 763.47 519.67 C 747.50 509.93 728.94 505.85 710.89 501.80 C 692.18 497.67 673.02 495.03 654.95 488.42 C 650.67 486.72 646.25 484.99 642.72 481.95 C 646.72 450.30 658.23 420.07 672.47 391.67 C 675.53 385.50 678.40 379.20 682.21 373.44 C 682.25 372.57 682.30 371.70 682.36 370.83 C 675.91 370.18 669.43 369.08 662.96 369.96 C 653.61 371.23 644.09 373.28 635.97 378.32 C 624.13 385.27 615.85 396.80 609.59 408.77 C 600.20 426.61 593.62 445.92 582.26 462.72 C 549.91 444.48 513.22 435.45 476.66 430.52 C 469.89 429.35 462.98 429.56 456.19 428.54 C 444.45 428.13 432.68 428.34 420.92 428.40 C 404.95 429.54 388.90 431.70 373.69 436.93 C 359.55 441.60 346.23 449.03 335.48 459.42 C 335.45 459.97 335.38 461.07 335.35 461.61 C 338.22 461.13 341.10 460.63 344.03 460.57 C 358.67 460.24 373.31 460.26 387.95 460.60 C 393.68 461.03 399.28 462.58 405.05 462.65 C 424.34 465.53 443.70 470.01 461.10 479.09 C 472.81 485.30 483.89 493.67 490.56 505.37 C 491.07 506.47 491.36 507.66 491.70 508.83 C 483.93 512.23 476.37 516.14 468.37 518.98 C 455.69 523.70 442.37 526.59 428.96 528.26 C 418.66 528.70 408.32 528.62 398.01 528.32 C 363.89 524.88 331.38 511.96 301.98 494.71 C 284.68 484.55 268.26 472.94 252.58 460.44 C 248.87 457.47 245.38 454.23 241.43 451.60 C 241.25 457.41 241.23 463.24 241.47 469.06 C 243.34 489.37 251.28 509.08 264.14 524.92 C 285.97 551.77 318.77 567.80 352.34 574.09 C 359.68 575.84 367.28 575.58 374.72 576.62 C 374.67 577.09 374.56 578.01 374.51 578.47 C 366.71 579.74 358.97 581.82 351.01 581.63 C 340.65 581.58 330.11 582.42 319.95 579.95 C 301.72 576.68 284.57 568.99 268.87 559.34 C 255.03 551.02 242.46 540.82 229.26 531.55 C 232.88 545.90 237.36 560.22 245.02 572.99 C 253.23 586.94 265.15 598.66 279.23 606.66 C 292.69 614.32 307.56 619.45 322.85 621.91 C 316.29 624.94 308.96 624.81 301.98 626.02 C 255.28 630.09 208.40 612.00 173.38 581.50 C 165.35 575.17 158.82 567.25 151.69 559.99 C 150.39 579.07 156.23 598.34 167.02 614.04 C 176.70 628.42 189.98 640.05 204.54 649.30 C 224.26 661.85 246.68 669.87 269.70 673.63 C 267.33 677.32 262.94 678.52 259.28 680.48 C 242.43 688.78 223.06 692.83 204.40 689.49 C 189.51 686.81 175.67 680.02 163.30 671.46 C 133.99 651.40 111.25 623.28 81.65 603.61 C 67.83 594.43 51.73 587.94 34.97 587.71 C 22.80 588.22 10.84 591.78 0.00 597.26 L 0.00 235.89 C 0.37 232.40 0.51 228.89 0.53 225.39 L 1.42 225.58 C 1.40 220.62 2.02 215.67 3.11 210.84 C 3.37 208.86 3.57 206.88 3.80 204.90 C 6.60 191.03 10.06 177.28 14.87 163.95 C 15.55 162.33 16.18 160.69 16.81 159.05 C 17.66 157.09 18.35 155.06 19.19 153.10 C 37.03 110.20 67.26 72.71 105.04 45.73 C 105.45 45.54 106.29 45.17 106.71 44.99 C 111.40 41.06 116.74 38.03 121.94 34.83 C 124.93 33.16 127.91 31.46 130.88 29.74 C 136.13 27.15 141.34 24.46 146.59 21.84 C 147.04 21.70 147.93 21.42 148.38 21.28 C 149.91 20.54 151.48 19.88 153.04 19.19 C 165.59 14.05 178.50 9.65 191.76 6.73 C 192.85 6.43 193.94 6.11 195.01 5.74 C 196.94 5.45 198.88 5.20 200.79 4.78 C 202.15 4.47 203.49 4.15 204.84 3.79 C 206.92 3.58 209.00 3.32 211.04 2.87 C 218.91 1.67 226.85 1.08 234.73 0.00 Z" />
<path fill="#1fb0dc" opacity="1.00" d=" M 603.89 530.87 C 610.22 530.05 616.61 530.46 622.98 530.35 C 632.98 530.50 643.03 530.01 652.97 531.36 C 664.44 531.43 675.74 533.70 686.96 535.87 C 705.61 539.86 723.67 546.61 740.35 555.86 C 757.65 565.38 773.63 577.04 789.96 588.09 C 813.47 604.31 837.92 619.24 863.73 631.54 C 906.32 651.49 953.26 658.44 998.21 671.08 C 1013.37 675.81 1029.02 680.54 1041.86 690.26 C 1055.76 700.74 1066.66 714.95 1074.22 730.57 C 1076.23 734.45 1077.14 738.92 1080.00 742.34 L 1080.00 850.60 C 1079.67 850.55 1079.02 850.47 1078.70 850.43 C 1078.92 859.64 1077.18 868.71 1075.68 877.76 C 1074.35 884.18 1072.92 890.58 1071.15 896.89 C 1070.46 899.31 1069.74 901.72 1069.13 904.16 C 1066.63 911.84 1063.90 919.45 1060.85 926.93 C 1041.86 972.37 1009.10 1011.78 968.08 1039.00 C 966.07 1040.31 964.06 1041.60 962.03 1042.87 C 953.44 1047.76 944.98 1052.93 935.90 1056.86 C 932.92 1058.20 929.93 1059.53 927.03 1061.01 C 922.60 1062.75 918.11 1064.30 913.64 1065.90 C 904.89 1069.10 895.89 1071.61 886.81 1073.68 C 881.52 1074.92 876.22 1076.16 870.82 1076.75 C 862.39 1078.39 853.80 1078.76 845.32 1080.00 L 235.04 1080.00 C 226.69 1078.87 218.25 1078.45 209.97 1076.83 C 204.64 1076.35 199.44 1075.03 194.21 1074.01 C 186.77 1072.19 179.36 1070.27 172.08 1067.89 C 167.65 1066.40 163.25 1064.85 158.89 1063.18 C 157.26 1062.49 155.61 1061.86 153.96 1061.25 C 145.86 1057.72 137.76 1054.14 130.05 1049.82 C 89.17 1027.56 54.81 993.64 31.97 953.10 C 27.17 944.64 22.98 935.85 19.15 926.92 C 12.54 911.08 7.69 894.56 4.30 877.74 C 3.79 875.18 3.47 872.60 3.17 870.02 C 1.63 863.91 1.97 857.53 0.63 851.40 C 0.45 849.34 0.19 847.31 0.00 845.27 L 0.00 620.02 L 0.49 619.24 C 11.28 619.83 22.10 622.52 31.30 628.33 C 44.70 636.71 55.35 648.77 64.54 661.47 C 78.05 680.45 88.29 701.47 100.94 720.99 C 109.83 734.60 120.34 747.94 135.03 755.58 C 148.95 762.56 164.61 765.37 180.03 766.37 C 205.91 766.53 231.06 757.75 253.42 745.20 C 282.53 728.76 308.11 706.96 333.10 684.95 C 355.39 665.24 377.09 644.84 399.74 625.53 C 428.54 600.95 458.77 577.63 492.46 560.10 C 522.31 544.46 555.08 533.62 588.86 531.60 C 596.90 530.48 604.96 532.22 613.00 531.55 C 609.97 531.22 606.92 531.14 603.89 530.87 Z" />
</g>
<g id="#ffffffff">
<path fill="#ffffff" opacity="1.00" d=" M 635.97 378.32 C 644.09 373.28 653.61 371.23 662.96 369.96 C 669.43 369.08 675.91 370.18 682.36 370.83 C 682.30 371.70 682.25 372.57 682.21 373.44 C 678.40 379.20 675.53 385.50 672.47 391.67 C 658.23 420.07 646.72 450.30 642.72 481.95 C 646.25 484.99 650.67 486.72 654.95 488.42 C 673.02 495.03 692.18 497.67 710.89 501.80 C 728.94 505.85 747.50 509.93 763.47 519.67 C 771.28 524.23 777.07 531.30 783.55 537.45 C 806.88 559.75 832.58 579.79 861.03 595.15 C 885.21 608.43 911.30 617.97 937.94 624.99 C 956.96 630.24 976.26 634.47 995.16 640.15 C 1014.21 645.95 1032.83 653.96 1048.81 666.01 C 1060.79 674.89 1071.15 685.77 1080.00 697.74 L 1080.00 742.34 C 1077.14 738.92 1076.23 734.45 1074.22 730.57 C 1066.66 714.95 1055.76 700.74 1041.86 690.26 C 1029.02 680.54 1013.37 675.81 998.21 671.08 C 953.26 658.44 906.32 651.49 863.73 631.54 C 837.92 619.24 813.47 604.31 789.96 588.09 C 773.63 577.04 757.65 565.38 740.35 555.86 C 723.67 546.61 705.61 539.86 686.96 535.87 C 675.74 533.70 664.44 531.43 652.97 531.36 C 643.03 530.01 632.98 530.50 622.98 530.35 C 616.61 530.46 610.22 530.05 603.89 530.87 C 606.92 531.14 609.97 531.22 613.00 531.55 C 604.96 532.22 596.90 530.48 588.86 531.60 C 555.08 533.62 522.31 544.46 492.46 560.10 C 458.77 577.63 428.54 600.95 399.74 625.53 C 377.09 644.84 355.39 665.24 333.10 684.95 C 308.11 706.96 282.53 728.76 253.42 745.20 C 231.06 757.75 205.91 766.53 180.03 766.37 C 164.61 765.37 148.95 762.56 135.03 755.58 C 120.34 747.94 109.83 734.60 100.94 720.99 C 88.29 701.47 78.05 680.45 64.54 661.47 C 55.35 648.77 44.70 636.71 31.30 628.33 C 22.10 622.52 11.28 619.83 0.49 619.24 L 0.00 620.02 L 0.00 597.26 C 10.84 591.78 22.80 588.22 34.97 587.71 C 51.73 587.94 67.83 594.43 81.65 603.61 C 111.25 623.28 133.99 651.40 163.30 671.46 C 175.67 680.02 189.51 686.81 204.40 689.49 C 223.06 692.83 242.43 688.78 259.28 680.48 C 262.94 678.52 267.33 677.32 269.70 673.63 C 246.68 669.87 224.26 661.85 204.54 649.30 C 189.98 640.05 176.70 628.42 167.02 614.04 C 156.23 598.34 150.39 579.07 151.69 559.99 C 158.82 567.25 165.35 575.17 173.38 581.50 C 208.40 612.00 255.28 630.09 301.98 626.02 C 308.96 624.81 316.29 624.94 322.85 621.91 C 307.56 619.45 292.69 614.32 279.23 606.66 C 265.15 598.66 253.23 586.94 245.02 572.99 C 237.36 560.22 232.88 545.90 229.26 531.55 C 242.46 540.82 255.03 551.02 268.87 559.34 C 284.57 568.99 301.72 576.68 319.95 579.95 C 330.11 582.42 340.65 581.58 351.01 581.63 C 358.97 581.82 366.71 579.74 374.51 578.47 C 374.56 578.01 374.67 577.09 374.72 576.62 C 367.28 575.58 359.68 575.84 352.34 574.09 C 318.77 567.80 285.97 551.77 264.14 524.92 C 251.28 509.08 243.34 489.37 241.47 469.06 C 241.23 463.24 241.25 457.41 241.43 451.60 C 245.38 454.23 248.87 457.47 252.58 460.44 C 268.26 472.94 284.68 484.55 301.98 494.71 C 331.38 511.96 363.89 524.88 398.01 528.32 C 408.32 528.62 418.66 528.70 428.96 528.26 C 442.37 526.59 455.69 523.70 468.37 518.98 C 476.37 516.14 483.93 512.23 491.70 508.83 C 491.36 507.66 491.07 506.47 490.56 505.37 C 483.89 493.67 472.81 485.30 461.10 479.09 C 443.70 470.01 424.34 465.53 405.05 462.65 C 399.28 462.58 393.68 461.03 387.95 460.60 C 373.31 460.26 358.67 460.24 344.03 460.57 C 341.10 460.63 338.22 461.13 335.35 461.61 C 335.38 461.07 335.45 459.97 335.48 459.42 C 346.23 449.03 359.55 441.60 373.69 436.93 C 388.90 431.70 404.95 429.54 420.92 428.40 C 432.68 428.34 444.45 428.13 456.19 428.54 C 462.98 429.56 469.89 429.35 476.66 430.52 C 513.22 435.45 549.91 444.48 582.26 462.72 C 593.62 445.92 600.20 426.61 609.59 408.77 C 615.85 396.80 624.13 385.27 635.97 378.32 Z" />
</g>
</svg>
