<?xml version="1.0" encoding="UTF-8" standalone="no"?>
<!DOCTYPE svg PUBLIC "-//W3C//DTD SVG 1.1//EN" "http://www.w3.org/Graphics/SVG/1.1/DTD/svg11.dtd">
<svg width="100%" height="100%" viewBox="0 0 258 275" version="1.1" xmlns="http://www.w3.org/2000/svg" xmlns:xlink="http://www.w3.org/1999/xlink" xml:space="preserve" xmlns:serif="http://www.serif.com/" style="fill-rule:evenodd;clip-rule:evenodd;stroke-linejoin:round;stroke-miterlimit:2;">
    <g id="Blade-Right" serif:id="Blade Right" transform="matrix(1,0,0,1,1,1)">
        <path d="M101.091,102.952L120.608,86.34L162.073,119.18C169.941,129.499 174.864,135.949 176.824,138.529C180.201,142.96 183.165,147.687 185.686,152.659C191.516,164.17 186.563,154.383 187.725,156.687C204.198,189.221 199.856,228.421 176.657,256.554C175.061,258.484 171.093,263.309 164.742,271.019L82.008,119.18L101.091,102.952Z" style="fill:rgb(231,229,231);"/>
        <path d="M101.091,102.952L120.608,86.34L162.073,119.18C169.941,129.499 174.864,135.949 176.824,138.529C180.201,142.96 183.165,147.687 185.686,152.659C191.516,164.17 186.563,154.383 187.725,156.687C204.198,189.221 199.856,228.421 176.657,256.554C175.061,258.484 171.093,263.309 164.742,271.019L82.008,119.18L101.091,102.952ZM176.979,162.026L177.019,162.108C191.339,190.388 187.565,224.463 167.399,248.918C167.221,249.134 167.014,249.386 166.777,249.673C149.465,217.902 110.631,146.631 97.212,122.003C97.212,122.003 108.865,112.094 108.865,112.094L120.882,101.865C120.882,101.865 153.443,127.653 153.443,127.653C160.773,137.266 165.387,143.311 167.268,145.787C167.272,145.793 167.276,145.798 167.28,145.803C170.216,149.655 172.792,153.763 174.983,158.084L176.979,162.026Z"/>
    </g>
    <g id="Blade-Left" serif:id="Blade Left" transform="matrix(1,0,0,1,1,1)">
        <path d="M145.186,111.883L126.477,97.014L99.92,115.064L83.771,133.133L77.311,140.528C75.293,143.384 74.022,145.176 73.52,145.885C69.178,152.009 65.79,158.755 63.466,165.894C59.912,176.833 63.781,164.938 62.984,167.39C52.27,200.348 59.853,236.516 82.894,262.393C83.918,263.545 86.479,266.421 90.575,271.019L166.682,128.347L145.186,111.883Z" style="fill:rgb(231,229,231);fill-rule:nonzero;"/>
        <path d="M145.186,111.883L126.477,97.014L99.92,115.064L83.771,133.133L77.311,140.528C75.293,143.384 74.022,145.176 73.52,145.885C69.178,152.009 65.79,158.755 63.466,165.894C59.912,176.833 63.781,164.938 62.984,167.39C52.27,200.348 59.853,236.516 82.894,262.393C83.918,263.545 86.479,266.421 90.575,271.019L166.682,128.347L145.186,111.883ZM88.186,250.001C70.872,227.716 65.596,198.173 74.396,171.1L74.51,170.739L74.877,169.607C76.827,163.619 79.667,157.962 83.309,152.825L83.311,152.823C83.785,152.153 84.938,150.527 86.755,147.958C86.754,147.959 92.763,141.079 92.763,141.079C92.763,141.079 107.884,124.16 107.884,124.16C107.884,124.16 125.921,111.901 125.921,111.901L137.804,121.345C137.889,121.41 151.302,131.683 151.302,131.683L88.186,250.001Z"/>
    </g>
    <g transform="matrix(1,0,0,1,1,1)">
        <path d="M254.26,70.083C254.26,108.151 223.351,139.051 185.292,139.051C147.224,139.051 116.325,108.151 116.325,70.083C116.325,32.015 147.224,1.115 185.292,1.115C223.351,1.115 254.26,32.015 254.26,70.083ZM185.287,55.965C193.079,55.965 199.405,62.291 199.405,70.083C199.405,77.875 193.079,84.201 185.287,84.201C177.495,84.201 171.169,77.875 171.169,70.083C171.169,62.291 177.495,55.965 185.287,55.965Z"/>
    </g>
    <g transform="matrix(1,0,0,1,-113.442,0.995077)">
        <path d="M254.26,70.083C254.26,108.151 223.351,139.051 185.292,139.051C147.224,139.051 116.325,108.151 116.325,70.083C116.325,32.015 147.224,1.115 185.292,1.115C223.351,1.115 254.26,32.015 254.26,70.083ZM185.287,55.965C193.079,55.965 199.405,62.291 199.405,70.083C199.405,77.875 193.079,84.201 185.287,84.201C177.495,84.201 171.169,77.875 171.169,70.083C171.169,62.291 177.495,55.965 185.287,55.965Z"/>
    </g>
    <g transform="matrix(1,0,0,1,1,1)">
        <path d="M243.202,70.083C243.202,102.046 217.255,127.993 185.292,127.993C153.329,127.993 127.373,102.046 127.373,70.083C127.373,38.12 153.329,12.164 185.292,12.164C217.255,12.164 243.202,38.12 243.202,70.083ZM185.292,45.582C198.812,45.582 209.788,56.558 209.788,70.078C209.788,83.598 198.812,94.574 185.292,94.574C171.773,94.574 160.796,83.598 160.796,70.078C160.796,56.558 171.773,45.582 185.292,45.582Z" style="fill:rgb(127,201,155);"/>
    </g>
    <g transform="matrix(1,0,0,1,-113.638,1)">
        <path d="M243.202,70.083C243.202,102.046 217.255,127.993 185.292,127.993C153.329,127.993 127.373,102.046 127.373,70.083C127.373,38.12 153.329,12.164 185.292,12.164C217.255,12.164 243.202,38.12 243.202,70.083ZM185.292,45.582C198.812,45.582 209.788,56.558 209.788,70.078C209.788,83.598 198.812,94.574 185.292,94.574C171.773,94.574 160.796,83.598 160.796,70.078C160.796,56.558 171.773,45.582 185.292,45.582Z" style="fill:rgb(127,201,155);"/>
    </g>
</svg>
