<?xml version="1.0" encoding="UTF-8" standalone="no"?>
<!DOCTYPE svg PUBLIC "-//W3C//DTD SVG 1.1//EN" "http://www.w3.org/Graphics/SVG/1.1/DTD/svg11.dtd">
<svg width="100%" height="100%" viewBox="0 0 512 512" version="1.1" xmlns="http://www.w3.org/2000/svg" xmlns:xlink="http://www.w3.org/1999/xlink" xml:space="preserve" xmlns:serif="http://www.serif.com/" style="fill-rule:evenodd;clip-rule:evenodd;stroke-linecap:round;stroke-linejoin:round;stroke-miterlimit:1.5;">
    <g transform="matrix(1.01,0,0,1.01,3.5,-6.6)">
        <rect x="50" y="60" width="400" height="400" style="fill:rgb(246,246,255);stroke:rgb(130,137,208);stroke-width:14.38px;"/>
    </g>
    <g transform="matrix(1,0,0,1.25,4,-27)">
        <rect x="180" y="100" width="180" height="20" style="fill:rgb(50,47,203);"/>
    </g>
    <g transform="matrix(1,0,0,1.25,4,24)">
        <rect x="180" y="100" width="180" height="20" style="fill:rgb(50,47,203);"/>
    </g>
    <g transform="matrix(0.944444,0,0,1.25,74,73)">
        <rect x="180" y="100" width="180" height="20" style="fill:rgb(50,47,203);"/>
    </g>
    <g transform="matrix(1,0,0,1.25,64,123)">
        <rect x="180" y="100" width="180" height="20" style="fill:rgb(50,47,203);"/>
    </g>
    <g transform="matrix(0.833333,0,0,1.25,44,170.5)">
        <rect x="180" y="100" width="180" height="20" style="fill:rgb(50,47,203);"/>
    </g>
    <g transform="matrix(1.02778,0,0,1.25,59,273)">
        <rect x="180" y="100" width="180" height="20" style="fill:rgb(50,47,203);"/>
    </g>
    <g transform="matrix(1.11111,0,0,1.25,-6,220.5)">
        <rect x="180" y="100" width="180" height="20" style="fill:rgb(50,47,203);"/>
    </g>
    <g transform="matrix(1,0,0,1,4,-3.25)">
        <path d="M100,362.5L100,90" style="fill:none;stroke:rgb(100,107,212);stroke-width:8.56px;stroke-linecap:square;"/>
    </g>
    <g transform="matrix(1,0,0,1,4,-2)">
        <path d="M100,112.5L155,112.5" style="fill:none;stroke:rgb(100,107,212);stroke-width:8.56px;stroke-linecap:square;"/>
    </g>
    <g transform="matrix(1,0,0,1,4,49)">
        <path d="M100,112.5L155,112.5" style="fill:none;stroke:rgb(100,107,212);stroke-width:8.56px;stroke-linecap:square;"/>
    </g>
    <g transform="matrix(1,0,0,1,4,-2)">
        <path d="M135,165L135,262.5" style="fill:none;stroke:rgb(100,107,212);stroke-width:8.56px;stroke-linecap:square;"/>
    </g>
    <g transform="matrix(1,0,0,1,4,-2)">
        <path d="M135,213.75L210,213.75" style="fill:none;stroke:rgb(100,107,212);stroke-width:8.56px;stroke-linecap:square;"/>
    </g>
    <g transform="matrix(1,0,0,1,4,-2)">
        <path d="M135,262.5L210,262.5" style="fill:none;stroke:rgb(100,107,212);stroke-width:8.56px;stroke-linecap:square;"/>
    </g>
    <g transform="matrix(1,0,0,1,4,-2)">
        <path d="M105,310L160,310" style="fill:none;stroke:rgb(100,107,212);stroke-width:8.56px;stroke-linecap:square;"/>
    </g>
    <g transform="matrix(1,0,0,1,4,-2)">
        <path d="M100,361.25L160,361.25" style="fill:none;stroke:rgb(100,107,212);stroke-width:8.56px;stroke-linecap:square;"/>
    </g>
    <g transform="matrix(1,0,0,1,4,-2)">
        <path d="M135,361.25L135,412.5L215,412.5" style="fill:none;stroke:rgb(100,107,212);stroke-width:8.56px;stroke-linecap:square;"/>
    </g>
</svg>
