<?xml version="1.0" encoding="UTF-8" standalone="no"?>
<!DOCTYPE svg PUBLIC "-//W3C//DTD SVG 1.1//EN" "http://www.w3.org/Graphics/SVG/1.1/DTD/svg11.dtd">
<svg width="100%" height="100%" viewBox="0 0 512 512" version="1.1" xmlns="http://www.w3.org/2000/svg" xmlns:xlink="http://www.w3.org/1999/xlink" xml:space="preserve" xmlns:serif="http://www.serif.com/" style="fill-rule:evenodd;clip-rule:evenodd;stroke-linejoin:round;stroke-miterlimit:2;">
    <g transform="matrix(3.95852,0,0,3.95852,-924.473,-1409.01)">
        <path d="M298.4,361C331.3,361 357.9,387.6 357.9,420.5C357.9,453.4 331.3,480 298.4,480C265.5,480 238.9,453.4 238.9,420.5C238.9,387.6 265.6,361 298.4,361Z" style="fill:none;stroke:rgb(47,92,143);stroke-width:5.56px;"/>
        <path d="M298.4,361C331.3,361 357.9,387.6 357.9,420.5C357.9,453.4 331.3,480 298.4,480C265.5,480 238.9,453.4 238.9,420.5C238.9,387.6 265.6,361 298.4,361Z" style="fill:rgb(71,119,172);"/>
    </g>
    <g transform="matrix(3.95852,0,0,3.95852,-924.473,-1409.01)">
        <path d="M298.3,452.5L298.4,471.3L268.1,444L298.5,416.2L298.5,434.7L326.8,403.6L298.5,374.3L298.5,390.6C298.5,390.6 283.6,387.8 272.5,393.6C261.4,399.4 258.6,403.5 256.9,405.2C255.2,406.9 254.1,408 254.1,408C254.1,408 252.855,409.714 251.5,409.6C250.141,409.486 250.04,408.911 249.5,408.3C248.794,407.501 249.334,406.105 249.6,405.4C249.6,405.4 253.1,395 261.9,387.2C266.9,382.7 271.7,379.2 275.6,377.4C280.2,375.3 285.7,373.2 295.1,372.2C306.2,371.1 317.3,375.3 322.5,378.5C325,380 331.1,384.2 336,389.6C339.4,393.3 342.5,398.8 344.9,403.8C347.8,409.9 347.9,421.9 345.4,427.8C343.3,432.5 341.3,435.9 337.4,439.9C335.2,442.1 331.9,446.3 323.2,449.2C314.6,452.1 302.4,452.2 298.3,452.5Z" style="fill:none;stroke:rgb(47,92,143);stroke-width:5.56px;"/>
        <path d="M298.3,452.5L298.4,471.3L268.1,444L298.5,416.2L298.5,434.7L326.8,403.6L298.5,374.3L298.5,390.6C298.5,390.6 283.6,387.8 272.5,393.6C261.4,399.4 258.6,403.5 256.9,405.2C255.2,406.9 254.1,408 254.1,408C254.1,408 252.855,409.714 251.5,409.6C250.141,409.486 250.04,408.911 249.5,408.3C248.794,407.501 249.334,406.105 249.6,405.4C249.6,405.4 253.1,395 261.9,387.2C266.9,382.7 271.7,379.2 275.6,377.4C280.2,375.3 285.7,373.2 295.1,372.2C306.2,371.1 317.3,375.3 322.5,378.5C325,380 331.1,384.2 336,389.6C339.4,393.3 342.5,398.8 344.9,403.8C347.8,409.9 347.9,421.9 345.4,427.8C343.3,432.5 341.3,435.9 337.4,439.9C335.2,442.1 331.9,446.3 323.2,449.2C314.6,452.1 302.4,452.2 298.3,452.5Z" style="fill:rgb(231,231,229);"/>
    </g>
</svg>
