<?xml version="1.0" encoding="UTF-8" standalone="no"?>
<!DOCTYPE svg PUBLIC "-//W3C//DTD SVG 1.1//EN" "http://www.w3.org/Graphics/SVG/1.1/DTD/svg11.dtd">
<svg width="100%" height="100%" viewBox="0 0 512 512" version="1.1" xmlns="http://www.w3.org/2000/svg" xmlns:xlink="http://www.w3.org/1999/xlink" xml:space="preserve" xmlns:serif="http://www.serif.com/" style="fill-rule:evenodd;clip-rule:evenodd;stroke-linecap:round;stroke-miterlimit:1.5;">
    <path d="M512,33.501C512,15.011 496.989,0 478.499,0L33.501,0C15.011,0 0,15.011 0,33.501L0,478.499C0,496.989 15.011,512 33.501,512L478.499,512C496.989,512 512,496.989 512,478.499L512,33.501Z" style="fill:white;"/>
    <path d="M512,295.579L512,480.711C512,497.98 497.98,512 480.711,512L31.289,512C14.02,512 0,497.98 0,480.711L0,342.583C62.658,365.445 137.867,378.163 218.524,376.846C336.088,374.927 441.111,343.584 512,295.579Z" style="fill:rgb(194,12,20);"/>
    <path d="M307.865,367.604C304.788,368.045 302.226,370.19 301.25,373.141C300.274,376.092 301.052,379.342 303.259,381.531L330.021,408.077C330.021,408.077 319.599,473.141 319.599,473.141C319.112,476.185 320.374,479.246 322.867,481.061C325.359,482.875 328.66,483.137 331.407,481.738L390.147,451.829C390.147,451.829 448.826,481.857 448.826,481.857C451.57,483.262 454.871,483.006 457.367,481.197C459.863,479.387 461.132,476.329 460.651,473.284L450.357,408.177C450.357,408.177 497.048,361.649 497.048,361.649C499.234,359.47 500.011,356.248 499.057,353.313C498.103,350.378 495.58,348.227 492.531,347.75L427.489,337.576C426.231,337.379 424.945,337.478 423.733,337.865C423.733,337.865 349.245,361.664 307.865,367.604ZM309.029,375.714C350.879,369.707 426.223,345.671 426.223,345.671L491.265,355.845L441.611,405.325L452.558,474.563L390.156,442.63L327.689,474.437L338.777,405.221L309.029,375.714Z" style="fill:rgb(166,10,18);"/>
    <g transform="matrix(1.04242,0,0,1.04242,-10.8597,13.3589)">
        <g transform="matrix(0.666581,0,0,0.666581,85.3553,-14.4606)">
            <path d="M503.99,90.75L478.843,77.74C423.186,49.373 357.304,49.382 301.652,77.77L268.549,94.892L268.549,456.632L290.172,445.446C353.034,413.373 427.456,413.363 490.328,445.422C494.921,447.819 500.431,447.642 504.863,444.956C509.294,442.27 512,437.466 512,432.284L512,103.907C512.015,98.368 508.921,93.284 503.99,90.75Z" style="fill:rgb(0,109,240);fill-rule:nonzero;"/>
            <path d="M33.103,77.77L8.005,90.75C3.078,93.284 -0.015,98.368 0,103.907L0,432.284C0,437.456 2.696,442.255 7.113,444.941C11.529,447.632 17.029,447.823 21.623,445.446C84.485,413.373 158.912,413.363 221.779,445.422L243.451,456.632L243.451,94.892L210.294,77.74C154.637,49.373 88.755,49.382 33.103,77.77Z" style="fill:rgb(0,109,240);fill-rule:nonzero;"/>
        </g>
        <g id="Layer1">
            <g transform="matrix(0.47614,-0.0398097,0.0398097,0.47614,206.53,82.6728)">
                <path d="M130.513,158.8L207.7,107.645L272.508,189.201L244.291,209.59C244.291,209.59 272.69,189.019 272.508,189.201C272.326,189.383 359.343,128.944 359.343,128.944L422.638,207.247" style="fill:none;stroke:white;stroke-width:24.09px;"/>
            </g>
            <g transform="matrix(0.47614,-0.0398097,0.0398097,0.47614,27.5205,82.6728)">
                <path d="M130.513,158.8L207.7,107.645L272.508,189.201L244.291,209.59C244.291,209.59 272.69,189.019 272.508,189.201C272.326,189.383 359.343,128.944 359.343,128.944L422.638,207.247" style="fill:none;stroke:white;stroke-width:24.09px;"/>
            </g>
        </g>
    </g>
    <g transform="matrix(1.13536,0.00114909,-0.00114909,1.13536,-60.962,-66.1468)">
        <path d="M397.787,306.542L425.776,361.574L486.763,371.188L443.074,414.812L452.777,475.786L397.787,447.715L342.796,475.786L352.5,414.812L308.81,371.188L369.798,361.574L397.787,306.542Z" style="fill:rgb(240,187,69);"/>
    </g>
</svg>
