<?xml version="1.0" encoding="UTF-8" standalone="no"?>
<!DOCTYPE svg PUBLIC "-//W3C//DTD SVG 1.1//EN" "http://www.w3.org/Graphics/SVG/1.1/DTD/svg11.dtd">
<svg width="100%" height="100%" viewBox="0 0 512 512" version="1.1" xmlns="http://www.w3.org/2000/svg" xmlns:xlink="http://www.w3.org/1999/xlink" xml:space="preserve" xmlns:serif="http://www.serif.com/" style="fill-rule:evenodd;clip-rule:evenodd;stroke-linejoin:round;stroke-miterlimit:2;">
    <g id="Rect" transform="matrix(1.04864,0,0,1.03293,-23.741,-16.0694)">
        <path d="M488.086,116.845C488.086,73.227 453.204,37.815 410.239,37.815L121.456,37.815C78.491,37.815 43.61,73.227 43.61,116.845L43.61,409.001C43.61,452.619 78.491,488.031 121.456,488.031L410.239,488.031C453.204,488.031 488.086,452.619 488.086,409.001L488.086,116.845Z" style="fill:rgb(255,211,80);"/>
    </g>
    <g id="Documents">
        <path d="M94.78,60.86C103.1,56.4 112.51,54.06 121.95,54.09C141.31,54.02 160.66,54.07 180.02,54.06C185.06,54.03 190.15,54.94 194.68,57.23C204.12,61.97 211.87,69.33 219.44,76.57C232.47,89.66 244.9,103.33 257.92,116.43C243.52,116.37 229.14,121.74 218.46,131.44C210.39,138.49 204.48,147.78 200.83,157.81C196.96,153.5 196.71,147.47 196.87,141.98C196.85,129.38 197,116.77 196.74,104.17C196.36,99.08 195.77,93.59 192.57,89.4C190.56,86.8 187.37,84.94 184.01,85.2C163.33,85.32 142.66,85.17 121.99,85.33C111.25,85.19 101.07,91.68 96.01,101.03C92.84,106.48 92.05,112.83 91.9,119.03C91.89,147.87 92.02,176.72 91.79,205.57C81.23,208.68 71.29,213.62 62.04,219.56C62.11,184.69 61.97,149.82 62.11,114.96C62.3,92.83 75.11,71.17 94.78,60.86Z" style="fill:rgb(45,46,49);fill-rule:nonzero;"/>
        <path d="M225.36,155.37C236.08,141.39 253.26,132.2 271,132.22C290,132.1 308.99,132.23 327.98,132.16C331.98,132.22 336.08,132.12 339.92,133.42C347.53,135.93 354.03,140.84 360.05,145.99C368.89,153.48 376.65,162.11 384.69,170.43C393.53,179.54 402.17,188.84 411.07,197.9C421.18,208.51 431.79,218.72 440.68,230.42C444.79,235.98 448.68,241.89 450.65,248.58C452.03,253.26 451.97,258.18 451.95,263.01C451.91,308.03 451.99,353.05 451.91,398.07C452.04,420.31 439.46,442.26 419.8,452.82C411.05,457.66 401.05,460.08 391.06,459.93C351.71,459.95 312.36,459.95 273.02,459.94C265.24,460 257.43,458.68 250.23,455.69C233.48,448.96 220.45,434.25 215.04,417.11C219.57,412.25 224.93,408.25 229.1,403.07C232.28,400.23 234.91,396.82 238.34,394.27C239.87,393.13 241,391.58 242.1,390.05C242.16,396.37 241.69,402.96 244.17,408.93C247.39,417.74 254.89,424.88 263.9,427.54C268.16,428.75 272.63,428.73 277.02,428.74C315.36,428.66 353.7,428.82 392.04,428.67C403.28,428.81 413.86,421.68 418.67,411.66C422.09,404.98 422.1,397.29 422.13,389.97C422.06,348.01 422.17,306.04 422.09,264.08C422.19,259.45 422.17,254.66 420.71,250.23C417.72,243.98 410.24,242.27 403.95,241.74C389.98,241.07 375.97,241.56 361.99,241.36C356.75,241.34 351.78,238.3 349.18,233.79C347.05,230.26 346.95,226 346.89,222C346.91,210.35 346.91,198.69 346.88,187.04C346.83,181.26 346.54,175.27 344.12,169.93C342.43,166.49 339.1,163.33 335.07,163.31C316.05,163.31 297.03,163.34 278.01,163.33C272.72,163.34 267.23,163.12 262.22,165.13C251.92,168.72 244.26,178.38 242.55,189.08C242.22,192.05 241.94,195.03 241.9,198.02C242.09,245.02 241.82,292.03 242.01,339.02C241.92,342.01 242.1,345.01 241.72,348C231.94,337.91 221.75,328.22 212.07,318.03C212.11,276.69 212.05,235.36 212.1,194.03C212.1,180.15 216.81,166.31 225.36,155.37Z" style="fill:rgb(45,46,49);fill-rule:nonzero;"/>
        <path d="M122.15,178.82C147.04,178.8 171.94,178.84 196.83,178.81C196.97,189.27 196.82,199.73 196.91,210.19C171.97,210.2 147.03,210.2 122.09,210.19C122.2,199.73 122.01,189.27 122.15,178.82Z" style="fill:rgb(45,46,49);fill-rule:nonzero;"/>
        <path d="M122.13,225.72C147.04,225.73 171.96,225.73 196.88,225.72C196.89,236.15 196.9,246.57 196.87,257C171.9,256.97 146.93,257.11 121.96,256.89C122.31,246.5 122.01,236.11 122.13,225.72Z" style="fill:rgb(45,46,49);fill-rule:nonzero;"/>
        <path d="M272.12,257.03C309.07,256.89 346.04,257.1 383,256.97C386.03,256.82 389.06,256.97 392.09,257.16C391.59,267.53 392.07,277.93 391.85,288.31C351.94,288.24 312.03,288.29 272.12,288.28C272.24,277.86 271.77,267.44 272.12,257.03Z" style="fill:rgb(45,46,49);fill-rule:nonzero;"/>
        <path d="M87.52,267.96C88.51,264.15 89.64,260.3 91.79,256.96C91.95,269.47 91.88,282 91.83,294.52C89.83,291.65 86.47,289.61 85.81,285.93C85.11,279.89 86.42,273.87 87.52,267.96Z" style="fill:rgb(45,46,49);fill-rule:nonzero;"/>
        <path d="M122.08,272.62C126.52,272.6 130.95,272.61 135.38,272.61C134.58,275.7 133.71,278.83 133.81,282.06C133.86,289.31 133.83,296.56 133.84,303.81C129.91,303.81 125.98,303.82 122.05,303.77C122.17,293.39 122.12,283 122.08,272.62Z" style="fill:rgb(45,46,49);fill-rule:nonzero;"/>
        <path d="M166.31,272.6C176.51,272.64 186.71,272.59 196.91,272.62C196.87,282.85 196.86,293.07 196.92,303.3C186.94,292.85 176.65,282.69 166.31,272.6Z" style="fill:rgb(45,46,49);fill-rule:nonzero;"/>
        <path d="M272.09,303.81C302.09,303.81 332.09,303.79 362.1,303.82C361.93,314.28 362.44,324.77 361.82,335.21C331.95,335.16 302.07,335.16 272.2,335.22C271.92,324.76 272.25,314.28 272.09,303.81Z" style="fill:rgb(45,46,49);fill-rule:nonzero;"/>
        <path d="M271.84,350.69C311.87,350.62 351.9,350.66 391.94,350.67C391.84,361.05 391.87,371.43 391.92,381.81C351.94,381.84 311.95,381.83 271.97,381.81C271.93,371.44 272.34,361.06 271.84,350.69Z" style="fill:rgb(45,46,49);fill-rule:nonzero;"/>
    </g>
    <g id="Arrow">
        <path d="M37.11,271.09C49.1,243.49 76.51,225.23 105.06,218.24C94.17,225.53 84.85,235.34 78.82,247.01C73.11,257.04 70.54,268.61 69.72,280.03C68.87,288.62 71.92,297.67 78.32,303.56C85.66,310.72 95.42,314.71 105.09,317.63C119.62,321.78 134.75,323.64 149.83,323.91C149.86,308.82 149.84,293.73 149.84,278.64C179.95,308.82 210.08,338.98 240.18,369.17C227.75,382.37 214.58,394.88 201.9,407.86C184.52,425.21 167.21,442.63 149.85,460C149.82,444.86 149.88,429.72 149.82,414.58C123.13,413.61 96.13,406.95 73.32,392.74C57.27,382.67 43.97,367.85 37.01,350.11C33.87,343.45 32.48,336.16 31.02,329C30.39,321.33 28.8,313.7 29.29,305.98C30.35,294.1 31.8,281.94 37.11,271.09Z" style="fill:rgb(17,169,98);fill-rule:nonzero;"/>
    </g>
</svg>
