<?xml version="1.0" encoding="UTF-8" standalone="no"?>
<!DOCTYPE svg PUBLIC "-//W3C//DTD SVG 1.1//EN" "http://www.w3.org/Graphics/SVG/1.1/DTD/svg11.dtd">
<svg width="100%" height="100%" viewBox="0 0 512 512" version="1.1" xmlns="http://www.w3.org/2000/svg" xmlns:xlink="http://www.w3.org/1999/xlink" xml:space="preserve" xmlns:serif="http://www.serif.com/" style="fill-rule:evenodd;clip-rule:evenodd;">
    <circle cx="255.976" cy="255.976" r="255.976" style="fill:rgb(37,94,142);"/>
    <clipPath id="_clip1">
        <circle cx="255.976" cy="255.976" r="255.976" style="fill:rgb(37,94,142);"/>
    </clipPath>
    <g clip-path="url(#_clip1)">
        <g>
            <ellipse cx="304.268" cy="446.439" rx="61.124" ry="27.016" style="fill:none;stroke:rgb(171,212,110);stroke-width:12.16px;"/>
            <ellipse id="Ellipse_2_Kopie" cx="305.618" cy="446.102" rx="111.779" ry="55.045" style="fill:none;stroke:rgb(171,212,110);stroke-width:12.16px;"/>
            <ellipse id="Ellipse_2_Kopie_2" cx="307.307" cy="444.751" rx="158.044" ry="83.412" style="fill:none;stroke:rgb(171,212,110);stroke-width:12.16px;"/>
        </g>
    </g>
    <g id="Ghost" transform="matrix(0.675282,0,0,0.675282,0.0639789,-0.0410083)">
        <path d="M373.62,131.77C380.32,130.67 387.24,130.73 393.93,131.94C397.16,132.39 400.61,132.15 403.56,133.79C416.44,135.61 428.26,141.97 438.92,149.18C454.11,159.65 466.83,174.18 473.59,191.47C482.62,212.72 484.66,236.13 484.66,258.98C484.72,261.67 484.7,264.39 483.96,267C484.12,267.6 484.43,268.82 484.58,269.43C500.48,266.26 516.88,265.09 532.99,267.4C547.94,270.25 562.63,276.56 573.38,287.59C584.3,298.03 591.33,311.85 596.03,326.05C597.66,331.37 599.38,336.69 600.01,342.24C599.38,342.06 598.13,341.69 597.5,341.5C591.33,330.8 582.58,321.1 571.2,315.86C559.18,309.84 544.91,309.67 532.13,313.2C524.66,315.08 517.51,318.04 510.65,321.53C507.63,323.2 504.73,325.14 501.43,326.27C499.57,328.59 496.76,329.73 494.38,331.4C490.96,333.56 488,336.39 484.4,338.28C482.92,339.83 481.32,341.28 479.42,342.3C476.37,345.76 472.29,348.11 469.21,351.51C464.88,363.74 460.93,376.13 456.21,388.23C449.35,407.15 441.79,425.83 436.13,445.16C432.94,455 430.81,465.15 428.14,475.14C427.01,483.73 425.06,492.21 424.53,500.88C422.43,517.65 424.12,534.61 426.94,551.19C428.29,562.62 431.31,573.75 433.52,585.02C438.79,607.33 445.07,629.36 451.47,651.37C452.7,656.28 454.47,661.06 455.24,666.08C450.79,665.6 447.58,662.18 443.93,659.98C434.98,654.5 427.07,647.6 418.73,641.28C382.77,611.79 351.86,576.23 327.19,536.83C323.7,530.71 319.31,525.02 316.71,518.46C314.9,516.44 313.68,514 312.72,511.5C295.99,481.55 283.83,449.19 274.82,416.14C270.82,401.95 268.04,387.45 265.43,372.95C264.97,370.49 264.92,367.87 263.78,365.6C255.96,357.27 246.92,350.14 238.61,342.31C236.77,341.18 235.06,339.85 233.58,338.28C229.6,336.06 226.21,332.97 222.31,330.64C220.25,329.39 218.3,327.95 216.58,326.26C211.5,324.34 207.1,321.03 202.04,319.04C186.01,311.47 166.73,307.5 149.8,314.49C137.08,319.5 127.1,329.81 120.46,341.56C119.84,341.73 118.6,342.07 117.97,342.24C120.67,326.37 126.7,310.95 135.84,297.67C142,289.67 149.22,282.15 158.17,277.28C166.28,272.13 175.63,269.38 184.96,267.41C201.11,265.24 217.75,265.91 233.55,269.82C242.14,270.91 250.25,274.06 258.66,275.99C260.24,235.77 275.7,195.43 304.28,166.65C322.71,147.94 347.2,134.26 373.62,131.77M328.32,190.19C314.75,200.65 314.48,223.64 327.09,234.96C326.19,231.28 325.58,227.38 326.75,223.68C328.04,218.45 332.27,213.17 338.01,212.98C343.73,213.4 347.96,218.64 349.04,223.99C350.03,227.64 349.39,231.43 348.63,235.06C358.97,225.74 360.41,209.17 353.83,197.31C351.17,193.01 347.35,189.02 342.33,187.66C337.61,186.08 332.26,187.27 328.32,190.19M404.85,190.69C391.82,201.49 392.02,223.9 404.33,235.2C402.99,230.05 402.85,224.36 405.5,219.59C407.5,216.23 410.86,213.19 414.94,212.97C420.84,213.12 425,218.66 426.26,223.98C427.44,227.6 426.65,231.39 425.87,234.99C435.26,226.48 437.35,211.84 432.5,200.42C430.16,194.68 425.57,189.56 419.54,187.65C414.54,186.02 408.84,187.33 404.85,190.69M321.77,263.65C328.44,280.68 336.9,297.2 348.26,311.6C354.89,319.22 362.65,327.11 373.04,328.91C383.5,330.5 393.01,324.16 399.85,316.89C414.17,301.78 423.38,282.69 431.25,263.62C417.4,274.7 400.78,282.87 383.03,284.88C360.71,286.98 338.9,277.36 321.77,263.65Z" style="fill:white;fill-rule:nonzero;"/>
    </g>
</svg>
