<?xml version="1.0" encoding="UTF-8" ?>
<!DOCTYPE svg PUBLIC "-//W3C//DTD SVG 1.1//EN" "http://www.w3.org/Graphics/SVG/1.1/DTD/svg11.dtd">
<svg width="512pt" height="512pt" viewBox="0 0 512 512" version="1.1" xmlns="http://www.w3.org/2000/svg">
<g id="#ebebebff">
<path fill="#ebebeb" opacity="1.00" d=" M 235.50 48.91 C 279.51 44.58 324.94 54.37 362.80 77.34 C 405.44 102.26 438.35 142.95 454.55 189.54 C 470.64 235.92 469.67 287.98 451.82 333.71 C 437.65 369.52 413.86 401.65 383.00 424.80 C 369.53 435.43 354.43 443.75 338.84 450.82 C 297.67 468.70 250.67 472.57 207.06 462.10 C 181.99 456.26 158.34 445.16 137.04 430.83 C 130.68 425.88 123.86 421.50 118.04 415.91 C 97.64 398.16 80.68 376.40 68.59 352.22 C 40.36 297.73 38.67 230.53 63.35 174.44 C 66.25 168.59 68.88 162.60 71.96 156.85 C 75.37 151.29 78.65 145.65 82.18 140.17 C 88.13 132.18 93.81 123.95 100.81 116.82 C 107.19 109.21 114.82 102.84 122.15 96.18 C 130.51 89.78 138.78 83.20 148.01 78.06 C 155.92 72.79 164.70 69.11 173.20 64.93 C 192.95 56.37 214.08 51.02 235.50 48.91 M 235.23 118.18 C 193.10 124.10 154.59 150.80 134.15 188.10 C 114.67 222.46 111.15 265.30 124.45 302.45 C 132.77 326.26 147.81 347.66 167.30 363.66 C 187.88 380.70 213.51 391.52 240.06 394.48 C 244.50 395.09 248.81 391.39 248.88 386.91 C 249.25 378.25 248.74 369.55 249.10 360.88 C 249.14 357.27 252.43 354.18 256.01 354.25 C 259.63 354.16 262.96 357.30 262.97 360.94 C 263.32 369.58 262.83 378.25 263.18 386.89 C 263.26 391.33 267.48 395.12 271.93 394.53 C 278.29 393.64 284.68 392.73 290.88 390.97 C 327.97 381.76 360.57 356.25 378.63 322.60 C 398.90 285.96 401.07 240.00 384.52 201.56 C 374.90 178.72 358.99 158.58 339.05 143.89 C 319.53 129.36 296.10 120.23 271.94 117.51 C 267.52 116.91 263.27 120.65 263.19 125.08 C 262.82 133.74 263.33 142.42 262.97 151.08 C 262.93 154.05 260.73 156.76 257.88 157.50 C 253.77 158.79 249.09 155.42 249.10 151.10 C 248.78 142.69 249.17 134.27 248.95 125.86 C 248.95 122.81 247.40 119.66 244.55 118.34 C 241.65 116.79 238.28 117.76 235.23 118.18 Z" />
<path fill="#ebebeb" opacity="1.00" d=" M 189.21 152.12 C 202.47 143.48 217.49 137.74 232.99 134.65 C 233.45 142.81 231.77 151.35 234.65 159.20 C 238.06 168.14 247.49 174.32 257.06 173.73 C 267.00 173.45 276.12 165.91 278.36 156.24 C 279.71 149.13 278.82 141.84 279.08 134.65 C 301.40 138.97 322.58 149.34 339.32 164.77 C 357.22 180.99 370.13 202.63 375.94 226.08 C 381.57 248.74 380.69 273.02 373.24 295.16 C 360.42 334.57 326.33 366.16 285.99 375.76 C 283.68 376.29 281.38 376.82 279.08 377.36 C 278.71 369.66 280.01 361.74 277.92 354.23 C 275.16 345.26 266.45 338.56 257.06 338.28 C 246.96 337.63 237.08 344.58 234.14 354.24 C 232.06 361.75 233.36 369.67 232.99 377.35 C 210.67 373.03 189.49 362.67 172.75 347.24 C 154.88 331.05 141.98 309.47 136.17 286.08 C 130.48 263.34 131.36 238.96 138.86 216.74 C 147.63 190.30 165.72 167.09 189.21 152.12 M 188.37 226.48 C 177.56 229.13 168.65 238.16 166.20 249.03 C 163.41 260.30 167.84 272.91 177.08 279.95 C 186.81 287.82 201.49 288.58 212.01 281.81 C 224.05 274.57 229.59 258.46 224.41 245.37 C 219.42 231.15 202.93 222.45 188.37 226.48 M 308.37 226.58 C 293.92 230.13 283.66 245.38 286.03 260.12 C 287.73 275.05 301.90 287.10 316.91 286.44 C 327.53 286.29 337.77 280.08 342.84 270.76 C 347.67 262.24 347.93 251.36 343.56 242.60 C 337.55 229.82 321.98 222.66 308.37 226.58 Z" />
<path fill="#ebebeb" opacity="1.00" d=" M 191.27 242.23 C 199.17 239.33 208.65 244.82 210.09 253.10 C 211.94 260.96 205.96 269.40 197.97 270.35 C 190.49 271.65 182.75 266.06 181.56 258.59 C 180.17 251.70 184.58 244.33 191.27 242.23 Z" />
<path fill="#ebebeb" opacity="1.00" d=" M 310.46 242.67 C 317.83 239.26 327.36 243.43 329.89 251.12 C 332.72 258.42 328.39 267.34 320.95 269.71 C 313.85 272.37 305.23 268.34 302.66 261.23 C 299.74 254.23 303.47 245.51 310.46 242.67 Z" />
</g>
<g id="#006fb5ff">
<path fill="#006fb5" opacity="1.00" d=" M 235.23 118.18 C 238.28 117.76 241.65 116.79 244.55 118.34 C 247.40 119.66 248.95 122.81 248.95 125.86 C 249.17 134.27 248.78 142.69 249.10 151.10 C 249.09 155.42 253.77 158.79 257.88 157.50 C 260.73 156.76 262.93 154.05 262.97 151.08 C 263.33 142.42 262.82 133.74 263.19 125.08 C 263.27 120.65 267.52 116.91 271.94 117.51 C 296.10 120.23 319.53 129.36 339.05 143.89 C 358.99 158.58 374.90 178.72 384.52 201.56 C 401.07 240.00 398.90 285.96 378.63 322.60 C 360.57 356.25 327.97 381.76 290.88 390.97 C 284.68 392.73 278.29 393.64 271.93 394.53 C 267.48 395.12 263.26 391.33 263.18 386.89 C 262.83 378.25 263.32 369.58 262.97 360.94 C 262.96 357.30 259.63 354.16 256.01 354.25 C 252.43 354.18 249.14 357.27 249.10 360.88 C 248.74 369.55 249.25 378.25 248.88 386.91 C 248.81 391.39 244.50 395.09 240.06 394.48 C 213.51 391.52 187.88 380.70 167.30 363.66 C 147.81 347.66 132.77 326.26 124.45 302.45 C 111.15 265.30 114.67 222.46 134.15 188.10 C 154.59 150.80 193.10 124.10 235.23 118.18 M 189.21 152.12 C 165.72 167.09 147.63 190.30 138.86 216.74 C 131.36 238.96 130.48 263.34 136.17 286.08 C 141.98 309.47 154.88 331.05 172.75 347.24 C 189.49 362.67 210.67 373.03 232.99 377.35 C 233.36 369.67 232.06 361.75 234.14 354.24 C 237.08 344.58 246.96 337.63 257.06 338.28 C 266.45 338.56 275.16 345.26 277.92 354.23 C 280.01 361.74 278.71 369.66 279.08 377.36 C 281.38 376.82 283.68 376.29 285.99 375.76 C 326.33 366.16 360.42 334.57 373.24 295.16 C 380.69 273.02 381.57 248.74 375.94 226.08 C 370.13 202.63 357.22 180.99 339.32 164.77 C 322.58 149.34 301.40 138.97 279.08 134.65 C 278.82 141.84 279.71 149.13 278.36 156.24 C 276.12 165.91 267.00 173.45 257.06 173.73 C 247.49 174.32 238.06 168.14 234.65 159.20 C 231.77 151.35 233.45 142.81 232.99 134.65 C 217.49 137.74 202.47 143.48 189.21 152.12 Z" />
<path fill="#006fb5" opacity="1.00" d=" M 188.37 226.48 C 202.93 222.45 219.42 231.15 224.41 245.37 C 229.59 258.46 224.05 274.57 212.01 281.81 C 201.49 288.58 186.81 287.82 177.08 279.95 C 167.84 272.91 163.41 260.30 166.20 249.03 C 168.65 238.16 177.56 229.13 188.37 226.48 M 191.27 242.23 C 184.58 244.33 180.17 251.70 181.56 258.59 C 182.75 266.06 190.49 271.65 197.97 270.35 C 205.96 269.40 211.94 260.96 210.09 253.10 C 208.65 244.82 199.17 239.33 191.27 242.23 Z" />
<path fill="#006fb5" opacity="1.00" d=" M 308.37 226.58 C 321.98 222.66 337.55 229.82 343.56 242.60 C 347.93 251.36 347.67 262.24 342.84 270.76 C 337.77 280.08 327.53 286.29 316.91 286.44 C 301.90 287.10 287.73 275.05 286.03 260.12 C 283.66 245.38 293.92 230.13 308.37 226.58 M 310.46 242.67 C 303.47 245.51 299.74 254.23 302.66 261.23 C 305.23 268.34 313.85 272.37 320.95 269.71 C 328.39 267.34 332.72 258.42 329.89 251.12 C 327.36 243.43 317.83 239.26 310.46 242.67 Z" />
</g>
</svg>
