<?xml version="1.0" encoding="UTF-8" standalone="no"?><!DOCTYPE svg PUBLIC "-//W3C//DTD SVG 1.1//EN" "http://www.w3.org/Graphics/SVG/1.1/DTD/svg11.dtd"><svg width="100%" height="100%" viewBox="0 0 512 512" version="1.1" xmlns="http://www.w3.org/2000/svg" xmlns:xlink="http://www.w3.org/1999/xlink" xml:space="preserve" xmlns:serif="http://www.serif.com/" style="fill-rule:evenodd;clip-rule:evenodd;stroke-linejoin:round;stroke-miterlimit:2;"><circle cx="256" cy="256" r="256" style="fill:#dcdcdc;"/><path d="M256,0c141.29,0 256,114.71 256,256c0,141.29 -114.71,256 -256,256c-141.29,0 -256,-114.71 -256,-256c0,-141.29 114.71,-256 256,-256Zm0,43.01c117.552,-0 212.99,95.438 212.99,212.99c0,117.552 -95.438,212.99 -212.99,212.99c-117.552,0 -212.99,-95.438 -212.99,-212.99c-0,-117.552 95.438,-212.99 212.99,-212.99Z" style="fill:#a1af97;"/><path id="_508729" serif:id="508729" d="M0,256.084l-0,-0.084c-0,-141.29 114.71,-256 256,-256c141.29,0 256,114.71 256,256l-0,0.084l-512,-0Z" style="fill:#508729;"/><path id="_5087291" serif:id="508729" d="M42.958,256.084l-0,-0.07c-0,-117.507 95.448,-212.908 213.013,-212.908c117.565,0 213.013,95.401 213.013,212.908l-0,0.07l-426.026,-0Z" style="fill:#3a9300;"/><g><path d="M406.898,176.555c-0,-13.847 -11.242,-25.088 -25.088,-25.088l-251.62,-0c-13.846,-0 -25.088,11.241 -25.088,25.088l0,158.89c0,13.847 11.242,25.088 25.088,25.088l251.62,0c13.846,0 25.088,-11.241 25.088,-25.088l-0,-158.89Z" style="fill:#efb340;"/><g id="_-000000ff" serif:id="#000000ff"><path id="path11" d="M329.179,176.201c12.412,-1.1 25.14,0.689 36.649,5.506c3.085,1.481 6.597,2.798 8.513,5.818c1.367,2.589 1.313,5.621 1.461,8.469c0.012,4.324 0.201,8.706 -0.656,12.974c-0.321,1.464 -1.014,3.229 -2.68,3.532c-1.936,0.402 -3.688,-0.841 -5.321,-1.698c-7.263,-4.132 -15.079,-7.579 -23.388,-8.842c-7.11,-0.887 -14.918,-0.821 -21.151,3.179c-7.34,4.526 -9.281,15.35 -4.755,22.485c3.672,5.494 9.642,8.772 15.415,11.644c11.353,5.264 23.252,9.667 33.534,16.946c8.079,5.801 14.406,14.217 16.982,23.892c1.793,7.036 1.818,14.434 0.784,21.594c-1.145,7.906 -4.452,15.444 -9.379,21.721c-7.324,9.425 -18.32,15.432 -29.78,18.25c-16.068,3.96 -33.28,3.069 -48.879,-2.433c-4.784,-1.727 -9.495,-3.881 -13.479,-7.09c-1.674,-1.288 -2.654,-3.262 -3.11,-5.284c-0.718,-3.225 -0.714,-6.553 -0.73,-9.835c0.107,-3.435 0.024,-6.984 1.19,-10.266c0.504,-1.625 2.109,-2.868 3.852,-2.659c2.635,0.423 4.711,2.232 6.976,3.496c9.121,5.322 19.312,9.264 29.952,9.736c7.229,0.435 14.914,-0.213 21.192,-4.148c4.111,-2.486 7.077,-6.712 8.083,-11.406c1.025,-4.665 0.759,-9.929 -2.072,-13.938c-3.935,-5.588 -10.106,-8.953 -16.088,-11.923c-10.418,-4.83 -21.254,-8.974 -30.777,-15.498c-6.274,-4.39 -11.702,-10.15 -15.079,-17.068c-3.331,-6.347 -4.521,-13.598 -4.476,-20.712c-0.029,-7.952 1.621,-16.047 5.654,-22.969c3.196,-5.703 7.746,-10.635 13.191,-14.258c8.366,-5.65 18.414,-8.292 28.372,-9.215Z" style="fill-rule:nonzero;"/><path id="path13" d="M128.394,180.431c1.912,-1.247 4.251,-1.51 6.458,-1.846c5.482,-0.612 11.038,-0.608 16.523,-0.066c2.171,0.3 4.419,0.57 6.389,1.592c1.321,0.652 2.121,2.117 2.018,3.582c-0.004,19.752 -0.008,39.508 0,59.264c20.228,0.025 40.46,-0.033 60.688,0.029c0.127,-19.765 0.008,-39.537 0.058,-59.305c-0.111,-1.543 0.849,-2.975 2.215,-3.627c2.405,-1.178 5.133,-1.412 7.759,-1.683c5.74,-0.373 11.558,-0.439 17.241,0.571c1.768,0.394 3.754,0.792 4.993,2.232c1.005,1.14 0.78,2.741 0.8,4.14c-0.012,50.463 0.004,100.926 -0.008,151.389c0.099,1.94 -1.571,3.376 -3.295,3.881c-3.569,1.169 -7.365,1.309 -11.086,1.452c-4.509,0.046 -9.064,0.005 -13.495,-0.914c-1.657,-0.394 -3.504,-0.92 -4.525,-2.393c-0.682,-0.935 -0.595,-2.145 -0.612,-3.233c0.037,-21.458 -0.041,-42.921 0.041,-64.38c-20.256,-0.119 -40.513,-0.012 -60.77,-0.049c-0.024,21.889 0,43.779 -0.008,65.668c0.07,1.691 -1.181,3.147 -2.732,3.677c-3.783,1.391 -7.886,1.477 -11.874,1.629c-5.018,0.004 -10.155,0.032 -15.005,-1.424c-1.933,-0.505 -3.656,-2.216 -3.397,-4.341c-0.005,-50.73 0.004,-101.459 -0.005,-152.185c-0.11,-1.399 0.398,-2.893 1.629,-3.66Z" style="fill-rule:nonzero;"/></g></g></svg>