<?xml version="1.0" encoding="UTF-8" standalone="no"?><!DOCTYPE svg PUBLIC "-//W3C//DTD SVG 1.1//EN" "http://www.w3.org/Graphics/SVG/1.1/DTD/svg11.dtd"><svg width="100%" height="100%" viewBox="0 0 123 123" version="1.1" xmlns="http://www.w3.org/2000/svg" xmlns:xlink="http://www.w3.org/1999/xlink" xml:space="preserve" xmlns:serif="http://www.serif.com/" style="fill-rule:evenodd;clip-rule:evenodd;stroke-linecap:round;stroke-miterlimit:1.5;"><g><path d="M61.44,8.94l25.981,15l-0,30l-25.981,15l-25.981,-15l0,-30l25.981,-15Z" style="fill:none;stroke:#73bee6;stroke-width:3px;"/><path d="M61.44,14.149l21.47,12.395l-0,24.792l-21.47,12.395l-21.47,-12.395l0,-24.792l21.47,-12.395Z" style="fill:#73bee6;"/></g><g><path d="M35.459,53.94l25.981,15l0,30l-25.981,15l-25.981,-15l0,-30l25.981,-15Z" style="fill:none;stroke:#73bee6;stroke-width:3px;"/><path d="M35.459,59.149l21.47,12.395l0,24.792l-21.47,12.395l-21.47,-12.395l0,-24.792l21.47,-12.395Z" style="fill:#73bee6;"/></g><g><path d="M87.421,53.94l25.981,15l-0,30l-25.981,15l-25.981,-15l-0,-30l25.981,-15Z" style="fill:none;stroke:#73bee6;stroke-width:3px;"/><path d="M87.421,59.149l21.47,12.395l-0,24.792l-21.47,12.395l-21.47,-12.395l-0,-24.792l21.47,-12.395Z" style="fill:#73bee6;"/></g></svg>