<?xml version="1.0" encoding="UTF-8" standalone="no"?><!DOCTYPE svg PUBLIC "-//W3C//DTD SVG 1.1//EN" "http://www.w3.org/Graphics/SVG/1.1/DTD/svg11.dtd"><svg width="100%" height="100%" viewBox="0 0 512 512" version="1.1" xmlns="http://www.w3.org/2000/svg" xmlns:xlink="http://www.w3.org/1999/xlink" xml:space="preserve" xmlns:serif="http://www.serif.com/" style="fill-rule:evenodd;clip-rule:evenodd;stroke-linecap:round;stroke-linejoin:round;stroke-miterlimit:1.5;"><g><path d="M28.271,10l150,0l0,100l156.729,-0l0,-100l150,0l0,490l-150,0l0,-100l-156.729,-0l0,100l-150,0l0,-490Z" style="fill:#0d2886;stroke:#0d79f2;stroke-width:13.04px;"/></g><g><circle cx="345.673" cy="321.035" r="57.8" style="fill:none;stroke:#fff;stroke-width:11px;"/><circle cx="145.114" cy="170.663" r="7.911" style="fill:#fff;"/><circle cx="170.361" cy="170.663" r="7.911" style="fill:#fff;"/><circle cx="195.608" cy="170.663" r="7.911" style="fill:#fff;"/><path d="M262.428,346.211l-126.504,-0c0,-0 -15.922,-1.011 -15.922,-17.439l0,-169.833c0,-0 -0.505,-13.774 13.774,-13.774l226.066,-0c-0,-0 10.299,1.769 10.299,10.299l-0,82.831" style="fill:none;stroke:#fff;stroke-width:11px;"/><path d="M120.002,195.079l250.139,-0" style="fill:none;stroke:#fff;stroke-width:11px;"/><path d="M345.436,297.687l0,48.524l16.807,-16.807" style="fill:none;stroke:#fff;stroke-width:11px;"/><path d="M345.436,346.211l-16.806,-16.807" style="fill:none;stroke:#fff;stroke-width:11px;"/></g></svg>