<?xml version="1.0" encoding="UTF-8" standalone="no"?><!DOCTYPE svg PUBLIC "-//W3C//DTD SVG 1.1//EN" "http://www.w3.org/Graphics/SVG/1.1/DTD/svg11.dtd"><svg width="100%" height="100%" viewBox="0 0 512 512" version="1.1" xmlns="http://www.w3.org/2000/svg" xmlns:xlink="http://www.w3.org/1999/xlink" xml:space="preserve" xmlns:serif="http://www.serif.com/" style="fill-rule:evenodd;clip-rule:evenodd;stroke-linejoin:round;stroke-miterlimit:2;"><path d="M512,86.533c0,-47.759 -38.774,-86.533 -86.533,-86.533l-338.934,0c-47.759,0 -86.533,38.774 -86.533,86.533l0,201.911l512,0l0,-201.911Z" style="fill:#287db8;"/><path d="M512,288.444l-512,0l0,156.489c0,37.015 30.052,67.067 67.067,67.067l377.866,0c37.015,0 67.067,-30.052 67.067,-67.067l0,-156.489Z" style="fill:#181818;"/><rect x="109.981" y="40.261" width="66.222" height="218.294" style="fill:#fff;"/><path d="M288.759,147.877c0,-29.971 -24.332,-54.303 -54.302,-54.303l-11.92,0l-0,164.981l66.222,0l0,-110.678Z" style="fill:#fff;"/><path d="M109.981,428.41c0,29.97 24.332,54.303 54.303,54.303l11.92,-0l-0,-164.981l-66.223,-0l0,110.678Z" style="fill:#fff;"/><path d="M222.537,482.713l11.92,-0c29.97,-0 54.302,-24.333 54.302,-54.303l0,-110.678l-66.222,-0l-0,164.981Z" style="fill:#fff;"/><path d="M335.093,482.713l11.92,-0c29.97,-0 54.302,-24.333 54.302,-54.303l-0,-110.678l-66.222,-0l-0,164.981Z" style="fill:#fff;"/><circle cx="368.204" cy="225.888" r="37.111" style="fill:#fff;"/></svg>