<svg xmlns="http://www.w3.org/2000/svg" xmlns:xlink="http://www.w3.org/1999/xlink" width="511.992" height="511.992" viewBox="0 0 312 312">
  <defs>
    <style>
      .cls-1 {
        fill: #181818;
        filter: url(#filter);
      }

      .cls-2 {
        opacity: 0.08;
      }

      .cls-3 {
        fill: #e6cf45;
      }

      .cls-10, .cls-3, .cls-4, .cls-7, .cls-8 {
        fill-rule: evenodd;
      }

      .cls-4 {
        fill: #1ea7f7;
      }

      .cls-5 {
        fill: #fff;
      }

      .cls-6, .cls-9 {
        fill: #848282;
      }

      .cls-6 {
        filter: url(#filter-2);
      }

      .cls-7, .cls-8 {
        fill: #4f4e4e;
      }

      .cls-8 {
        filter: url(#filter-3);
      }

      .cls-10 {
        fill: #5c85b9;
        stroke: #000;
        stroke-linejoin: round;
        stroke-width: 3px;
        filter: url(#filter-4);
      }
    </style>
    <filter id="filter" x="70" y="37.906" width="171.719" height="232.875" filterUnits="userSpaceOnUse">
      <feFlood result="flood" flood-color="#181818"/>
      <feComposite result="composite" operator="in" in2="SourceGraphic"/>
      <feBlend result="blend" in2="SourceGraphic"/>
    </filter>
    <filter id="filter-2" x="88.563" y="302.062" width="136.938" height="6.938" filterUnits="userSpaceOnUse">
      <feFlood result="flood" flood-color="#848282"/>
      <feComposite result="composite" operator="in" in2="SourceGraphic"/>
      <feBlend result="blend" in2="SourceGraphic"/>
    </filter>
    <filter id="filter-3" x="70" y="6.656" width="172.875" height="31.25" filterUnits="userSpaceOnUse">
      <feFlood result="flood" flood-color="#4f4e4e"/>
      <feComposite result="composite" operator="in" in2="SourceGraphic"/>
      <feBlend result="blend" in2="SourceGraphic"/>
    </filter>
    <filter id="filter-4" x="114" y="47" width="84" height="216" filterUnits="userSpaceOnUse">
      <feFlood result="flood" flood-color="#ef3d01"/>
      <feComposite result="composite" operator="in" in2="SourceGraphic"/>
      <feBlend result="blend" in2="SourceGraphic"/>
    </filter>
  </defs>
  <rect id="Rechteck_1" data-name="Rechteck 1" class="cls-1" x="70" y="37.906" width="171.719" height="232.875"/>
  <g id="Balken" class="cls-2">
    <path id="Form_2_Kopie" data-name="Form 2 Kopie" class="cls-3" d="M70.015,193.151l156.631-24.328H70.015"/>
    <path id="Form_4" data-name="Form 4" class="cls-4" d="M222.2,114.374L70.183,86.57v27.8"/>
    <path id="Form_3" data-name="Form 3" class="cls-4" d="M70.183,85.411"/>
    <path id="Form_4_Kopie" data-name="Form 4 Kopie" class="cls-4" d="M90.87,168.823l152.02,27.8v-27.8"/>
    <rect id="Rechteck_2_Kopie" data-name="Rechteck 2 Kopie" class="cls-5" x="70" y="156.094" width="171.719" height="13.875"/>
    <path id="Form_2" data-name="Form 2" class="cls-3" d="M242.985,90.045L86.245,114.374h156.74"/>
    <rect id="Rechteck_2" data-name="Rechteck 2" class="cls-5" x="70" y="113.219" width="171.719" height="13.906"/>
  </g>
  <rect id="Abgerundetes_Rechteck_1" data-name="Abgerundetes Rechteck 1" class="cls-6" x="88.563" y="302.062" width="136.938" height="6.938" rx="2" ry="2"/>
  <path id="Form_1" data-name="Form 1" class="cls-7" d="M70.183,270.7h172.8L222.2,301.788H90.741"/>
  <path id="Form_1_Kopie" data-name="Form 1 Kopie" class="cls-8" d="M242.89,37.912H70.015L90.806,6.642H222.323"/>
  <circle class="cls-5" cx="125.109" cy="256.281" r="7.547"/>
  <circle id="Ellipse_2_Kopie" data-name="Ellipse 2 Kopie" class="cls-5" cx="202.859" cy="208.781" r="7.547"/>
  <circle id="Ellipse_2_Kopie_2" data-name="Ellipse 2 Kopie 2" class="cls-5" cx="104.234" cy="76.719" r="7.547"/>
  <circle id="Ellipse_2_Kopie_3" data-name="Ellipse 2 Kopie 3" class="cls-5" cx="89.141" cy="53.563" r="7.547"/>
  <ellipse class="cls-5" cx="107.141" cy="220.953" rx="20.891" ry="20.859"/>
  <ellipse id="Ellipse_1_Kopie" data-name="Ellipse 1 Kopie" class="cls-5" cx="204.609" cy="61.078" rx="20.891" ry="20.859"/>
  <rect id="Abgerundetes_Rechteck_1_Kopie" data-name="Abgerundetes Rechteck 1 Kopie" class="cls-9" x="88.563" y="2" width="136.938" height="6.938" rx="2" ry="2"/>
  <g style="fill: #5c85b9; filter: url(#filter-4)">
    <path id="JPEG_Kopie" data-name="JPEG Kopie" class="cls-10" d="M164.07,231.615q6.382,0,9.074,1.266a4.17,4.17,0,0,1,2.692,3.976,3.621,3.621,0,0,1-.906,2.64,7.791,7.791,0,0,1-3.623,1.926,31.159,31.159,0,0,1-6.866.606l2.813,15.443a39.842,39.842,0,0,0,13.612-2.8,18.374,18.374,0,0,0,8.368-6.723q2.86-4.351,2.86-12.269a17.624,17.624,0,0,0-4.335-12.287,20.919,20.919,0,0,0-10.578-6.385q-6.242-1.585-18.2-1.587H121.005v16.193H164.07ZM190.9,206.183V189.955H164.965V181.11q0-9.773-5.96-14.534t-16.544-4.761q-10.3,0-15.877,4.369t-5.579,13.143v26.856h69.9Zm-55.688-16.228v-4.6q0-4.529,2.288-6.17a9.331,9.331,0,0,1,5.579-1.641,8.148,8.148,0,0,1,5.554,1.891q2.171,1.89,2.17,6.562v3.959H135.214Zm55.688-35.1V110.775H175.073v27.891H161.294V113.521H147.038v25.145H135.929V111.56H121.005v43.3h69.9ZM165.585,66.441h6.58a25.541,25.541,0,0,1,3.576,5.635,13.061,13.061,0,0,1,1.049,5.172,10.079,10.079,0,0,1-4.864,8.9q-4.863,3.192-16.21,3.192-10.68,0-15.615-3.156t-4.935-8.471a8.375,8.375,0,0,1,2.1-5.867,11.687,11.687,0,0,1,6.055-3.263L139.6,52.995a33.3,33.3,0,0,0-11.18,4.262,17.64,17.64,0,0,0-6.509,7.133q-2.1,4.3-2.1,12.965,0,8.988,3.385,14.3A27.217,27.217,0,0,0,136.048,102a51.463,51.463,0,0,0,19.906,3.531,53.4,53.4,0,0,0,19.262-3.228q8.392-3.228,12.635-9.095t4.243-15.176a33.042,33.042,0,0,0-2.36-13.072q-2.359-5.51-8.892-12.679h-29.8V77.248h14.542V66.441Z" style="stroke: inherit; filter: none; fill: inherit"/>
  </g>
  <use xlink:href="#JPEG_Kopie" style="stroke: #000; filter: none; fill: none"/>
</svg>
