<?xml version="1.0" encoding="UTF-8" standalone="no"?><!DOCTYPE svg PUBLIC "-//W3C//DTD SVG 1.1//EN" "http://www.w3.org/Graphics/SVG/1.1/DTD/svg11.dtd"><svg width="100%" height="100%" viewBox="0 0 512 512" version="1.1" xmlns="http://www.w3.org/2000/svg" xmlns:xlink="http://www.w3.org/1999/xlink" xml:space="preserve" xmlns:serif="http://www.serif.com/" style="fill-rule:evenodd;clip-rule:evenodd;stroke-linejoin:round;stroke-miterlimit:2;"><g><path d="M206.806,197.768c-26.743,8.788 -49.206,27.042 -63.421,50.796l-63.549,-37.917c23.473,-39.34 60.368,-68.875 103.892,-83.165l23.078,70.286Z" style="fill:#3daefd;"/><path d="M139.886,254.846c-8.233,15.921 -12.886,33.999 -12.886,53.154c0,9.488 1.142,18.712 3.294,27.536l-71.865,17.558c-10.873,-44.501 -5.301,-91.432 15.689,-132.151l65.768,33.903Z" style="fill:#11d116;"/><path d="M132.215,342.467c8.374,26.915 26.298,49.641 49.801,64.205l-38.907,62.95c-38.968,-24.084 -67.923,-61.436 -81.532,-105.179l70.638,-21.976Z" style="fill:#1cdc9a;"/><path d="M188.242,410.269c16.318,8.762 34.962,13.731 54.758,13.731c8.854,0 17.478,-0.994 25.771,-2.879l16.433,72.132c-44.665,10.176 -91.504,3.872 -131.889,-17.752l34.927,-65.232Z" style="fill:#c9ce3b;"/><path d="M340.705,370.518l62.337,39.887c-24.691,38.587 -62.491,66.954 -106.441,79.877l-20.87,-70.973c27.084,-7.961 50.065,-25.548 64.974,-48.791Z" style="fill:#f67400;"/><path d="M356.509,284l72.381,-15.304c9.477,44.819 2.441,91.553 -19.811,131.596l-64.68,-35.944c9.302,-16.691 14.601,-35.906 14.601,-56.348c0,-8.227 -0.858,-16.255 -2.491,-24Z" style="fill:#ed1515;"/></g><g id="Ebene1"></g><path d="M168,339c0,0 46.652,-0.019 54.5,-2c7.848,-1.981 26.265,-7.307 30,-9c3.735,-1.693 24.549,-13.928 28.5,-19c3.951,-5.072 13.512,-15.942 15,-32c1.811,-19.552 -1.612,-32.659 -10,-39c-8.388,-6.341 -15.711,-9.037 -22,-8c-6.289,1.037 -10.306,2.429 -18,11c-7.694,8.571 -36.5,48 -36.5,48c-0,-0 -12.429,17.421 -18,25c-5.571,7.579 -10.794,13.04 -14.5,16.5c-3.706,3.46 -9,8.5 -9,8.5Z" style="fill:#eff0f1;"/><path d="M166.5,339l11.5,-11l12,-12l11,-10.5l9,-7.5c0,0 4.756,-4.004 8,-4c2.303,0.003 4.219,1.125 6.5,4.5c2.281,3.375 4.007,8.581 10.5,10.5c6.493,1.919 7.93,3.021 14,3.5c5.574,0.44 8.663,-1.661 11.5,-3.5c2.837,-1.839 2.724,-2.206 4.5,-2.5c1.776,-0.294 5.033,0.671 3.5,3.5c-1.533,2.829 -3.162,6.318 -5.5,9c-2.338,2.682 -6.398,8.218 -16.5,11.5c-10.102,3.282 -14.219,4.77 -20,6c-5.781,1.23 -9.002,1.378 -24.5,2.5c-3.491,0.253 -35.5,-0 -35.5,-0Z" style="fill:#f67400;"/><path d="M271.428,221.786c0.854,0.588 1.341,0.499 1.899,0.603c3.711,0.692 11.566,2.441 16.673,5.611c6.845,4.249 11.145,9.483 12,14c0.821,4.341 1.423,6.834 9,3.5c7.924,-3.486 17.46,-11.182 19,-12.5c1.54,-1.318 33.494,-26.005 54,-50c20.506,-23.995 27.781,-30.897 37,-45c9.219,-14.103 20.72,-32.572 25,-43c4.28,-10.428 8.804,-21.35 11,-34c2.196,-12.65 1.714,-23.229 1,-30c-0.714,-6.771 -1.615,-30.198 -34,-18c-19.545,7.362 -26.757,12.467 -34.652,17.674c-8.673,5.72 -24.26,19.994 -27.372,22.774c-4.735,4.228 -13.994,13.935 -20.373,20.578c-5.08,5.29 -23.775,28.179 -29.603,36.974c-2.137,3.225 -20.688,38.394 -23,43c-2.312,4.606 -12.145,33.272 -13,39c-0.855,5.728 -3.563,15.405 -4,20c-0.28,2.937 -0.61,5.797 -0.813,7.478c-0.034,0.286 -0.124,1.056 0.241,1.308Z" style="fill:#31363b;"/><path d="M310,137c-0,-0 26.985,-51.851 44,-68c17.015,-16.149 36.127,-35.948 51,-42c11.128,-4.528 14,-5 14,-5c-0,-0 10.239,-2.663 7,4c-3.124,6.427 -5.763,7.756 -15,18c-9.237,10.244 -23.398,23.884 -30,30c-6.602,6.116 -46,42.613 -46,42.613l-25,20.387Z" style="fill:#eff0f1;"/></svg>