<?xml version="1.0" encoding="UTF-8" ?>
<!DOCTYPE svg PUBLIC "-//W3C//DTD SVG 1.1//EN" "http://www.w3.org/Graphics/SVG/1.1/DTD/svg11.dtd">
<svg width="512pt" height="512pt" viewBox="0 0 512 512" version="1.1" xmlns="http://www.w3.org/2000/svg">
<g id="#101010ff">
<path fill="#101010" opacity="1.00" d=" M 308.20 0.00 L 311.52 0.00 C 311.51 14.19 311.58 28.38 311.48 42.57 C 360.99 42.54 410.49 42.58 460.00 42.55 C 467.00 42.50 474.32 42.17 480.85 45.15 C 492.61 50.00 501.23 62.13 501.01 74.98 C 500.98 195.32 501.00 315.67 501.00 436.02 C 501.22 453.00 485.87 468.07 468.99 468.03 C 416.50 468.12 364.00 468.12 311.51 468.03 C 311.55 482.69 311.52 497.34 311.53 512.00 L 309.47 512.00 C 209.34 498.22 109.21 484.45 9.05 470.85 C 8.94 327.30 9.03 183.75 9.01 40.20 C 76.64 31.10 144.29 22.16 211.93 13.07 C 244.01 8.61 276.17 4.77 308.20 0.00 M 311.27 61.71 C 311.37 113.50 311.26 165.30 311.32 217.09 C 313.23 216.18 315.14 215.26 317.05 214.35 C 320.02 216.14 323.28 218.09 326.91 217.53 C 330.10 217.38 332.65 215.29 335.03 213.39 C 338.01 214.41 340.98 215.49 343.91 216.68 C 344.46 219.78 345.28 223.09 347.83 225.18 C 350.27 227.73 353.92 228.08 357.20 228.67 C 358.46 231.42 359.73 234.17 360.99 236.92 C 359.30 239.69 357.33 242.65 357.66 246.06 C 357.72 249.44 359.89 252.18 361.94 254.66 C 360.97 257.62 359.93 260.54 358.85 263.46 C 355.82 264.22 352.48 264.91 350.35 267.42 C 347.73 269.88 347.26 273.56 346.74 276.92 C 343.97 278.24 341.20 279.57 338.42 280.85 C 335.64 279.02 332.55 277.05 329.06 277.51 C 325.75 277.60 323.13 279.76 320.73 281.78 C 317.53 280.73 314.36 279.60 311.27 278.29 C 311.37 334.55 311.27 390.82 311.31 447.09 C 310.61 449.57 313.48 449.08 315.04 449.24 C 363.36 449.20 411.68 449.22 460.00 449.23 C 465.09 449.14 470.61 449.87 475.22 447.18 C 479.83 444.56 482.48 439.26 482.29 434.02 C 482.31 400.75 482.23 367.47 482.33 334.20 C 477.31 334.85 472.13 335.90 468.09 339.15 C 461.76 343.77 458.67 351.76 459.17 359.46 C 453.61 362.38 447.89 364.97 442.22 367.67 C 437.51 363.47 431.41 360.57 424.97 361.14 C 418.40 361.10 412.65 364.88 408.22 369.43 C 402.44 367.31 396.62 365.28 390.84 363.16 C 390.27 357.94 388.91 352.63 385.40 348.58 C 380.73 342.64 373.00 340.04 365.62 340.41 C 362.82 334.91 360.27 329.28 357.48 323.77 C 360.30 319.92 363.16 315.82 363.80 310.97 C 365.40 303.02 361.68 294.91 355.80 289.64 C 357.90 283.81 359.56 277.78 362.22 272.18 C 366.52 270.95 371.27 270.69 374.93 267.83 C 381.83 263.28 385.40 254.92 384.79 246.77 C 389.67 244.29 394.59 241.85 399.60 239.64 C 402.33 238.02 404.44 241.12 406.72 242.19 C 415.94 247.99 428.60 245.11 435.46 236.96 C 441.28 238.88 447.20 240.69 452.79 243.22 C 454.14 247.23 454.21 251.72 456.79 255.26 C 461.17 262.63 469.87 266.38 478.25 265.91 C 479.56 268.41 480.87 270.90 482.18 273.40 C 482.43 207.93 482.20 142.46 482.30 76.99 C 482.63 71.40 479.65 65.82 474.67 63.22 C 471.42 61.37 467.56 61.60 463.97 61.59 C 413.07 61.72 362.16 61.49 311.27 61.71 M 206.64 119.49 C 206.71 154.18 206.67 188.86 206.66 223.55 C 229.59 224.21 252.53 224.59 275.46 225.33 C 275.37 218.68 275.38 212.03 275.44 205.38 C 260.49 205.21 245.56 204.59 230.62 204.61 C 230.67 196.24 230.64 187.88 230.64 179.52 C 243.98 179.66 257.32 179.63 270.66 179.66 C 270.61 173.15 270.62 166.65 270.65 160.14 C 257.31 160.18 243.97 160.20 230.63 160.28 C 230.65 152.99 230.67 145.71 230.62 138.42 C 244.72 138.23 258.82 137.78 272.92 137.56 C 273.55 131.06 272.99 124.51 273.19 117.98 C 251.00 118.22 228.82 118.93 206.64 119.49 M 166.51 120.44 C 161.13 132.33 155.67 144.19 151.17 156.44 C 146.09 144.62 140.52 133.01 135.09 121.34 C 126.82 121.53 118.56 121.72 110.29 121.93 C 119.09 138.33 128.05 154.63 136.98 170.96 C 127.68 187.65 118.50 204.41 109.26 221.14 C 117.49 221.29 125.72 221.52 133.95 221.67 C 139.28 209.67 144.81 197.76 149.70 185.57 C 155.67 197.92 161.67 210.25 167.67 222.59 C 176.47 222.71 185.27 223.02 194.07 223.29 C 184.23 205.50 173.95 187.97 164.10 170.20 C 173.72 153.41 183.16 136.50 192.71 119.67 C 183.99 120.29 175.24 120.30 166.51 120.44 M 43.81 123.76 C 43.80 155.64 43.85 187.51 43.78 219.39 C 63.10 219.95 82.41 220.48 101.72 220.84 C 101.70 214.76 101.71 208.69 101.71 202.61 C 89.20 202.43 76.68 202.27 64.17 202.07 C 64.13 194.44 64.19 186.81 64.12 179.19 C 75.32 179.17 86.52 179.26 97.72 179.23 C 97.71 173.20 97.69 167.18 97.73 161.16 C 86.53 161.13 75.33 161.22 64.13 161.24 C 64.18 154.56 64.17 147.88 64.12 141.21 C 76.00 141.05 87.88 140.57 99.76 140.53 C 99.71 134.44 99.73 128.36 99.73 122.27 C 81.09 122.72 62.45 123.36 43.81 123.76 M 322.24 231.30 C 318.59 232.57 315.36 235.06 313.33 238.37 C 310.44 242.62 311.15 248.06 311.55 252.89 C 313.99 261.75 324.48 266.92 333.10 263.96 C 340.59 261.68 345.85 253.84 344.83 246.02 C 344.42 235.33 332.20 227.39 322.24 231.30 M 420.05 269.86 C 410.39 270.54 400.95 275.41 395.24 283.30 C 386.03 295.40 386.70 313.79 396.97 325.06 C 406.66 336.51 424.47 339.91 437.59 332.53 C 451.12 325.55 458.49 308.57 453.88 293.97 C 450.00 279.33 435.13 268.80 420.05 269.86 M 90.01 276.01 C 114.70 300.68 139.42 325.33 164.12 350.00 C 139.42 374.67 114.70 399.32 90.01 423.99 C 110.97 424.01 131.93 424.00 152.89 424.00 C 177.59 399.33 202.31 374.67 227.01 350.00 C 202.31 325.33 177.59 300.68 152.89 276.01 C 131.93 276.00 110.97 275.99 90.01 276.01 M 482.23 288.95 C 478.96 295.24 478.85 302.88 482.22 309.16 C 482.34 302.42 482.33 295.68 482.23 288.95 Z" />
<path fill="#101010" opacity="1.00" d=" M 394.98 160.36 C 398.22 160.21 400.80 158.09 403.22 156.16 C 406.16 157.10 409.07 158.12 411.97 159.18 C 412.73 162.32 413.49 165.75 416.07 167.95 C 418.54 170.46 422.17 170.79 425.45 171.44 C 426.71 174.18 428.01 176.92 429.28 179.66 C 427.70 182.20 425.83 184.85 426.09 188.01 C 425.65 191.81 428.11 194.89 430.25 197.72 C 429.19 200.59 428.13 203.46 427.00 206.31 C 423.90 207.04 420.48 207.75 418.39 210.40 C 415.97 212.79 415.60 216.30 415.18 219.49 C 412.44 220.90 409.67 222.24 406.91 223.59 C 404.14 222.02 401.28 220.06 397.94 220.32 C 394.41 220.15 391.49 222.38 388.93 224.51 C 385.94 223.52 382.98 222.46 380.06 221.29 C 379.42 218.23 378.67 214.91 376.15 212.80 C 373.73 210.19 370.04 209.82 366.73 209.28 C 365.42 206.54 364.13 203.79 362.86 201.03 C 364.53 198.27 366.47 195.33 366.22 191.94 C 366.08 188.50 363.91 185.70 361.94 183.07 C 363.01 180.23 363.70 177.20 365.28 174.59 C 368.31 173.35 371.94 172.82 374.04 170.02 C 376.38 167.66 376.69 164.25 377.02 161.12 C 379.70 159.78 382.31 158.24 385.18 157.32 C 388.42 158.42 391.34 160.98 394.98 160.36 M 392.45 173.53 C 383.76 175.18 377.49 184.37 379.13 193.06 C 380.14 200.13 386.03 206.05 393.03 207.29 C 400.77 208.86 409.17 204.19 412.00 196.84 C 414.89 190.08 412.70 181.65 407.00 177.05 C 403.02 173.72 397.51 172.47 392.45 173.53 Z" />
</g>
<g id="#e66f00ff">
<path fill="#e66f00" opacity="1.00" d=" M 311.27 61.71 C 362.16 61.49 413.07 61.72 463.97 61.59 C 467.56 61.60 471.42 61.37 474.67 63.22 C 479.65 65.82 482.63 71.40 482.30 76.99 C 482.20 142.46 482.43 207.93 482.18 273.40 C 480.87 270.90 479.56 268.41 478.25 265.91 C 469.87 266.38 461.17 262.63 456.79 255.26 C 454.21 251.72 454.14 247.23 452.79 243.22 C 447.20 240.69 441.28 238.88 435.46 236.96 C 428.60 245.11 415.94 247.99 406.72 242.19 C 404.44 241.12 402.33 238.02 399.60 239.64 C 394.59 241.85 389.67 244.29 384.79 246.77 C 385.40 254.92 381.83 263.28 374.93 267.83 C 371.27 270.69 366.52 270.95 362.22 272.18 C 359.56 277.78 357.90 283.81 355.80 289.64 C 361.68 294.91 365.40 303.02 363.80 310.97 C 363.16 315.82 360.30 319.92 357.48 323.77 C 360.27 329.28 362.82 334.91 365.62 340.41 C 373.00 340.04 380.73 342.64 385.40 348.58 C 388.91 352.63 390.27 357.94 390.84 363.16 C 396.62 365.28 402.44 367.31 408.22 369.43 C 412.65 364.88 418.40 361.10 424.97 361.14 C 431.41 360.57 437.51 363.47 442.22 367.67 C 447.89 364.97 453.61 362.38 459.17 359.46 C 458.67 351.76 461.76 343.77 468.09 339.15 C 472.13 335.90 477.31 334.85 482.33 334.20 C 482.23 367.47 482.31 400.75 482.29 434.02 C 482.48 439.26 479.83 444.56 475.22 447.18 C 470.61 449.87 465.09 449.14 460.00 449.23 C 411.68 449.22 363.36 449.20 315.04 449.24 C 313.48 449.08 310.61 449.57 311.31 447.09 C 311.27 390.82 311.37 334.55 311.27 278.29 C 314.36 279.60 317.53 280.73 320.73 281.78 C 323.13 279.76 325.75 277.60 329.06 277.51 C 332.55 277.05 335.64 279.02 338.42 280.85 C 341.20 279.57 343.97 278.24 346.74 276.92 C 347.26 273.56 347.73 269.88 350.35 267.42 C 352.48 264.91 355.82 264.22 358.85 263.46 C 359.93 260.54 360.97 257.62 361.94 254.66 C 359.89 252.18 357.72 249.44 357.66 246.06 C 357.33 242.65 359.30 239.69 360.99 236.92 C 359.73 234.17 358.46 231.42 357.20 228.67 C 353.92 228.08 350.27 227.73 347.83 225.18 C 345.28 223.09 344.46 219.78 343.91 216.68 C 340.98 215.49 338.01 214.41 335.03 213.39 C 332.65 215.29 330.10 217.38 326.91 217.53 C 323.28 218.09 320.02 216.14 317.05 214.35 C 315.14 215.26 313.23 216.18 311.32 217.09 C 311.26 165.30 311.37 113.50 311.27 61.71 M 394.98 160.36 C 391.34 160.98 388.42 158.42 385.18 157.32 C 382.31 158.24 379.70 159.78 377.02 161.12 C 376.69 164.25 376.38 167.66 374.04 170.02 C 371.94 172.82 368.31 173.35 365.28 174.59 C 363.70 177.20 363.01 180.23 361.94 183.07 C 363.91 185.70 366.08 188.50 366.22 191.94 C 366.47 195.33 364.53 198.27 362.86 201.03 C 364.13 203.79 365.42 206.54 366.73 209.28 C 370.04 209.82 373.73 210.19 376.15 212.80 C 378.67 214.91 379.42 218.23 380.06 221.29 C 382.98 222.46 385.94 223.52 388.93 224.51 C 391.49 222.38 394.41 220.15 397.94 220.32 C 401.28 220.06 404.14 222.02 406.91 223.59 C 409.67 222.24 412.44 220.90 415.18 219.49 C 415.60 216.30 415.97 212.79 418.39 210.40 C 420.48 207.75 423.90 207.04 427.00 206.31 C 428.13 203.46 429.19 200.59 430.25 197.72 C 428.11 194.89 425.65 191.81 426.09 188.01 C 425.83 184.85 427.70 182.20 429.28 179.66 C 428.01 176.92 426.71 174.18 425.45 171.44 C 422.17 170.79 418.54 170.46 416.07 167.95 C 413.49 165.75 412.73 162.32 411.97 159.18 C 409.07 158.12 406.16 157.10 403.22 156.16 C 400.80 158.09 398.22 160.21 394.98 160.36 Z" />
<path fill="#e66f00" opacity="1.00" d=" M 392.45 173.53 C 397.51 172.47 403.02 173.72 407.00 177.05 C 412.70 181.65 414.89 190.08 412.00 196.84 C 409.17 204.19 400.77 208.86 393.03 207.29 C 386.03 206.05 380.14 200.13 379.13 193.06 C 377.49 184.37 383.76 175.18 392.45 173.53 Z" />
<path fill="#e66f00" opacity="1.00" d=" M 322.24 231.30 C 332.20 227.39 344.42 235.33 344.83 246.02 C 345.85 253.84 340.59 261.68 333.10 263.96 C 324.48 266.92 313.99 261.75 311.55 252.89 C 311.15 248.06 310.44 242.62 313.33 238.37 C 315.36 235.06 318.59 232.57 322.24 231.30 Z" />
<path fill="#e66f00" opacity="1.00" d=" M 420.05 269.86 C 435.13 268.80 450.00 279.33 453.88 293.97 C 458.49 308.57 451.12 325.55 437.59 332.53 C 424.47 339.91 406.66 336.51 396.97 325.06 C 386.70 313.79 386.03 295.40 395.24 283.30 C 400.95 275.41 410.39 270.54 420.05 269.86 Z" />
<path fill="#e66f00" opacity="1.00" d=" M 90.01 276.01 C 110.97 275.99 131.93 276.00 152.89 276.01 C 177.59 300.68 202.31 325.33 227.01 350.00 C 202.31 374.67 177.59 399.33 152.89 424.00 C 131.93 424.00 110.97 424.01 90.01 423.99 C 114.70 399.32 139.42 374.67 164.12 350.00 C 139.42 325.33 114.70 300.68 90.01 276.01 Z" />
<path fill="#e66f00" opacity="1.00" d=" M 482.23 288.95 C 482.33 295.68 482.34 302.42 482.22 309.16 C 478.85 302.88 478.96 295.24 482.23 288.95 Z" />
</g>
<g id="#307fe1ff">
<path fill="#307fe1" opacity="1.00" d=" M 206.64 119.49 C 228.82 118.93 251.00 118.22 273.19 117.98 C 272.99 124.51 273.55 131.06 272.92 137.56 C 258.82 137.78 244.72 138.23 230.62 138.42 C 230.67 145.71 230.65 152.99 230.63 160.28 C 243.97 160.20 257.31 160.18 270.65 160.14 C 270.62 166.65 270.61 173.15 270.66 179.66 C 257.32 179.63 243.98 179.66 230.64 179.52 C 230.64 187.88 230.67 196.24 230.62 204.61 C 245.56 204.59 260.49 205.21 275.44 205.38 C 275.38 212.03 275.37 218.68 275.46 225.33 C 252.53 224.59 229.59 224.21 206.66 223.55 C 206.67 188.86 206.71 154.18 206.64 119.49 Z" />
<path fill="#307fe1" opacity="1.00" d=" M 166.51 120.44 C 175.24 120.30 183.99 120.29 192.71 119.67 C 183.16 136.50 173.72 153.41 164.10 170.20 C 173.95 187.97 184.23 205.50 194.07 223.29 C 185.27 223.02 176.47 222.71 167.67 222.59 C 161.67 210.25 155.67 197.92 149.70 185.57 C 144.81 197.76 139.28 209.67 133.95 221.67 C 125.72 221.52 117.49 221.29 109.26 221.14 C 118.50 204.41 127.68 187.65 136.98 170.96 C 128.05 154.63 119.09 138.33 110.29 121.93 C 118.56 121.72 126.82 121.53 135.09 121.34 C 140.52 133.01 146.09 144.62 151.17 156.44 C 155.67 144.19 161.13 132.33 166.51 120.44 Z" />
<path fill="#307fe1" opacity="1.00" d=" M 43.81 123.76 C 62.45 123.36 81.09 122.72 99.73 122.27 C 99.73 128.36 99.71 134.44 99.76 140.53 C 87.88 140.57 76.00 141.05 64.12 141.21 C 64.17 147.88 64.18 154.56 64.13 161.24 C 75.33 161.22 86.53 161.13 97.73 161.16 C 97.69 167.18 97.71 173.20 97.72 179.23 C 86.52 179.26 75.32 179.17 64.12 179.19 C 64.19 186.81 64.13 194.44 64.17 202.07 C 76.68 202.27 89.20 202.43 101.71 202.61 C 101.71 208.69 101.70 214.76 101.72 220.84 C 82.41 220.48 63.10 219.95 43.78 219.39 C 43.85 187.51 43.80 155.64 43.81 123.76 Z" />
</g>
</svg>
