<?xml version="1.0" encoding="UTF-8" ?>
<!DOCTYPE svg PUBLIC "-//W3C//DTD SVG 1.1//EN" "http://www.w3.org/Graphics/SVG/1.1/DTD/svg11.dtd">
<svg width="200pt" height="200pt" viewBox="0 0 200 200" version="1.1" xmlns="http://www.w3.org/2000/svg">
<g id="#000000ff">
<path fill="#000000" opacity="1.00" d=" M 99.92 0.00 L 99.92 0.00 C 128.69 16.97 157.82 33.34 186.61 50.27 C 186.63 83.41 186.59 116.54 186.63 149.68 C 157.98 166.74 128.74 182.90 100.11 200.00 L 100.06 200.00 C 71.31 183.00 42.13 166.70 13.39 149.69 C 13.43 116.55 13.40 83.42 13.41 50.29 C 41.60 33.79 69.98 17.61 98.23 1.21 C 98.65 0.91 99.50 0.30 99.92 0.00 M 66.29 27.08 C 77.39 33.44 88.37 40.03 99.29 46.71 C 110.86 40.08 122.68 33.69 134.14 26.96 C 122.70 20.53 111.35 13.92 100.02 7.29 C 88.90 14.05 77.17 20.19 66.29 27.08 M 22.86 52.00 C 34.00 58.23 45.07 64.62 56.04 71.15 C 68.12 64.09 80.41 57.39 92.58 50.48 C 93.36 49.82 95.27 49.96 94.80 48.51 C 83.72 42.40 72.94 35.69 62.08 29.17 C 49.11 36.94 35.81 44.25 22.86 52.00 M 103.75 48.89 C 104.24 49.27 105.23 50.03 105.72 50.41 C 117.80 57.74 130.07 64.75 142.06 72.22 C 153.73 65.42 165.41 58.58 177.21 51.99 C 164.28 44.38 151.19 36.91 138.17 29.41 C 126.83 36.12 115.22 42.44 103.75 48.89 M 60.46 73.24 L 60.79 73.78 C 73.85 81.38 87.02 88.80 100.02 96.52 C 112.57 89.01 125.41 81.98 137.94 74.43 C 124.93 66.87 112.11 58.77 99.03 51.47 C 86.27 58.90 73.36 66.05 60.46 73.24 M 19.72 57.19 C 19.89 72.48 19.61 87.79 19.86 103.07 C 30.81 109.43 41.85 115.67 52.89 121.88 C 52.82 106.78 53.19 91.37 52.70 76.29 C 41.72 69.90 30.67 63.63 19.72 57.19 M 145.76 77.20 C 145.29 92.01 145.80 106.95 145.50 121.81 C 157.10 115.28 168.79 108.74 180.28 101.96 C 180.32 87.04 180.20 72.12 180.34 57.20 C 168.85 63.92 157.29 70.54 145.76 77.20 M 57.03 78.97 C 57.19 93.97 57.27 108.99 56.99 123.99 C 57.25 124.21 57.78 124.66 58.04 124.88 C 71.03 132.15 83.89 139.69 96.91 146.90 C 96.95 131.98 96.73 117.00 97.01 102.06 C 83.86 94.14 70.45 86.41 57.03 78.97 M 103.10 102.13 C 103.22 116.73 103.16 131.33 103.13 145.93 C 115.92 138.67 128.85 131.53 141.46 124.00 C 141.47 109.25 141.36 94.49 141.52 79.74 C 128.81 87.07 115.54 94.31 103.10 102.13 M 145.99 126.31 L 145.54 126.98 C 145.58 140.10 145.65 153.23 145.51 166.35 C 157.03 159.67 169.02 153.17 180.29 146.05 C 180.28 132.94 180.24 119.82 180.31 106.70 C 168.98 113.42 157.46 119.82 145.99 126.31 M 19.71 107.71 C 19.83 120.48 19.72 133.25 19.77 146.02 L 20.27 146.65 C 31.20 152.85 42.01 159.32 52.98 165.42 C 52.67 152.48 53.32 139.38 52.65 126.54 C 41.66 120.27 30.60 114.14 19.71 107.71 M 57.12 129.15 C 57.16 142.04 57.15 154.93 57.12 167.82 C 70.25 175.61 83.59 183.09 96.76 190.82 C 97.10 177.99 96.72 165.01 96.95 152.13 C 96.39 150.97 94.90 150.79 93.94 150.06 C 81.66 143.11 69.43 136.04 57.12 129.15 M 103.42 150.56 L 103.17 151.14 C 103.14 164.39 103.16 177.64 103.16 190.88 C 115.88 183.48 128.67 176.18 141.39 168.76 C 141.53 155.49 141.38 142.22 141.46 128.95 C 128.80 136.12 116.12 143.39 103.42 150.56 Z" />
</g>
<g id="#b53cb1ff">
<path fill="#b53cb1" opacity="1.00" d=" M 66.29 27.08 C 77.17 20.19 88.90 14.05 100.02 7.29 C 111.35 13.92 122.70 20.53 134.14 26.96 C 122.68 33.69 110.86 40.08 99.29 46.71 C 88.37 40.03 77.39 33.44 66.29 27.08 Z" />
<path fill="#b53cb1" opacity="1.00" d=" M 145.76 77.20 C 157.29 70.54 168.85 63.92 180.34 57.20 C 180.20 72.12 180.32 87.04 180.28 101.96 C 168.79 108.74 157.10 115.28 145.50 121.81 C 145.80 106.95 145.29 92.01 145.76 77.20 Z" />
<path fill="#b53cb1" opacity="1.00" d=" M 57.03 78.97 C 70.45 86.41 83.86 94.14 97.01 102.06 C 96.73 117.00 96.95 131.98 96.91 146.90 C 83.89 139.69 71.03 132.15 58.04 124.88 C 57.78 124.66 57.25 124.21 56.99 123.99 C 57.27 108.99 57.19 93.97 57.03 78.97 Z" />
</g>
<g id="#30bbfeff">
<path fill="#30bbfe" opacity="1.00" d=" M 22.86 52.00 C 35.81 44.25 49.11 36.94 62.08 29.17 C 72.94 35.69 83.72 42.40 94.80 48.51 C 95.27 49.96 93.36 49.82 92.58 50.48 C 80.41 57.39 68.12 64.09 56.04 71.15 C 45.07 64.62 34.00 58.23 22.86 52.00 Z" />
<path fill="#30bbfe" opacity="1.00" d=" M 19.72 57.19 C 30.67 63.63 41.72 69.90 52.70 76.29 C 53.19 91.37 52.82 106.78 52.89 121.88 C 41.85 115.67 30.81 109.43 19.86 103.07 C 19.61 87.79 19.89 72.48 19.72 57.19 Z" />
<path fill="#30bbfe" opacity="1.00" d=" M 145.99 126.31 C 157.46 119.82 168.98 113.42 180.31 106.70 C 180.24 119.82 180.28 132.94 180.29 146.05 C 169.02 153.17 157.03 159.67 145.51 166.35 C 145.65 153.23 145.58 140.10 145.54 126.98 L 145.99 126.31 Z" />
</g>
<g id="#defe12ff">
<path fill="#defe12" opacity="1.00" d=" M 103.75 48.89 C 115.22 42.44 126.83 36.12 138.17 29.41 C 151.19 36.91 164.28 44.38 177.21 51.99 C 165.41 58.58 153.73 65.42 142.06 72.22 C 130.07 64.75 117.80 57.74 105.72 50.41 C 105.23 50.03 104.24 49.27 103.75 48.89 Z" />
<path fill="#defe12" opacity="1.00" d=" M 103.10 102.13 C 115.54 94.31 128.81 87.07 141.52 79.74 C 141.36 94.49 141.47 109.25 141.46 124.00 C 128.85 131.53 115.92 138.67 103.13 145.93 C 103.16 131.33 103.22 116.73 103.10 102.13 Z" />
<path fill="#defe12" opacity="1.00" d=" M 57.12 129.15 C 69.43 136.04 81.66 143.11 93.94 150.06 C 94.90 150.79 96.39 150.97 96.95 152.13 C 96.72 165.01 97.10 177.99 96.76 190.82 C 83.59 183.09 70.25 175.61 57.12 167.82 C 57.15 154.93 57.16 142.04 57.12 129.15 Z" />
</g>
<g id="#ff4900ff">
<path fill="#ff4900" opacity="1.00" d=" M 60.46 73.24 C 73.36 66.05 86.27 58.90 99.03 51.47 C 112.11 58.77 124.93 66.87 137.94 74.43 C 125.41 81.98 112.57 89.01 100.02 96.52 C 87.02 88.80 73.85 81.38 60.79 73.78 L 60.46 73.24 Z" />
<path fill="#ff4900" opacity="1.00" d=" M 19.71 107.71 C 30.60 114.14 41.66 120.27 52.65 126.54 C 53.32 139.38 52.67 152.48 52.98 165.42 C 42.01 159.32 31.20 152.85 20.27 146.65 L 19.77 146.02 C 19.72 133.25 19.83 120.48 19.71 107.71 Z" />
<path fill="#ff4900" opacity="1.00" d=" M 103.42 150.56 C 116.12 143.39 128.80 136.12 141.46 128.95 C 141.38 142.22 141.53 155.49 141.39 168.76 C 128.67 176.18 115.88 183.48 103.16 190.88 C 103.16 177.64 103.14 164.39 103.17 151.14 L 103.42 150.56 Z" />
</g>
</svg>
