<?xml version="1.0" encoding="UTF-8" standalone="no"?>
<!DOCTYPE svg PUBLIC "-//W3C//DTD SVG 1.1//EN" "http://www.w3.org/Graphics/SVG/1.1/DTD/svg11.dtd">
<svg width="100%" height="100%" viewBox="0 0 512 512" version="1.1" xmlns="http://www.w3.org/2000/svg" xmlns:xlink="http://www.w3.org/1999/xlink" xml:space="preserve" xmlns:serif="http://www.serif.com/" style="fill-rule:evenodd;clip-rule:evenodd;stroke-linecap:round;stroke-linejoin:round;stroke-miterlimit:1.5;">
    <g transform="matrix(0.897592,0,0,0.897592,26.2164,26.2164)">
        <rect x="0" y="0" width="512" height="512" style="fill:rgb(33,33,33);stroke:rgb(149,149,149);stroke-width:2.79px;"/>
    </g>
    <g transform="matrix(0.994213,0,0,0.980978,2.3533,3.83373)">
        <path d="M361.74,156.01C361.74,151.228 357.909,147.345 353.19,147.345L157.056,147.345C152.337,147.345 148.506,151.228 148.506,156.01L148.506,173.34C148.506,178.122 152.337,182.004 157.056,182.004L353.19,182.004C357.909,182.004 361.74,178.122 361.74,173.34L361.74,156.01Z" style="fill:rgb(75,174,79);"/>
    </g>
    <g transform="matrix(0.994213,0,0,0.980978,2.3533,63.9371)">
        <path d="M361.74,156.01C361.74,151.228 357.909,147.345 353.19,147.345L157.056,147.345C152.337,147.345 148.506,151.228 148.506,156.01L148.506,173.34C148.506,178.122 152.337,182.004 157.056,182.004L353.19,182.004C357.909,182.004 361.74,178.122 361.74,173.34L361.74,156.01Z" style="fill:rgb(75,174,79);"/>
    </g>
    <g transform="matrix(0.994213,0,0,0.980978,2.3533,123.82)">
        <path d="M361.74,156.01C361.74,151.228 357.909,147.345 353.19,147.345L157.056,147.345C152.337,147.345 148.506,151.228 148.506,156.01L148.506,173.34C148.506,178.122 152.337,182.004 157.056,182.004L353.19,182.004C357.909,182.004 361.74,178.122 361.74,173.34L361.74,156.01Z" style="fill:rgb(75,174,79);"/>
    </g>
    <g transform="matrix(0.994213,0,0,0.980978,2.3533,184.924)">
        <path d="M361.74,156.01C361.74,151.228 357.909,147.345 353.19,147.345L157.056,147.345C152.337,147.345 148.506,151.228 148.506,156.01L148.506,173.34C148.506,178.122 152.337,182.004 157.056,182.004L353.19,182.004C357.909,182.004 361.74,178.122 361.74,173.34L361.74,156.01Z" style="fill:rgb(75,174,79);"/>
    </g>
</svg>
