<?xml version="1.0" encoding="UTF-8" ?>
<!DOCTYPE svg PUBLIC "-//W3C//DTD SVG 1.1//EN" "http://www.w3.org/Graphics/SVG/1.1/DTD/svg11.dtd">
<svg width="512pt" height="505pt" viewBox="0 0 512 505" version="1.1" xmlns="http://www.w3.org/2000/svg">
<g id="#ccccccff">
<path fill="#cccccc" opacity="1.00" d=" M 0.00 0.00 L 511.37 0.00 C 511.52 4.70 510.22 9.34 510.71 14.06 C 510.73 174.71 510.71 335.35 510.72 496.00 C 510.92 499.01 509.62 502.59 512.06 505.00 L 509.98 505.00 C 509.85 504.91 509.58 504.72 509.45 504.63 L 509.56 505.00 L 2.87 505.00 C 1.35 500.14 1.80 495.00 1.79 489.99 C 1.79 331.65 1.81 173.32 1.79 14.98 C 1.82 12.22 1.79 9.46 1.57 6.71 C 1.40 8.15 1.25 9.59 1.20 11.03 C 1.23 170.34 1.19 329.66 1.21 488.97 C 1.20 494.32 0.80 499.78 2.27 505.00 L 0.00 505.00 L 0.00 0.00 M 138.74 75.78 C 101.69 97.55 71.81 131.27 54.76 170.72 C 33.81 218.54 32.28 274.43 50.46 323.35 C 63.01 357.47 84.89 388.09 113.06 411.08 C 149.54 441.10 196.70 457.87 243.96 457.41 C 300.57 457.33 357.20 457.59 413.81 457.28 C 413.61 443.13 413.71 428.99 413.76 414.84 C 360.84 414.72 307.93 414.82 255.01 414.79 C 244.12 414.70 233.14 415.19 222.35 413.40 C 190.15 409.52 159.34 395.39 135.15 373.82 C 110.31 351.90 92.43 322.19 84.87 289.92 C 77.61 259.64 79.37 227.27 89.87 197.95 C 101.26 165.78 123.17 137.48 151.38 118.29 C 177.59 100.28 209.23 90.31 241.03 90.08 C 270.13 90.01 299.22 90.08 328.32 90.05 C 328.32 75.87 328.30 61.69 328.33 47.51 C 297.88 47.50 267.44 47.43 236.99 47.55 C 202.56 48.38 168.36 58.19 138.74 75.78 M 140.49 149.47 C 116.04 173.60 100.61 206.70 98.16 240.99 C 94.67 282.62 110.08 325.89 140.26 354.98 C 140.30 325.98 140.27 296.99 140.28 267.99 C 140.35 258.32 139.93 248.61 141.21 239.00 C 144.35 213.80 157.49 190.07 176.98 173.83 C 194.98 158.58 218.37 150.05 241.94 149.83 C 271.63 149.83 301.33 149.72 331.02 149.88 C 360.41 150.52 389.18 164.53 407.66 187.40 C 422.57 205.39 430.87 228.63 430.95 251.98 C 431.00 320.46 430.97 388.93 430.97 457.41 C 445.16 457.41 459.35 457.41 473.54 457.41 C 473.48 389.12 473.54 320.84 473.51 252.55 C 460.01 252.57 446.51 252.71 433.02 252.45 C 446.51 252.40 460.00 252.47 473.49 252.45 C 473.79 219.86 462.29 187.43 441.98 161.99 C 422.06 136.91 393.67 118.66 362.48 111.28 C 350.54 108.36 338.22 107.17 325.95 107.23 C 297.63 107.22 269.31 107.19 241.00 107.25 C 203.70 107.56 166.78 122.99 140.49 149.47 M 209.73 173.72 C 190.10 181.87 173.82 197.73 165.10 217.12 C 160.04 228.35 157.29 240.67 157.52 253.01 C 157.60 291.95 157.34 330.90 157.65 369.84 C 170.68 379.04 184.84 386.76 200.13 391.45 C 200.16 344.98 200.11 298.51 200.15 252.05 C 200.07 240.33 205.39 228.81 214.00 220.94 C 221.55 213.89 231.75 209.88 242.05 209.61 C 270.83 209.53 299.61 209.74 328.38 209.51 C 328.23 195.34 328.36 181.17 328.31 167.00 C 298.90 167.01 269.49 166.99 240.08 167.01 C 229.69 167.53 219.30 169.58 209.73 173.72 Z" />
</g>
<g id="#5a5a5aff">
<path fill="#5a5a5a" opacity="1.00" d=" M 511.37 0.00 L 512.00 0.00 L 512.00 505.00 L 512.06 505.00 C 509.62 502.59 510.92 499.01 510.72 496.00 C 510.71 335.35 510.73 174.71 510.71 14.06 C 510.22 9.34 511.52 4.70 511.37 0.00 Z" />
<path fill="#5a5a5a" opacity="1.00" d=" M 1.20 11.03 C 1.25 9.59 1.40 8.15 1.57 6.71 C 1.79 9.46 1.82 12.22 1.79 14.98 C 1.81 173.32 1.79 331.65 1.79 489.99 C 1.80 495.00 1.35 500.14 2.87 505.00 L 2.27 505.00 C 0.80 499.78 1.20 494.32 1.21 488.97 C 1.19 329.66 1.23 170.34 1.20 11.03 Z" />
<path fill="#5a5a5a" opacity="1.00" d=" M 138.74 75.78 C 168.36 58.19 202.56 48.38 236.99 47.55 C 267.44 47.43 297.88 47.50 328.33 47.51 C 328.30 61.69 328.32 75.87 328.32 90.05 C 299.22 90.08 270.13 90.01 241.03 90.08 C 209.23 90.31 177.59 100.28 151.38 118.29 C 123.17 137.48 101.26 165.78 89.87 197.95 C 79.37 227.27 77.61 259.64 84.87 289.92 C 92.43 322.19 110.31 351.90 135.15 373.82 C 159.34 395.39 190.15 409.52 222.35 413.40 C 233.14 415.19 244.12 414.70 255.01 414.79 C 307.93 414.82 360.84 414.72 413.76 414.84 C 413.71 428.99 413.61 443.13 413.81 457.28 C 357.20 457.59 300.57 457.33 243.96 457.41 C 196.70 457.87 149.54 441.10 113.06 411.08 C 84.89 388.09 63.01 357.47 50.46 323.35 C 32.28 274.43 33.81 218.54 54.76 170.72 C 71.81 131.27 101.69 97.55 138.74 75.78 Z" />
<path fill="#5a5a5a" opacity="1.00" d=" M 140.49 149.47 C 166.78 122.99 203.70 107.56 241.00 107.25 C 269.31 107.19 297.63 107.22 325.95 107.23 C 338.22 107.17 350.54 108.36 362.48 111.28 C 393.67 118.66 422.06 136.91 441.98 161.99 C 462.29 187.43 473.79 219.86 473.49 252.45 C 460.00 252.47 446.51 252.40 433.02 252.45 C 446.51 252.71 460.01 252.57 473.51 252.55 C 473.54 320.84 473.48 389.12 473.54 457.41 C 459.35 457.41 445.16 457.41 430.97 457.41 C 430.97 388.93 431.00 320.46 430.95 251.98 C 430.87 228.63 422.57 205.39 407.66 187.40 C 389.18 164.53 360.41 150.52 331.02 149.88 C 301.33 149.72 271.63 149.83 241.94 149.83 C 218.37 150.05 194.98 158.58 176.98 173.83 C 157.49 190.07 144.35 213.80 141.21 239.00 C 139.93 248.61 140.35 258.32 140.28 267.99 C 140.27 296.99 140.30 325.98 140.26 354.98 C 110.08 325.89 94.67 282.62 98.16 240.99 C 100.61 206.70 116.04 173.60 140.49 149.47 Z" />
<path fill="#5a5a5a" opacity="1.00" d=" M 209.73 173.72 C 219.30 169.58 229.69 167.53 240.08 167.01 C 269.49 166.99 298.90 167.01 328.31 167.00 C 328.36 181.17 328.23 195.34 328.38 209.51 C 299.61 209.74 270.83 209.53 242.05 209.61 C 231.75 209.88 221.55 213.89 214.00 220.94 C 205.39 228.81 200.07 240.33 200.15 252.05 C 200.11 298.51 200.16 344.98 200.13 391.45 C 184.84 386.76 170.68 379.04 157.65 369.84 C 157.34 330.90 157.60 291.95 157.52 253.01 C 157.29 240.67 160.04 228.35 165.10 217.12 C 173.82 197.73 190.10 181.87 209.73 173.72 Z" />
<path fill="#5a5a5a" opacity="1.00" d=" M 509.45 504.63 C 509.58 504.72 509.85 504.91 509.98 505.00 L 509.56 505.00 L 509.45 504.63 Z" />
</g>
</svg>
