<?xml version="1.0" encoding="UTF-8" standalone="no"?><!DOCTYPE svg PUBLIC "-//W3C//DTD SVG 1.1//EN" "http://www.w3.org/Graphics/SVG/1.1/DTD/svg11.dtd"><svg width="100%" height="100%" viewBox="0 0 512 512" version="1.1" xmlns="http://www.w3.org/2000/svg" xmlns:xlink="http://www.w3.org/1999/xlink" xml:space="preserve" xmlns:serif="http://www.serif.com/" style="fill-rule:evenodd;clip-rule:evenodd;stroke-linejoin:round;stroke-miterlimit:2;"><path d="M512,92.305c0,-50.944 -41.361,-92.305 -92.305,-92.305l-327.39,0c-50.944,0 -92.305,41.361 -92.305,92.305l0,327.39c0,50.944 41.361,92.305 92.305,92.305l327.39,0c50.944,0 92.305,-41.361 92.305,-92.305l0,-327.39Z" style="fill:#c3c3c3;"/><g id="Rocket"><path id="_-0068afff" serif:id="#0068afff" d="M391.703,49.638c17.841,-3.498 36.031,-4.937 54.192,-5.117c8.61,-0.005 17.226,-0.08 25.836,0.135c0.115,17.935 0.41,35.921 -1.384,53.791c-1.809,19.71 -5.832,39.235 -12.204,57.985c-10.264,30.424 -26.551,58.564 -46.09,83.946c-20.839,27.076 -45.242,51.238 -71.233,73.341c-14.457,12.279 -29.45,23.928 -44.806,35.057c-0.725,0.41 -1.25,1.154 -2.074,1.359c0.404,-4.817 -0.89,-9.905 -4.163,-13.548c-2.569,-2.908 -6.462,-4.347 -10.27,-4.507c-6.641,-0.31 -13.093,1.909 -19.035,4.667c-9.145,4.333 -17.416,10.35 -24.872,17.151c-7.031,6.527 -13.393,13.878 -18.155,22.239c-4.268,7.606 -7.496,16.661 -5.148,25.406c-17.715,-10.099 -34.102,-22.508 -49.044,-36.376c14.608,-14.257 28.84,-28.899 42.453,-44.116c6.282,-7.082 12.473,-14.258 18.225,-21.774c2.469,-3.263 4.893,-6.577 6.917,-10.135c0.714,-1.349 1.484,-2.738 1.644,-4.277c0.165,-0.805 -0.67,-1.56 -1.444,-1.325c-2.699,0.49 -4.988,2.144 -7.282,3.548c-8,5.348 -15.347,11.589 -22.653,17.831c-17.461,15.202 -34.137,31.289 -50.308,47.85c-13.583,-14.273 -25.547,-30.124 -35.382,-47.205c-0.529,-1.02 -1.239,-1.954 -1.614,-3.044c5.732,1.14 11.674,0.185 17.076,-1.919c7.831,-3.003 14.802,-7.876 21.124,-13.328c8.366,-7.356 15.702,-15.911 21.519,-25.416c3.973,-6.597 7.386,-13.718 8.615,-21.379c0.595,-4.193 0.48,-8.726 -1.659,-12.499c-2.678,-4.767 -8.266,-7.241 -13.563,-7.431c22.473,-31.113 47.151,-60.758 74.906,-87.314c26.551,-25.257 56.176,-47.7 89.348,-63.532c19.23,-9.185 39.594,-16.031 60.528,-20.064m-13.742,15.837c8.54,12.548 18.31,24.242 28.794,35.211c13.293,13.853 27.931,26.416 43.683,37.401l0.414,-0.035c4.778,-15.272 7.761,-31.099 8.786,-47.071c0.849,-11.599 0.614,-23.238 0.579,-34.856c-6.761,-0.1 -13.527,-0.14 -20.289,-0.07c-20.964,0.159 -41.978,2.993 -61.967,9.42m-42.383,53.097c-13.683,1.524 -26.676,8.395 -35.657,18.835c-11.588,13.158 -16.196,31.988 -12.193,49.034c3.613,16.502 15.282,30.949 30.609,38.035c11.504,5.422 24.887,6.722 37.23,3.653c17.676,-4.183 32.778,-17.665 38.935,-34.751c6.317,-16.867 3.838,-36.731 -6.597,-51.438c-6.126,-8.736 -14.792,-15.697 -24.707,-19.66c-8.695,-3.543 -18.3,-4.823 -27.62,-3.708Z" style="fill:#0068af;fill-rule:nonzero;"/><g id="_-ffffffff" serif:id="#ffffffff"><path d="M377.961,65.475c19.989,-6.427 41.003,-9.261 61.967,-9.42c6.762,-0.07 13.528,-0.03 20.289,0.07c0.035,11.618 0.27,23.257 -0.579,34.856c-1.025,15.972 -4.008,31.799 -8.786,47.071l-0.414,0.035c-15.752,-10.985 -30.39,-23.548 -43.683,-37.401c-10.484,-10.969 -20.254,-22.663 -28.794,-35.211Z" style="fill:#fff;fill-rule:nonzero;"/><path d="M335.578,118.572c9.32,-1.115 18.925,0.165 27.62,3.708c9.915,3.963 18.581,10.924 24.707,19.66c10.435,14.707 12.914,34.571 6.597,51.438c-6.157,17.086 -21.259,30.568 -38.935,34.751c-12.343,3.069 -25.726,1.769 -37.23,-3.653c-15.327,-7.086 -26.996,-21.533 -30.609,-38.035c-4.003,-17.046 0.605,-35.876 12.193,-49.034c8.981,-10.44 21.974,-17.311 35.657,-18.835m1.659,9.725c-13.713,1.354 -26.561,9.3 -33.877,20.974c-8.516,13.168 -9.495,30.749 -2.564,44.806c4.828,9.995 13.403,18.141 23.693,22.328c8.29,3.474 17.605,4.298 26.421,2.654c9.955,-1.864 19.225,-7.181 25.851,-14.842c5.517,-6.282 9.25,-14.123 10.64,-22.373c1.779,-10.035 0.07,-20.65 -4.758,-29.62c-4.563,-8.555 -11.919,-15.587 -20.684,-19.74c-7.646,-3.653 -16.306,-5.037 -24.722,-4.187Z" style="fill:#fff;fill-rule:nonzero;"/></g><g id="_-f47a1eff" serif:id="#f47a1eff"><path d="M337.237,128.297c8.416,-0.85 17.076,0.534 24.722,4.187c8.765,4.153 16.121,11.185 20.684,19.74c4.828,8.97 6.537,19.585 4.758,29.62c-1.39,8.25 -5.123,16.091 -10.64,22.373c-6.626,7.661 -15.896,12.978 -25.851,14.842c-8.816,1.644 -18.131,0.82 -26.421,-2.654c-10.29,-4.187 -18.865,-12.333 -23.693,-22.328c-6.931,-14.057 -5.952,-31.638 2.564,-44.806c7.316,-11.674 20.164,-19.62 33.877,-20.974Z" style="fill:#f47a1e;fill-rule:nonzero;"/><path d="M142.624,226.91c7.721,-3.228 15.797,-6.432 24.297,-6.362c5.297,0.19 10.885,2.664 13.563,7.431c2.139,3.773 2.254,8.306 1.659,12.499c-1.229,7.661 -4.642,14.782 -8.615,21.379c-5.817,9.505 -13.153,18.06 -21.519,25.416c-6.322,5.452 -13.293,10.325 -21.124,13.328c-5.402,2.104 -11.344,3.059 -17.076,1.919c-17.051,-4.552 -35.436,-2.239 -51.623,4.443c-10.294,4.168 -19.849,10.01 -28.63,16.786c-2.963,2.124 -6.192,4.223 -9.905,4.638c-1.199,0.06 -2.608,-0.405 -3.093,-1.604c-0.62,-1.63 -0.02,-3.384 0.57,-4.923c1.564,-3.718 4.048,-6.951 6.596,-10.035c6.112,-7.171 13.013,-13.612 19.995,-19.909c15.017,-13.318 30.879,-25.672 47.35,-37.141c15.132,-10.429 30.744,-20.339 47.555,-27.865Z" style="fill:#f47a1e;fill-rule:nonzero;"/><path d="M223.766,287.088c2.294,-1.404 4.583,-3.058 7.282,-3.548c0.774,-0.235 1.609,0.52 1.444,1.325c-0.16,1.539 -0.93,2.928 -1.644,4.277c-2.024,3.558 -4.448,6.872 -6.917,10.135c-5.752,7.516 -11.943,14.692 -18.225,21.774c-13.613,15.217 -27.845,29.859 -42.453,44.116c-12.898,12.544 -26.091,24.807 -39.929,36.311c-4.707,3.848 -9.47,7.651 -14.522,11.045c-2.064,1.339 -4.153,2.693 -6.472,3.558c-0.704,0.135 -1.564,0.669 -2.219,0.14c-1.069,-0.53 -0.399,-1.864 -0.17,-2.704c1.64,-4.008 4.288,-7.491 6.797,-10.984c13.413,-17.666 28.69,-33.817 44.067,-49.764c16.171,-16.561 32.847,-32.648 50.308,-47.85c7.306,-6.242 14.653,-12.483 22.653,-17.831Z" style="fill:#f47a1e;fill-rule:nonzero;"/><path d="M260.472,336.747c5.942,-2.758 12.394,-4.977 19.035,-4.667c3.808,0.16 7.701,1.599 10.27,4.507c3.273,3.643 4.567,8.731 4.163,13.548c-0.72,8.736 -4.153,16.956 -7.736,24.857c-7.266,15.417 -16.432,29.855 -26.082,43.872c-9.43,13.583 -19.494,26.731 -30.159,39.375c-7.936,9.32 -16.141,18.455 -25.217,26.686c-3.982,3.428 -8.115,6.956 -13.133,8.74c-1.579,0.515 -3.723,0.885 -4.907,-0.59c-1.13,-1.774 -0.38,-4.003 0.305,-5.802c1.814,-4.542 5.257,-8.115 7.946,-12.123c10.074,-14.443 17.49,-31.149 19.065,-48.825c0.754,-8.28 0.179,-16.686 -1.725,-24.782c-2.348,-8.745 0.88,-17.8 5.148,-25.406c4.762,-8.361 11.124,-15.712 18.155,-22.239c7.456,-6.801 15.727,-12.818 24.872,-17.151Z" style="fill:#f47a1e;fill-rule:nonzero;"/><path d="M97.188,363.793c8.36,-10.979 17.551,-21.289 26.891,-31.433c3.163,4.342 6.386,8.67 9.955,12.693c0.02,0.585 -0.635,0.82 -0.97,1.204c-7.626,6.897 -15.317,13.738 -23.343,20.175c-5.067,3.988 -10.134,8.066 -15.831,11.129c-1.28,0.555 -2.679,1.429 -4.123,1.004c-1.025,-0.769 -0.34,-2.178 -0.01,-3.133c1.879,-4.228 4.707,-7.936 7.431,-11.639Z" style="fill:#f47a1e;fill-rule:nonzero;"/><path d="M165.222,387.965c1.924,-2.053 3.678,-4.342 5.792,-6.166c4.103,3.548 8.481,6.771 12.843,9.984c-7.92,7.192 -15.871,14.368 -24.172,21.124c-5.387,4.338 -10.804,8.706 -16.806,12.184c-1.594,0.76 -3.328,1.999 -5.177,1.449c-0.76,-0.734 -0.32,-1.874 -0.04,-2.718c1.419,-3.494 3.663,-6.572 5.822,-9.635c6.716,-9.165 14.172,-17.761 21.738,-26.222Z" style="fill:#f47a1e;fill-rule:nonzero;"/></g></g></svg>