<?xml version="1.0" encoding="UTF-8" standalone="no"?>
<!DOCTYPE svg PUBLIC "-//W3C//DTD SVG 1.1//EN" "http://www.w3.org/Graphics/SVG/1.1/DTD/svg11.dtd">
<svg version="1.1" xmlns="http://www.w3.org/2000/svg" xmlns:xlink="http://www.w3.org/1999/xlink" preserveAspectRatio="xMidYMid meet" viewBox="0 0 640 640" width="512" height="512"><defs><path d="M587.92 0C616.68 0 640 23.32 640 52.08C640 169.67 640 470.33 640 587.92C640 616.68 616.68 640 587.92 640C470.33 640 169.67 640 52.08 640C23.32 640 0 616.68 0 587.92C0 470.33 0 169.67 0 52.08C0 23.32 23.32 0 52.08 0C169.67 0 470.33 0 587.92 0Z" id="d43wjQ3HxW"></path><path d="M508.18 130.18C506.7 121.42 499.41 114.81 490.55 114.19C454.96 111.71 363.21 105.3 327.6 102.81C318.13 102.15 308.88 105.86 302.5 112.88C253.48 166.74 115.5 318.36 66.22 372.5C61.35 377.86 61.75 386.15 67.11 391C110.21 430.02 228.24 536.89 270.96 575.57C277.4 581.39 287.34 580.91 293.18 574.48C342.11 520.63 477.37 371.77 526.07 318.19C533.49 310.02 536.75 298.89 534.91 288C529.06 253.45 514.11 165.19 508.18 130.18Z" id="fayEFOIgi"></path><path d="M75.67 29.49C73.58 27.59 70.34 27.73 68.42 29.81C60.1 38.8 38.61 62.04 30.29 71.03C28.37 73.11 28.48 76.34 30.53 78.28C37.49 84.85 54.65 101.03 61.61 107.59C63.65 109.51 66.87 109.39 68.76 107.31C77.12 98.11 98.78 74.26 107.14 65.06C109.04 62.97 108.89 59.74 106.8 57.84C99.82 51.48 82.65 35.85 75.67 29.49Z" id="boTxz4KeQ"></path><path d="M476.32 187.01C476.32 206.36 460.61 222.07 441.26 222.07C421.91 222.07 406.2 206.36 406.2 187.01C406.2 167.66 421.91 151.95 441.26 151.95C460.61 151.95 476.32 167.66 476.32 187.01Z" id="bmAD6Z5kF"></path><path d="M352.71 333.82C354.42 333.95 355.79 332.42 355.49 330.73C353.69 320.79 349.45 297.28 347.79 288.08C346.97 283.5 344.68 279.32 341.27 276.15C295.99 234.07 165.14 112.46 119.79 70.32C117.09 67.81 112.86 68 110.39 70.74C102.28 79.78 82.03 102.31 73.81 111.44C71.59 113.92 71.78 117.72 74.23 119.96C120.17 162 253.27 283.81 299.14 325.79C302.23 328.62 306.19 330.33 310.37 330.64C319.51 331.33 342.95 333.09 352.71 333.82Z" id="bi7x4X0Bz"></path></defs><g><g><g><use xlink:href="#d43wjQ3HxW" opacity="1" fill="#7c7e7a" fill-opacity="1"></use><g><use xlink:href="#d43wjQ3HxW" opacity="1" fill-opacity="0" stroke="#caf6cf" stroke-width="0" stroke-opacity="1"></use></g></g><g><use xlink:href="#fayEFOIgi" opacity="1" fill="#de9c1d" fill-opacity="1"></use><g><use xlink:href="#fayEFOIgi" opacity="1" fill-opacity="0" stroke="#caf6cf" stroke-width="0" stroke-opacity="1"></use></g></g><g><use xlink:href="#boTxz4KeQ" opacity="1" fill="#2e2f2f" fill-opacity="1"></use><g><use xlink:href="#boTxz4KeQ" opacity="1" fill-opacity="0" stroke="#caf6cf" stroke-width="0" stroke-opacity="1"></use></g></g><g><use xlink:href="#bmAD6Z5kF" opacity="1" fill="#7c7e7a" fill-opacity="1"></use></g><g><use xlink:href="#bi7x4X0Bz" opacity="1" fill="#2e2f2f" fill-opacity="1"></use><g><use xlink:href="#bi7x4X0Bz" opacity="1" fill-opacity="0" stroke="#caf6cf" stroke-width="0" stroke-opacity="1"></use></g></g></g></g></svg>