<?xml version="1.0" encoding="UTF-8" standalone="no"?>
<!DOCTYPE svg PUBLIC "-//W3C//DTD SVG 1.1//EN" "http://www.w3.org/Graphics/SVG/1.1/DTD/svg11.dtd">
<svg width="100%" height="100%" viewBox="0 0 512 512" version="1.1" xmlns="http://www.w3.org/2000/svg" xmlns:xlink="http://www.w3.org/1999/xlink" xml:space="preserve" xmlns:serif="http://www.serif.com/" style="fill-rule:evenodd;clip-rule:evenodd;">
    <g transform="matrix(0.960938,0,0,0.960938,256,256)">
        <g id="new-logo-512.svg" transform="matrix(1,0,0,1,-256,-256)">
            <clipPath id="_clip1">
                <rect x="0" y="0" width="512" height="512"/>
            </clipPath>
            <g clip-path="url(#_clip1)">
                <path d="M163.1,79C197.4,59.4 237.6,50.2 277,53C312.8,55.3 347.8,67.6 377.3,87.8C387.8,82.7 398.3,77.7 408.8,72.6C413.1,70.4 418,71.3 422.4,72.4C432,75 441.2,79 449.4,84.6C464.6,94.9 476.3,109.2 487.4,123.6C495.3,134.1 500,146.5 504.2,158.9C507.9,171.2 511.1,183.7 512,196.5L512,200.5C511.8,209.4 510.5,218.2 507.4,226.6C503.9,239 494,249 482.7,254.7C476.9,258 471.1,261.3 465.4,264.5C463.5,304.6 449.4,344.1 425.2,376.1C402.1,407 370,431.2 333.9,444.6C284,463.5 226.6,461.4 178.2,438.8C170.2,435.1 162.5,430.8 155,426.1C145.1,431.1 134.8,435.5 125.1,441C117.7,444.7 109.2,446.2 101,445.1C86.2,443.3 72.6,436.1 60.9,427.2C38.8,410 22,386.6 11.2,360.9C4.9,345.7 0.9,329.6 0,313.2L0,305.8C0.5,287.8 6.9,267.7 23.3,258.2C35.8,251.7 48.5,246.1 61.1,239.9C63,214.8 69.6,190 80.5,167.4C98.3,130.5 127.5,99.2 163.1,79M243.6,66.9C227.1,68.6 210.8,72.5 195.8,79.6C186.1,84.3 176.7,90.5 170.5,99.5C166,105.9 164,114.2 166.2,121.8C168.9,131.5 176.5,138.9 184.6,144.4C196.7,152.6 210.8,157.4 224.9,160.6C238.4,163.3 252.2,165.1 266,163.9C287.8,163.5 310,159.9 329.9,150.6C340.2,145.4 350.6,138.8 356.6,128.6C361.1,121.1 361.7,111.4 357.5,103.6C351.6,91.8 339.9,84.4 328.3,78.8C301.9,67 272.2,64.2 243.6,66.9M411.7,78.8C402.3,83.3 392.8,87.8 383.4,92.4C411.2,113 433.5,140.8 447.5,172.3C459.4,198.8 465.4,227.8 465.2,256.8C471.9,252.9 478.7,249.2 485.4,245.3C488.8,242.8 491.8,239.8 494.6,236.6C499.7,230.8 501.5,223.1 503.5,215.9C507.6,198.9 503.6,181.4 498.8,164.9C494.3,150.7 489.3,136.1 479.5,124.5C468.5,110.4 456.5,96.3 440.8,87.2C434.3,83.5 427.4,80.7 420.2,78.8C417.4,78.3 414.3,77.4 411.7,78.8M85.2,236C73.5,241.5 61.9,247.2 50.2,252.7C71.4,255.2 89.8,267.7 104.7,282.3C126.9,304.6 142.8,333.3 149.3,364.1C153.4,384 153.5,406.1 143.1,424.2C155.7,418.1 168.4,412.1 181,405.9C190,400.2 195.1,390 197.5,379.9C201.5,362.4 199,344 193.8,327C184.9,298.7 168.4,272.5 145.7,253.3C135.6,244.9 124,237.9 111.2,234.7C102.6,232.7 93.3,232.4 85.2,236M404.2,236.2C384,238.7 366.8,251.6 353.1,266C338.7,281.4 327.6,299.8 320.4,319.5C314.5,336.1 311.2,354 313.7,371.5C315.5,382.5 320,393.9 329.3,400.8C338.1,407.6 350.2,408.4 360.8,405.8C375.7,402.1 388.7,393.1 399.8,382.8C415,368.3 426.8,350.5 435.1,331.2C442.2,314.2 446.7,295.6 445.4,277C444.4,265.5 441,253.6 432.7,245.3C425.3,237.9 414.4,235 404.2,236.2M39.5,259.7C27,261.2 16.4,270.4 11.8,281.9C4.5,299.7 6.2,319.9 10.8,338.2C19.1,368.4 36.1,396.6 60,417C70.4,425.8 82.5,433.2 95.8,436.3C104.3,438.2 113.6,438.2 121.6,434.6C130.4,430.8 137.1,423 140.4,414.1C148.2,394.2 145.3,371.8 139.1,351.8C129.4,322.1 111.5,294.5 86.4,275.5C73,265.6 56.5,257.6 39.5,259.7Z" style="fill:rgb(246,206,46);fill-rule:nonzero;stroke:rgb(246,206,46);stroke-width:0.09px;"/>
            </g>
        </g>
        <g id="new-logo-512.svg1" serif:id="new-logo-512.svg">
        </g>
    </g>
</svg>
