<?xml version="1.0" encoding="UTF-8" ?>
<!DOCTYPE svg PUBLIC "-//W3C//DTD SVG 1.1//EN" "http://www.w3.org/Graphics/SVG/1.1/DTD/svg11.dtd">
<svg width="512pt" height="512pt" viewBox="0 0 512 512" version="1.1" xmlns="http://www.w3.org/2000/svg">
<g id="#ed1c24ff">
<path fill="#ed1c24" opacity="1.00" d=" M 46.13 135.21 C 116.08 94.78 186.10 54.46 256.02 13.96 C 325.94 54.43 395.95 94.75 465.92 135.16 C 465.82 216.01 465.86 296.86 465.90 377.72 C 395.95 418.14 325.93 458.45 256.01 498.92 C 230.93 484.24 205.67 469.86 180.59 455.20 C 180.69 374.40 180.70 293.59 180.58 212.80 C 205.66 198.11 230.93 183.73 256.02 169.06 C 281.15 183.73 306.44 198.11 331.56 212.81 C 331.31 235.83 331.59 258.86 331.42 281.89 C 306.24 296.49 281.07 311.12 255.97 325.86 C 256.25 352.65 256.06 379.46 256.14 406.25 C 304.50 378.17 352.89 350.15 401.26 322.08 C 401.29 272.26 401.11 222.45 401.35 172.64 C 353.07 144.31 304.37 116.67 256.02 88.46 C 207.74 116.52 159.36 144.40 110.99 172.30 C 110.74 253.22 110.93 334.15 110.90 415.08 C 89.33 402.65 67.81 390.12 46.20 377.75 C 46.11 296.91 46.25 216.06 46.13 135.21 Z" />
</g>
</svg>
