<?xml version="1.0" encoding="UTF-8" standalone="no"?>
<!DOCTYPE svg PUBLIC "-//W3C//DTD SVG 1.1//EN" "http://www.w3.org/Graphics/SVG/1.1/DTD/svg11.dtd">
<svg width="100%" height="100%" viewBox="0 0 512 512" version="1.1" xmlns="http://www.w3.org/2000/svg" xmlns:xlink="http://www.w3.org/1999/xlink" xml:space="preserve" xmlns:serif="http://www.serif.com/" style="fill-rule:evenodd;clip-rule:evenodd;stroke-linejoin:round;stroke-miterlimit:2;">
    <g transform="matrix(1.05215,0,0,1.04703,0,0)">
        <path d="M489,122.25C489,54.778 434.488,0 367.345,0L121.655,0C54.512,0 0,54.778 0,122.25L0,366.75C0,434.222 54.512,489 121.655,489L367.345,489C434.488,489 489,434.222 489,366.75L489,122.25Z" style="fill:rgb(31,176,220);"/>
    </g>
    <g transform="matrix(1.61896,0,0,1.59259,-150.189,-107.725)">
        <g transform="matrix(0.963115,0,0,0.98646,8.04814,3.30284)">
            <rect x="184.525" y="139.113" width="43.289" height="183.444" style="fill:rgb(235,235,235);"/>
        </g>
        <path d="M252.141,177.325L276.642,177.325C286.054,177.325 293.694,184.966 293.694,194.377C293.694,203.788 286.054,211.429 276.642,211.429L252.141,211.429L252.141,250.596L276.642,250.596C307.67,250.596 332.861,225.405 332.861,194.377C332.861,163.349 307.67,138.158 276.642,138.158L252.141,138.158L252.141,177.325Z" style="fill:white;"/>
    </g>
</svg>
