<?xml version="1.0" encoding="UTF-8" standalone="no"?>
<!DOCTYPE svg PUBLIC "-//W3C//DTD SVG 1.1//EN" "http://www.w3.org/Graphics/SVG/1.1/DTD/svg11.dtd">
<svg width="100%" height="100%" viewBox="0 0 512 512" version="1.1" xmlns="http://www.w3.org/2000/svg" xmlns:xlink="http://www.w3.org/1999/xlink" xml:space="preserve" xmlns:serif="http://www.serif.com/" style="fill-rule:evenodd;clip-rule:evenodd;stroke-linecap:round;stroke-linejoin:bevel;stroke-miterlimit:1.5;">
    <g>
        <g id="Factory">
            <g transform="matrix(1.21392,0,0,1.06307,-96.5908,-11.2038)">
                <path d="M474.391,177.645L339.343,177.645L365.696,10.539L448.038,10.539L474.391,177.645Z" style="fill:rgb(89,89,89);"/>
            </g>
            <g transform="matrix(1.02147,0,0,1,-10.9905,6)">
                <rect x="10.76" y="171.645" width="501.24" height="332.639" style="fill:rgb(115,115,115);"/>
            </g>
            <g transform="matrix(1.08494,0,0,1.10465,-49.2576,-14.0064)">
                <path d="M120.749,112.339L120.749,173.495L45.401,173.495L120.749,112.339Z" style="fill:rgb(89,89,89);"/>
            </g>
            <g transform="matrix(1.08494,0,0,1.10465,32.4897,-14.0064)">
                <path d="M120.749,112.339L120.749,173.495L45.401,173.495L120.749,112.339Z" style="fill:rgb(89,89,89);"/>
            </g>
            <g transform="matrix(1.08494,0,0,1.10465,114.237,-14.0064)">
                <path d="M120.749,112.339L120.749,173.495L45.401,173.495L120.749,112.339Z" style="fill:rgb(89,89,89);"/>
            </g>
        </g>
        <g transform="matrix(0.924987,0,0,0.924987,19,104.003)">
            <g>
                <path d="M256,221.635L256,264.049" style="fill:none;stroke:black;stroke-width:8.65px;"/>
                <path d="M110,306.634L110,264.049L256,264.049" style="fill:none;stroke:black;stroke-width:8.65px;"/>
                <path d="M402,306.634L402,264.049L256,264.049" style="fill:none;stroke:black;stroke-width:8.65px;"/>
            </g>
            <g transform="matrix(0.931852,0,0,1.0391,-35.4849,239.245)">
                <path d="M274.169,83.791C274.169,73.339 264.707,64.853 253.052,64.853L59.197,64.853C47.542,64.853 38.08,73.339 38.08,83.791L38.08,161.4C38.08,171.852 47.542,180.338 59.197,180.338L253.052,180.338C264.707,180.338 274.169,171.852 274.169,161.4L274.169,83.791Z" style="fill:rgb(158,0,43);"/>
                <path d="M274.169,83.791C274.169,73.339 264.707,64.853 253.052,64.853L59.197,64.853C47.542,64.853 38.08,73.339 38.08,83.791L38.08,161.4C38.08,171.852 47.542,180.338 59.197,180.338L253.052,180.338C264.707,180.338 274.169,171.852 274.169,161.4L274.169,83.791ZM264.888,83.791L264.888,161.4C264.888,167.258 259.584,172.014 253.052,172.014C253.052,172.014 59.197,172.014 59.197,172.014C52.665,172.014 47.361,167.258 47.361,161.4L47.361,83.791C47.361,77.933 52.665,73.177 59.197,73.177C59.197,73.177 253.052,73.177 253.052,73.177C259.584,73.177 264.888,77.933 264.888,83.791Z" style="fill:rgb(250,171,51);"/>
            </g>
            <g transform="matrix(0.931852,0,0,1.0391,110.515,34.2454)">
                <path d="M274.169,83.791C274.169,73.339 264.707,64.853 253.052,64.853L59.197,64.853C47.542,64.853 38.08,73.339 38.08,83.791L38.08,161.4C38.08,171.852 47.542,180.338 59.197,180.338L253.052,180.338C264.707,180.338 274.169,171.852 274.169,161.4L274.169,83.791Z" style="fill:rgb(158,0,43);"/>
                <path d="M274.169,83.791C274.169,73.339 264.707,64.853 253.052,64.853L59.197,64.853C47.542,64.853 38.08,73.339 38.08,83.791L38.08,161.4C38.08,171.852 47.542,180.338 59.197,180.338L253.052,180.338C264.707,180.338 274.169,171.852 274.169,161.4L274.169,83.791ZM264.888,83.791L264.888,161.4C264.888,167.258 259.584,172.014 253.052,172.014L59.197,172.014C52.665,172.014 47.361,167.258 47.361,161.4L47.361,83.791C47.361,77.933 52.665,73.177 59.197,73.177L253.052,73.177C259.584,73.177 264.888,77.933 264.888,83.791Z" style="fill:rgb(250,171,51);"/>
            </g>
            <g transform="matrix(0.931852,0,0,1.0391,256.515,239.245)">
                <path d="M274.169,83.791C274.169,73.339 264.707,64.853 253.052,64.853L59.197,64.853C47.542,64.853 38.08,73.339 38.08,83.791L38.08,161.4C38.08,171.852 47.542,180.338 59.197,180.338L253.052,180.338C264.707,180.338 274.169,171.852 274.169,161.4L274.169,83.791Z" style="fill:rgb(158,0,43);"/>
                <path d="M274.169,83.791C274.169,73.339 264.707,64.853 253.052,64.853L59.197,64.853C47.542,64.853 38.08,73.339 38.08,83.791L38.08,161.4C38.08,171.852 47.542,180.338 59.197,180.338L253.052,180.338C264.707,180.338 274.169,171.852 274.169,161.4L274.169,83.791ZM264.888,83.791L264.888,161.4C264.888,167.258 259.584,172.014 253.052,172.014C253.052,172.014 59.197,172.014 59.197,172.014C52.665,172.014 47.361,167.258 47.361,161.4L47.361,83.791C47.361,77.933 52.665,73.177 59.197,73.177C59.197,73.177 253.052,73.177 253.052,73.177C259.584,73.177 264.888,77.933 264.888,83.791Z" style="fill:rgb(250,171,51);"/>
            </g>
        </g>
    </g>
</svg>
