<?xml version="1.0" encoding="UTF-8" standalone="no"?><!DOCTYPE svg PUBLIC "-//W3C//DTD SVG 1.1//EN" "http://www.w3.org/Graphics/SVG/1.1/DTD/svg11.dtd"><svg width="100%" height="100%" viewBox="0 0 512 512" version="1.1" xmlns="http://www.w3.org/2000/svg" xmlns:xlink="http://www.w3.org/1999/xlink" xml:space="preserve" xmlns:serif="http://www.serif.com/" style="fill-rule:evenodd;clip-rule:evenodd;stroke-linecap:round;stroke-linejoin:round;stroke-miterlimit:1.5;"><circle cx="256" cy="256" r="256" style="fill:#43b4d6;stroke:#43b4d6;stroke-width:1px;"/><path id="Settings" d="M437.107,236.046c-0.576,-5.052 -6.55,-8.849 -11.716,-8.849c-16.702,0 -31.523,-9.67 -37.739,-24.624c-6.35,-15.317 -2.255,-33.181 10.192,-44.439c3.919,-3.532 4.395,-9.444 1.108,-13.551c-8.548,-10.703 -18.264,-20.372 -28.872,-28.751c-4.154,-3.287 -10.249,-2.83 -13.851,1.103c-10.864,11.863 -30.377,16.272 -45.456,10.069c-15.691,-6.509 -25.586,-22.187 -24.618,-39.017c0.319,-5.286 -3.599,-9.882 -8.944,-10.496c-13.614,-1.552 -27.347,-1.6 -41.002,-0.107c-5.284,0.575 -9.202,5.063 -9.024,10.283c0.594,16.663 -9.42,32.067 -24.956,38.342c-14.898,6 -34.275,1.628 -45.116,-10.129c-3.583,-3.873 -9.579,-4.349 -13.754,-1.14c-10.923,8.45 -20.857,18.126 -29.484,28.741c-3.365,4.127 -2.87,10.109 1.088,13.659c12.684,11.327 16.78,29.345 10.19,44.839c-6.291,14.771 -21.847,24.291 -39.656,24.291c-5.779,-0.183 -9.895,3.642 -10.527,8.822c-1.603,13.502 -1.622,27.258 -0.078,40.869c0.572,5.073 6.728,8.836 11.951,8.836c15.87,-0.399 31.107,9.289 37.499,24.626c6.372,15.317 2.276,33.17 -10.19,44.438c-3.9,3.531 -4.395,9.434 -1.108,13.541c8.468,10.635 18.185,20.313 28.832,28.762c4.175,3.318 10.251,2.85 13.871,-1.083c10.904,-11.893 30.416,-16.294 45.435,-10.078c15.731,6.488 25.626,22.165 24.658,39.004c-0.316,5.289 3.621,9.893 8.944,10.498c6.964,0.801 13.97,1.201 20.996,1.201c6.668,-0 13.338,-0.361 20.007,-1.093c5.285,-0.575 9.2,-5.063 9.023,-10.292c-0.612,-16.654 9.42,-32.058 24.935,-38.322c14.999,-6.04 34.294,-1.619 45.137,10.126c3.603,3.865 9.557,4.332 13.755,1.134c10.902,-8.43 20.816,-18.098 29.484,-28.743c3.363,-4.118 2.889,-10.109 -1.089,-13.658c-12.685,-11.326 -16.801,-29.347 -10.211,-44.83c6.195,-14.575 21.173,-24.361 37.284,-24.361l2.254,0.057c5.226,0.419 10.033,-3.55 10.667,-8.81c1.606,-13.513 1.625,-27.257 0.081,-40.868Z" style="fill:#fff;"/><circle cx="256" cy="256" r="65.956" style="fill:#fff;stroke:#43b4d6;stroke-width:28px;"/><path d="M193.467,277.009l40.331,108.299" style="fill:none;stroke:#43b4d6;stroke-width:28px;"/></svg>