<?xml version="1.0" encoding="UTF-8" standalone="no"?><!DOCTYPE svg PUBLIC "-//W3C//DTD SVG 1.1//EN" "http://www.w3.org/Graphics/SVG/1.1/DTD/svg11.dtd"><svg width="100%" height="100%" viewBox="0 0 512 512" version="1.1" xmlns="http://www.w3.org/2000/svg" xmlns:xlink="http://www.w3.org/1999/xlink" xml:space="preserve" xmlns:serif="http://www.serif.com/" style="fill-rule:evenodd;clip-rule:evenodd;"><path d="M172.988,38.222c15.896,-8.831 35.324,-5.887 50.631,3.533c56.519,30.025 113.038,59.462 168.969,89.488c10.597,5.299 18.84,15.308 18.251,27.671c1.177,42.978 -0.589,86.545 0.589,129.523c-29.437,15.896 -58.875,31.792 -88.312,47.099c-5.887,3.533 -12.363,3.533 -19.428,3.533c-1.766,-44.156 0.589,-88.9 -1.177,-133.056c-0.589,-12.952 -12.364,-21.194 -22.961,-26.493c-62.407,-32.969 -124.225,-65.35 -186.042,-98.908c26.493,-14.13 52.397,-28.849 79.48,-42.39Z" style="fill:#fefefe;fill-rule:nonzero;stroke:#fefefe;stroke-width:0.55px;"/><path d="M141.784,168.334c15.308,-2.944 27.671,7.654 41.212,13.541c18.251,11.186 38.857,19.428 56.519,31.792c12.364,8.831 8.831,25.905 10.009,39.446c-1.178,75.358 1.177,151.306 -1.766,226.665c-30.615,-5.888 -55.342,-25.905 -83.013,-38.268c-11.186,-5.888 -24.727,-14.719 -23.549,-29.437c-0,-81.247 -0.589,-162.493 0.588,-243.739Z" style="fill:#00a9e7;fill-rule:nonzero;stroke:#00a9e7;stroke-width:0.55px;"/><g id="ProGuard-icon.svg"></g></svg>