<?xml version="1.0" encoding="UTF-8" standalone="no"?>
<!DOCTYPE svg PUBLIC "-//W3C//DTD SVG 1.1//EN" "http://www.w3.org/Graphics/SVG/1.1/DTD/svg11.dtd">
<svg version="1.1" xmlns="http://www.w3.org/2000/svg" xmlns:xlink="http://www.w3.org/1999/xlink" preserveAspectRatio="xMidYMid meet" viewBox="0 0 640 640" width="512" height="512"><defs><path d="M579.3 306.72C579.3 447.67 464.87 562.1 323.93 562.1C182.98 562.1 68.55 447.67 68.55 306.72C68.55 165.78 182.98 51.35 323.93 51.35C464.87 51.35 579.3 165.78 579.3 306.72Z" id="by3fX3QML"></path><path d="M253.65 193.06L309.56 240.37L335.37 256.5L451.5 217.79L576.4 345.25C573.86 356.2 572.27 363.05 571.63 365.79C549.41 461.47 473.23 535.28 376.9 554.48C372.21 555.42 360.48 557.75 341.72 561.49L202.03 431.77L253.65 193.06Z" id="b5143hjUBT"></path><path d="M244.4 180.15C255.44 180.15 264.4 189.11 264.4 200.15C264.4 246.48 264.4 365.44 264.4 411.77C264.4 422.81 255.44 431.77 244.4 431.77C233.35 431.77 220.18 431.77 209.13 431.77C198.08 431.77 189.13 422.81 189.13 411.77C189.13 365.44 189.13 246.48 189.13 200.15C189.13 189.11 198.08 180.15 209.13 180.15C220.18 180.15 233.35 180.15 244.4 180.15Z" id="fKgc4z9S6"></path><path d="M369.61 184.46C436.5 184.46 490.73 238.68 490.73 305.58C490.73 330.82 490.73 286.01 490.73 311.4C490.73 377.88 436.84 431.77 370.37 431.77C354.66 431.77 347.59 431.77 311.81 431.77C300.76 431.77 291.81 422.81 291.81 411.77C291.81 366.31 291.81 249.92 291.81 204.46C291.81 193.41 300.76 184.46 311.81 184.46C347.59 184.46 354.05 184.46 369.61 184.46Z" id="gWz9YVav3"></path><path d="" id="epgnTYekj"></path></defs><g><g><g><use xlink:href="#by3fX3QML" opacity="1" fill="#6ebb49" fill-opacity="1"></use></g><g><use xlink:href="#b5143hjUBT" opacity="1" fill="#4bab47" fill-opacity="1"></use></g><g><use xlink:href="#fKgc4z9S6" opacity="1" fill="#ffffff" fill-opacity="1"></use></g><g><use xlink:href="#gWz9YVav3" opacity="1" fill="#ffffff" fill-opacity="1"></use></g><g><g><use xlink:href="#epgnTYekj" opacity="1" fill-opacity="0" stroke="#7fcc8f" stroke-width="0" stroke-opacity="1"></use></g></g></g></g></svg>