<?xml version="1.0" encoding="UTF-8" standalone="no"?>
<!DOCTYPE svg PUBLIC "-//W3C//DTD SVG 1.1//EN" "http://www.w3.org/Graphics/SVG/1.1/DTD/svg11.dtd">
<svg width="100%" height="100%" viewBox="0 0 512 512" version="1.1" xmlns="http://www.w3.org/2000/svg" xmlns:xlink="http://www.w3.org/1999/xlink" xml:space="preserve" xmlns:serif="http://www.serif.com/" style="fill-rule:evenodd;clip-rule:evenodd;stroke-linejoin:round;stroke-miterlimit:2;">
    <g transform="matrix(1,0,0,1,0,-5)">
        <circle cx="256" cy="261" r="232" style="fill:rgb(43,119,231);"/>
        <path d="M256,29C384.044,29 488,132.956 488,261C488,389.044 384.044,493 256,493C127.956,493 24,389.044 24,261C24,132.956 127.956,29 256,29ZM256,50.333C372.27,50.333 466.667,144.73 466.667,261C466.667,377.27 372.27,471.667 256,471.667C139.73,471.667 45.333,377.27 45.333,261C45.333,144.73 139.73,50.333 256,50.333Z" style="fill:rgb(85,146,235);"/>
    </g>
    <path d="M200.858,30.604L200.858,129.353C217.753,121.98 236.403,117.889 256,117.889C328.178,117.889 387.498,173.376 393.595,243.99L393.595,243.999C393.937,247.96 394.111,251.96 394.111,255.999C394.111,260.039 393.937,264.039 393.595,268L393.595,442.759C369.153,460.803 341.055,474.165 310.627,481.52L310.627,382.87C293.87,390.103 275.4,394.111 256,394.111C181.954,394.111 121.44,335.714 118.04,262.5L117.89,262.5L117.89,69.622C142.316,51.487 170.417,38.037 200.858,30.604ZM256,200.434C286.668,200.434 311.566,225.332 311.566,256C311.566,286.668 286.668,311.566 256,311.566C225.332,311.566 200.434,286.668 200.434,256C200.434,225.332 225.332,200.434 256,200.434Z" style="fill:rgb(242,242,242);fill-opacity:0.7;"/>
</svg>
