<?xml version="1.0" encoding="UTF-8" standalone="no"?>
<!DOCTYPE svg PUBLIC "-//W3C//DTD SVG 1.1//EN" "http://www.w3.org/Graphics/SVG/1.1/DTD/svg11.dtd">
<svg width="100%" height="100%" viewBox="0 0 512 512" version="1.1" xmlns="http://www.w3.org/2000/svg" xmlns:xlink="http://www.w3.org/1999/xlink" xml:space="preserve" xmlns:serif="http://www.serif.com/" style="fill-rule:evenodd;clip-rule:evenodd;stroke-linejoin:round;stroke-miterlimit:2;">
    <g transform="matrix(0.707107,-0.707107,0.707107,0.707107,-108.855,289.474)">
        <rect x="108.465" y="61.716" width="348.856" height="348.856" style="fill:rgb(234,233,3);"/>
        <path d="M457.321,61.716L108.465,61.716L108.465,410.572L457.321,410.572L457.321,61.716ZM444.821,74.216L444.821,398.072C390.505,398.072 175.281,398.072 120.965,398.072C120.965,398.072 120.965,135.145 120.965,74.216L444.821,74.216Z"/>
    </g>
    <g transform="matrix(1,0,0,1,131.585,-34.0171)">
        <circle cx="224.143" cy="234.663" r="34.808" style="fill:rgb(254,0,0);"/>
    </g>
    <g transform="matrix(1,0,0,1,111.467,75.4279)">
        <circle cx="224.143" cy="234.663" r="34.808" style="fill:rgb(254,0,0);"/>
    </g>
    <g transform="matrix(1,0,0,1,15.5784,147.245)">
        <circle cx="224.143" cy="234.663" r="34.808" style="fill:rgb(254,0,0);"/>
    </g>
    <g transform="matrix(1,0,0,1,-92.8666,-9.40073)">
        <circle cx="224.143" cy="234.663" r="34.808" style="fill:rgb(254,0,0);"/>
    </g>
    <g transform="matrix(1,0,0,1,18.9215,-99.3311)">
        <circle cx="224.143" cy="234.663" r="34.808" style="fill:rgb(254,0,0);"/>
    </g>
    <g transform="matrix(1,0,0,1,7.87405,20.5518)">
        <circle cx="224.143" cy="234.663" r="34.808" style="fill:rgb(254,0,0);"/>
    </g>
    <g transform="matrix(300,-1.79727e-14,1.84105e-14,300,177.431,347.314)">
        <path d="M0.498,-0.193C0.498,-0.158 0.492,-0.128 0.479,-0.102C0.466,-0.076 0.448,-0.055 0.425,-0.038C0.402,-0.022 0.374,-0.009 0.342,-0.001C0.31,0.007 0.276,0.011 0.238,0.011C0.204,0.011 0.172,0.009 0.141,0.005C0.109,0.001 0.078,-0.005 0.048,-0.014L0.048,-0.133C0.063,-0.128 0.078,-0.123 0.095,-0.118C0.111,-0.114 0.127,-0.11 0.144,-0.106C0.16,-0.103 0.177,-0.1 0.193,-0.098C0.209,-0.096 0.225,-0.095 0.24,-0.095C0.263,-0.095 0.282,-0.097 0.298,-0.101C0.314,-0.105 0.327,-0.11 0.337,-0.117C0.347,-0.124 0.355,-0.132 0.359,-0.142C0.364,-0.151 0.366,-0.161 0.366,-0.173C0.366,-0.188 0.362,-0.202 0.353,-0.212C0.344,-0.223 0.332,-0.232 0.317,-0.24C0.303,-0.248 0.286,-0.256 0.267,-0.262C0.249,-0.269 0.23,-0.276 0.21,-0.283C0.191,-0.291 0.172,-0.299 0.153,-0.309C0.134,-0.318 0.118,-0.33 0.103,-0.344C0.088,-0.358 0.077,-0.374 0.068,-0.394C0.059,-0.413 0.054,-0.437 0.054,-0.464C0.054,-0.489 0.059,-0.513 0.068,-0.535C0.077,-0.558 0.091,-0.577 0.111,-0.594C0.13,-0.611 0.155,-0.624 0.186,-0.634C0.217,-0.644 0.254,-0.649 0.297,-0.649C0.31,-0.649 0.323,-0.648 0.337,-0.647C0.351,-0.646 0.364,-0.645 0.378,-0.643C0.391,-0.641 0.404,-0.639 0.417,-0.636C0.429,-0.634 0.441,-0.632 0.451,-0.629L0.451,-0.519C0.441,-0.523 0.429,-0.527 0.417,-0.53C0.405,-0.533 0.392,-0.536 0.379,-0.538C0.365,-0.541 0.352,-0.543 0.339,-0.544C0.326,-0.545 0.313,-0.546 0.301,-0.546C0.28,-0.546 0.262,-0.544 0.247,-0.541C0.232,-0.537 0.22,-0.533 0.211,-0.527C0.201,-0.521 0.195,-0.513 0.19,-0.504C0.186,-0.496 0.184,-0.486 0.184,-0.475C0.184,-0.462 0.189,-0.45 0.198,-0.441C0.206,-0.431 0.218,-0.422 0.233,-0.415C0.248,-0.407 0.265,-0.4 0.283,-0.393C0.302,-0.387 0.321,-0.379 0.341,-0.372C0.361,-0.364 0.38,-0.355 0.399,-0.346C0.417,-0.336 0.434,-0.324 0.449,-0.31C0.464,-0.296 0.476,-0.28 0.485,-0.26C0.494,-0.241 0.498,-0.219 0.498,-0.193Z" style="fill:white;fill-rule:nonzero;"/>
        <path d="M0.54,-0.193C0.54,-0.226 0.534,-0.254 0.522,-0.278C0.511,-0.302 0.496,-0.323 0.478,-0.34C0.46,-0.357 0.44,-0.371 0.418,-0.383C0.398,-0.393 0.377,-0.402 0.356,-0.411C0.336,-0.418 0.317,-0.426 0.297,-0.433C0.281,-0.439 0.266,-0.445 0.252,-0.452C0.242,-0.457 0.234,-0.463 0.228,-0.469C0.226,-0.471 0.226,-0.473 0.226,-0.475C0.226,-0.479 0.226,-0.483 0.228,-0.486C0.229,-0.488 0.231,-0.49 0.233,-0.491C0.239,-0.495 0.247,-0.498 0.257,-0.5C0.269,-0.503 0.283,-0.504 0.301,-0.504C0.312,-0.504 0.323,-0.504 0.335,-0.502C0.347,-0.501 0.359,-0.5 0.371,-0.497C0.383,-0.495 0.395,-0.492 0.406,-0.489C0.417,-0.487 0.427,-0.483 0.437,-0.48C0.449,-0.475 0.464,-0.477 0.475,-0.485C0.486,-0.493 0.493,-0.505 0.493,-0.519L0.493,-0.629C0.493,-0.648 0.48,-0.665 0.461,-0.669C0.45,-0.672 0.438,-0.675 0.425,-0.677C0.411,-0.68 0.398,-0.682 0.383,-0.684C0.369,-0.686 0.355,-0.688 0.34,-0.689C0.325,-0.69 0.311,-0.691 0.297,-0.691C0.249,-0.691 0.207,-0.685 0.173,-0.674C0.137,-0.662 0.107,-0.646 0.084,-0.626C0.059,-0.604 0.041,-0.579 0.029,-0.551C0.018,-0.523 0.013,-0.494 0.013,-0.464C0.013,-0.43 0.019,-0.401 0.03,-0.376C0.041,-0.352 0.056,-0.331 0.074,-0.314C0.092,-0.297 0.112,-0.283 0.134,-0.271C0.154,-0.261 0.175,-0.252 0.195,-0.244C0.215,-0.237 0.234,-0.23 0.254,-0.223C0.27,-0.217 0.284,-0.211 0.297,-0.204C0.307,-0.198 0.315,-0.192 0.321,-0.185C0.324,-0.182 0.325,-0.178 0.325,-0.173C0.325,-0.168 0.324,-0.164 0.322,-0.16C0.32,-0.156 0.317,-0.154 0.314,-0.152C0.307,-0.147 0.299,-0.144 0.288,-0.142C0.275,-0.138 0.259,-0.137 0.24,-0.137C0.227,-0.137 0.212,-0.138 0.198,-0.14C0.183,-0.141 0.168,-0.144 0.152,-0.147C0.137,-0.15 0.121,-0.154 0.106,-0.158C0.091,-0.163 0.076,-0.167 0.062,-0.172C0.049,-0.177 0.035,-0.175 0.024,-0.167C0.013,-0.159 0.006,-0.146 0.006,-0.133L0.006,-0.014C0.006,0.004 0.018,0.021 0.036,0.026C0.069,0.036 0.102,0.043 0.135,0.047C0.168,0.051 0.202,0.053 0.238,0.053C0.279,0.053 0.318,0.048 0.353,0.039C0.39,0.03 0.422,0.015 0.449,-0.005C0.478,-0.025 0.5,-0.052 0.516,-0.083C0.532,-0.114 0.54,-0.151 0.54,-0.193ZM0.498,-0.193C0.498,-0.158 0.492,-0.128 0.479,-0.102C0.466,-0.076 0.448,-0.055 0.425,-0.038C0.402,-0.022 0.374,-0.009 0.342,-0.001C0.31,0.007 0.276,0.011 0.238,0.011C0.204,0.011 0.172,0.009 0.141,0.005C0.109,0.001 0.078,-0.005 0.048,-0.014L0.048,-0.133C0.063,-0.128 0.078,-0.123 0.095,-0.118C0.111,-0.114 0.127,-0.11 0.144,-0.106C0.16,-0.103 0.177,-0.1 0.193,-0.098C0.209,-0.096 0.225,-0.095 0.24,-0.095C0.263,-0.095 0.282,-0.097 0.298,-0.101C0.314,-0.105 0.327,-0.11 0.337,-0.117C0.347,-0.124 0.355,-0.132 0.359,-0.142C0.364,-0.151 0.366,-0.161 0.366,-0.173C0.366,-0.188 0.362,-0.202 0.353,-0.212C0.344,-0.223 0.332,-0.232 0.317,-0.24C0.303,-0.248 0.286,-0.256 0.267,-0.262C0.249,-0.269 0.23,-0.276 0.21,-0.283C0.191,-0.291 0.172,-0.299 0.153,-0.309C0.134,-0.318 0.118,-0.33 0.103,-0.344C0.088,-0.358 0.077,-0.374 0.068,-0.394C0.059,-0.413 0.054,-0.437 0.054,-0.464C0.054,-0.489 0.059,-0.513 0.068,-0.535C0.077,-0.558 0.091,-0.577 0.111,-0.594C0.13,-0.611 0.155,-0.624 0.186,-0.634C0.217,-0.644 0.254,-0.649 0.297,-0.649C0.31,-0.649 0.323,-0.648 0.337,-0.647C0.351,-0.646 0.364,-0.645 0.378,-0.643C0.391,-0.641 0.404,-0.639 0.417,-0.636C0.429,-0.634 0.441,-0.632 0.451,-0.629L0.451,-0.519C0.441,-0.523 0.429,-0.527 0.417,-0.53C0.405,-0.533 0.392,-0.536 0.379,-0.538C0.365,-0.541 0.352,-0.543 0.339,-0.544C0.326,-0.545 0.313,-0.546 0.301,-0.546C0.28,-0.546 0.262,-0.544 0.247,-0.541C0.232,-0.537 0.22,-0.533 0.211,-0.527C0.201,-0.521 0.195,-0.513 0.19,-0.504C0.186,-0.496 0.184,-0.486 0.184,-0.475C0.184,-0.462 0.189,-0.45 0.198,-0.441C0.206,-0.431 0.218,-0.422 0.233,-0.415C0.248,-0.407 0.265,-0.4 0.283,-0.393C0.302,-0.387 0.321,-0.379 0.341,-0.372C0.361,-0.364 0.38,-0.355 0.399,-0.346C0.417,-0.336 0.434,-0.324 0.449,-0.31C0.464,-0.296 0.476,-0.28 0.485,-0.26C0.494,-0.241 0.498,-0.219 0.498,-0.193Z"/>
    </g>
</svg>
