<?xml version="1.0" encoding="UTF-8" ?>
<!DOCTYPE svg PUBLIC "-//W3C//DTD SVG 1.1//EN" "http://www.w3.org/Graphics/SVG/1.1/DTD/svg11.dtd">
<svg width="256pt" height="256pt" viewBox="0 0 256 256" version="1.1" xmlns="http://www.w3.org/2000/svg">
<g id="#080a0bfb">
<path fill="#080a0b" opacity="1.00" d=" M 130.73 62.19 C 131.94 61.29 133.44 60.85 134.96 60.94 C 141.20 60.90 147.44 60.96 153.68 60.91 C 155.04 60.92 156.41 60.93 157.78 60.94 C 160.65 60.93 163.53 60.93 166.40 60.92 C 167.89 60.92 169.38 61.00 170.81 61.43 C 172.43 62.50 173.95 64.12 174.15 66.13 C 174.48 70.75 174.20 75.39 174.06 80.01 C 173.39 82.68 170.82 84.66 168.07 84.67 C 164.39 84.79 160.71 84.66 157.03 84.71 C 155.64 84.72 154.25 84.73 152.86 84.73 C 150.39 84.70 147.92 84.71 145.46 84.74 C 144.09 84.73 142.72 84.72 141.36 84.71 C 138.72 84.72 136.09 84.70 133.45 84.65 C 130.66 86.37 129.27 89.55 127.78 92.34 C 127.20 93.59 126.67 94.86 126.18 96.14 L 125.87 96.93 C 125.37 98.41 124.98 99.91 124.55 101.42 L 124.24 102.44 C 129.98 102.51 135.73 102.30 141.46 102.56 C 144.09 103.20 145.82 105.45 146.49 107.98 C 146.46 111.78 146.23 115.58 146.41 119.39 C 148.96 119.47 151.52 119.46 154.08 119.30 C 154.07 118.55 154.07 117.05 154.06 116.29 C 153.80 113.12 155.87 109.90 159.05 109.21 C 161.35 108.86 163.69 109.06 166.01 109.01 C 167.40 109.00 168.78 109.00 170.17 108.99 C 177.85 109.03 185.52 109.04 193.20 108.99 C 194.84 108.99 196.38 109.58 197.78 110.39 C 199.02 111.41 199.82 113.03 200.12 114.59 C 199.89 118.74 200.07 122.91 199.98 127.06 C 199.97 129.53 197.99 131.34 196.03 132.53 C 187.73 133.27 179.36 132.64 171.04 132.87 C 169.70 132.87 168.37 132.87 167.04 132.86 C 164.32 132.86 161.60 132.88 158.88 132.78 C 155.91 131.70 153.75 128.85 154.06 125.61 C 154.06 124.30 154.07 123.00 154.08 121.70 C 151.57 121.49 149.07 121.62 146.57 121.72 C 146.05 125.17 146.57 128.66 146.28 132.13 C 145.86 134.05 144.49 135.44 143.04 136.66 C 136.77 137.97 130.28 136.97 123.91 137.29 C 123.96 137.72 124.06 138.59 124.11 139.02 C 124.40 141.03 124.97 142.98 125.65 144.89 L 125.93 145.71 C 126.39 146.86 126.86 148.01 127.35 149.16 C 128.97 152.49 130.72 156.03 133.73 158.30 C 136.24 158.36 138.74 158.27 141.24 158.30 C 142.63 158.29 144.01 158.28 145.39 158.28 C 147.90 158.31 150.41 158.31 152.92 158.29 C 154.43 158.28 155.95 158.29 157.46 158.30 C 161.20 158.38 164.94 158.14 168.67 158.41 C 171.52 158.75 173.60 161.26 174.05 163.99 C 173.94 168.02 174.05 172.06 173.99 176.10 C 173.97 179.14 171.38 181.66 168.44 182.07 C 164.34 182.07 160.23 182.07 156.13 182.06 C 154.76 182.06 153.39 182.06 152.03 182.06 C 147.74 182.14 143.45 181.91 139.17 182.19 C 135.42 182.76 130.70 182.43 128.80 178.59 C 127.62 175.98 128.22 173.06 128.08 170.31 C 128.07 169.40 128.06 167.58 128.06 166.67 C 127.83 163.92 128.51 160.95 130.94 159.33 C 130.12 158.17 129.29 157.04 128.49 155.89 C 127.15 153.88 126.01 151.75 125.02 149.55 C 124.45 148.19 123.94 146.80 123.48 145.40 C 123.31 144.84 122.96 143.72 122.79 143.16 C 122.48 142.12 122.18 141.07 121.91 140.03 C 121.82 139.36 121.65 138.02 121.56 137.35 C 118.41 137.34 114.25 136.19 112.98 140.08 C 112.21 141.09 111.39 142.07 110.60 143.08 C 110.48 143.24 110.23 143.56 110.10 143.72 C 107.93 145.67 105.76 147.65 103.29 149.23 C 102.90 149.46 102.13 149.91 101.74 150.13 C 100.62 150.75 99.48 151.34 98.34 151.91 C 97.63 152.21 96.91 152.49 96.19 152.74 L 95.02 153.05 C 94.80 156.06 95.50 159.69 92.99 161.97 C 90.96 164.24 87.70 163.85 84.96 163.87 C 83.58 163.87 82.21 163.87 80.84 163.87 C 71.89 163.79 62.94 163.97 53.99 163.78 C 50.11 162.87 48.31 158.70 48.98 155.02 C 49.50 150.26 47.14 143.42 52.50 140.73 C 57.20 139.23 62.34 140.38 67.22 140.01 C 68.58 140.00 69.94 139.99 71.30 139.99 C 77.96 140.41 84.82 139.24 91.35 140.67 C 93.26 141.74 94.48 143.57 94.94 145.69 C 94.92 147.38 94.91 149.09 94.96 150.79 C 96.02 150.37 97.09 149.96 98.13 149.49 C 98.68 149.20 99.77 148.63 100.32 148.35 C 102.90 146.99 105.19 145.15 107.29 143.13 C 108.95 141.79 110.20 140.05 111.36 138.28 C 111.55 138.01 111.93 137.47 112.13 137.20 C 108.02 137.60 103.90 137.21 99.78 137.25 C 97.52 136.36 95.39 134.64 95.02 132.10 C 94.80 128.98 94.97 125.85 94.93 122.73 C 94.92 121.48 94.92 120.24 94.92 119.00 C 95.30 114.37 94.02 109.43 95.86 105.04 C 98.69 101.50 103.43 102.62 107.35 102.35 C 108.59 102.50 109.81 102.44 111.00 102.18 C 110.86 100.80 109.42 100.10 108.57 99.16 C 106.21 96.85 103.33 95.14 100.29 93.87 C 99.22 93.44 98.15 93.02 97.08 92.61 C 96.12 92.29 95.16 92.04 94.17 91.86 C 94.10 94.24 94.34 96.63 94.17 99.02 C 93.90 101.32 91.94 102.76 90.08 103.82 C 84.03 104.35 77.93 103.95 71.86 104.05 C 70.31 104.04 68.76 104.04 67.21 104.05 C 62.73 104.10 58.24 104.02 53.76 104.11 C 50.97 103.42 48.53 101.07 48.45 98.09 C 48.39 94.07 48.37 90.05 48.46 86.04 C 48.67 82.76 51.72 80.14 54.97 80.26 C 63.62 80.19 72.27 80.27 80.92 80.22 C 82.25 80.22 83.59 80.21 84.92 80.21 C 87.40 80.23 90.24 80.02 92.18 81.87 C 94.33 83.71 94.65 86.74 94.54 89.40 C 95.78 89.64 96.96 90.10 98.13 90.59 C 99.23 91.03 100.34 91.43 101.44 91.87 C 102.85 92.52 104.22 93.24 105.57 94.01 C 108.69 95.88 111.42 98.35 113.73 101.16 C 115.59 103.61 119.15 101.97 121.78 102.48 C 122.03 101.75 122.27 101.02 122.50 100.29 C 122.68 99.65 123.05 98.36 123.24 97.72 C 123.35 97.40 123.57 96.77 123.68 96.45 C 124.17 95.07 124.69 93.68 125.27 92.33 C 126.30 90.18 127.43 88.08 128.77 86.10 C 129.41 85.23 130.07 84.38 130.75 83.53 C 130.59 83.33 130.26 82.93 130.10 82.73 C 128.74 81.17 128.25 79.13 128.35 77.10 C 128.35 75.82 128.36 74.54 128.38 73.26 C 128.41 70.69 128.24 68.10 128.60 65.55 C 129.03 64.27 129.84 63.19 130.73 62.19 M 132.28 63.23 C 128.94 65.36 130.26 69.70 130.01 72.98 C 130.26 75.84 129.19 79.25 131.34 81.60 C 132.31 82.52 133.58 83.17 134.96 83.01 C 145.99 83.02 157.02 83.03 168.05 83.00 C 170.67 83.11 172.88 80.51 172.66 77.94 C 172.65 74.32 172.71 70.70 172.63 67.08 C 172.64 64.65 170.40 62.48 167.97 62.58 C 156.64 62.57 145.30 62.49 133.97 62.62 C 133.55 62.77 132.70 63.08 132.28 63.23 M 53.08 82.18 C 49.09 83.79 50.13 88.58 50.04 91.98 C 50.33 94.88 49.20 98.29 51.21 100.76 C 52.32 102.20 54.23 102.50 55.94 102.44 C 66.60 102.42 77.25 102.48 87.91 102.41 C 90.31 102.48 92.45 100.51 92.66 98.14 C 92.71 94.11 92.75 90.07 92.64 86.04 C 92.36 83.34 89.62 81.53 87.01 81.91 C 75.71 82.08 64.36 81.56 53.08 82.18 M 100.12 104.16 C 98.02 104.75 96.36 106.80 96.56 109.05 C 96.55 116.37 96.51 123.69 96.58 131.01 C 96.49 133.81 99.26 135.91 101.93 135.65 C 114.65 135.64 127.38 135.70 140.10 135.61 C 142.50 135.57 144.63 133.52 144.69 131.11 C 144.75 123.71 144.72 116.31 144.71 108.91 C 144.83 106.39 142.57 103.96 140.02 104.08 C 126.73 104.11 113.42 103.96 100.12 104.16 M 158.27 111.22 C 156.97 112.02 155.86 113.34 155.83 114.95 C 155.75 118.97 155.73 123.01 155.84 127.03 C 156.00 129.54 158.52 131.45 160.98 131.16 C 171.99 131.14 182.99 131.20 194.00 131.13 C 196.60 131.13 198.63 128.52 198.39 126.00 C 198.37 122.36 198.44 118.73 198.35 115.10 C 198.29 112.37 195.60 110.39 192.98 110.70 C 182.00 110.73 171.01 110.63 160.03 110.75 C 159.59 110.87 158.71 111.10 158.27 111.22 M 53.17 142.18 C 49.06 144.61 51.11 150.07 50.61 153.95 C 50.16 157.20 50.82 162.02 55.00 162.12 C 66.00 162.20 77.00 162.14 88.00 162.16 C 90.47 162.45 93.02 160.51 93.17 158.00 C 93.28 153.97 93.26 149.95 93.18 145.93 C 93.06 143.74 91.10 141.83 88.92 141.74 C 77.62 141.66 66.33 141.68 55.04 141.73 C 54.57 141.84 53.64 142.07 53.17 142.18 M 132.31 160.49 C 130.66 161.34 129.60 163.14 129.78 165.01 C 129.76 168.65 129.73 172.30 129.80 175.94 C 129.75 178.66 132.47 180.74 135.09 180.44 C 146.03 180.42 156.97 180.48 167.92 180.41 C 170.27 180.35 172.32 178.31 172.35 175.95 C 172.42 172.31 172.37 168.67 172.37 165.03 C 172.60 162.57 170.56 160.09 168.09 160.01 C 157.75 159.93 147.41 160.01 137.07 159.97 C 135.50 160.11 133.72 159.62 132.31 160.49 Z" />
</g>
<g id="#ffb380ff">
</g>
<g id="#999999ff">
<path fill="#999999" opacity="1.00" d=" M 71.28 23.80 C 69.82 21.92 73.13 19.82 74.18 21.81 C 80.59 34.19 86.53 46.82 92.74 59.30 C 93.29 60.19 93.74 61.86 95.11 61.57 C 106.49 61.50 117.87 61.56 129.25 61.53 L 130.73 62.19 C 129.84 63.19 129.03 64.27 128.60 65.55 C 117.73 64.77 106.76 65.37 95.86 65.23 C 98.49 71.11 101.29 76.95 104.43 82.58 C 112.99 82.72 121.55 82.42 130.10 82.73 C 130.26 82.93 130.59 83.33 130.75 83.53 C 130.07 84.38 129.41 85.23 128.77 86.10 C 121.23 86.49 113.68 86.18 106.14 86.24 C 107.87 90.05 109.68 93.83 111.71 97.49 C 115.55 97.74 119.40 97.51 123.24 97.72 C 123.05 98.36 122.68 99.65 122.50 100.29 C 120.05 102.15 116.58 100.82 113.73 101.16 C 111.42 98.35 108.69 95.88 105.57 94.01 C 104.93 92.22 104.16 90.48 103.22 88.83 C 102.62 89.84 102.03 90.86 101.44 91.87 C 100.34 91.43 99.23 91.03 98.13 90.59 C 98.91 88.42 100.94 86.43 100.85 84.07 C 98.26 78.28 95.21 72.70 92.53 66.95 C 89.66 71.17 87.52 75.83 84.92 80.21 C 83.59 80.21 82.25 80.22 80.92 80.22 C 83.77 74.34 87.36 68.85 90.21 62.98 C 90.07 61.62 89.28 60.47 88.73 59.25 C 82.86 47.46 77.03 35.65 71.28 23.80 Z" />
<path fill="#999999" opacity="1.00" d=" M 171.78 23.87 C 172.30 22.65 173.44 20.85 175.02 21.81 C 176.47 22.33 175.94 24.30 175.34 25.30 C 171.63 32.88 167.72 40.38 164.14 48.01 C 165.54 52.76 169.32 56.64 170.81 61.43 C 169.38 61.00 167.89 60.92 166.40 60.92 C 164.84 58.28 164.01 54.97 161.49 53.07 C 160.19 55.66 158.96 58.28 157.78 60.94 C 156.41 60.93 155.04 60.92 153.68 60.91 C 154.95 57.22 157.01 53.88 158.65 50.36 C 142.10 50.60 125.54 50.38 108.99 50.47 C 106.97 50.45 104.91 50.60 102.93 50.12 C 102.06 48.94 102.25 46.86 104.04 46.72 C 122.87 46.55 141.70 46.79 160.52 46.60 C 164.32 39.05 167.99 31.43 171.78 23.87 Z" />
<path fill="#999999" opacity="1.00" d=" M 112.63 73.51 C 117.86 73.06 123.13 73.52 128.38 73.26 C 128.36 74.54 128.35 75.82 128.35 77.10 C 122.96 76.98 117.50 77.57 112.16 76.78 C 111.34 75.54 111.50 74.45 112.63 73.51 Z" />
<path fill="#999999" opacity="1.00" d=" M 177.26 72.82 C 183.88 83.62 189.62 94.98 195.95 105.97 C 196.62 107.41 197.86 108.71 197.78 110.39 C 196.38 109.58 194.84 108.99 193.20 108.99 C 188.00 99.48 182.73 90.00 177.40 80.56 C 177.31 80.20 177.12 79.48 177.02 79.13 C 177.00 77.02 177.15 74.92 177.26 72.82 Z" />
<path fill="#999999" opacity="1.00" d=" M 140.00 88.07 C 141.40 88.04 142.80 88.02 144.20 88.02 C 143.27 90.44 140.44 93.10 142.39 95.69 C 146.33 102.53 149.85 109.61 154.06 116.29 C 154.07 117.05 154.07 118.55 154.08 119.30 C 153.28 119.29 151.68 119.26 150.87 119.25 C 150.88 117.94 150.05 116.84 149.07 116.07 C 148.82 113.18 148.62 110.17 146.49 107.98 C 145.82 105.45 144.09 103.20 141.46 102.56 C 140.36 100.45 139.89 97.49 137.79 96.18 C 133.93 95.91 130.04 96.08 126.18 96.14 C 126.67 94.86 127.20 93.59 127.78 92.34 C 131.02 92.25 134.27 92.29 137.52 92.38 C 138.47 91.02 139.28 89.56 140.00 88.07 Z" />
<path fill="#999999" opacity="1.00" d=" M 154.52 88.05 C 155.45 88.04 157.29 88.01 158.21 88.00 L 158.78 87.99 C 162.35 95.11 166.58 101.88 170.17 108.99 C 168.78 109.00 167.40 109.00 166.01 109.01 C 162.14 102.05 158.06 95.19 154.52 88.05 Z" />
<path fill="#999999" opacity="1.00" d=" M 117.05 93.11 C 119.48 91.54 122.55 92.50 125.27 92.33 C 124.69 93.68 124.17 95.07 123.68 96.45 C 121.54 96.20 119.40 95.94 117.27 95.63 C 117.22 95.00 117.10 93.74 117.05 93.11 Z" />
<path fill="#999999" opacity="1.00" d=" M 97.08 92.61 C 98.15 93.02 99.22 93.44 100.29 93.87 C 99.30 95.69 98.24 97.48 97.24 99.30 C 97.18 97.07 97.10 94.84 97.08 92.61 Z" />
<path fill="#999999" opacity="1.00" d=" M 124.55 101.42 C 124.98 99.91 125.37 98.41 125.87 96.93 C 127.04 97.91 129.07 98.92 127.87 100.72 C 127.04 100.90 125.38 101.24 124.55 101.42 Z" />
<path fill="#999999" opacity="1.00" d=" M 108.57 99.16 C 109.42 100.10 110.86 100.80 111.00 102.18 C 109.81 102.44 108.59 102.50 107.35 102.35 C 107.69 101.26 108.10 100.20 108.57 99.16 Z" />
<path fill="#999999" opacity="1.00" d=" M 66.05 107.14 C 67.33 107.20 68.62 107.27 69.91 107.35 C 67.81 111.22 65.28 114.89 63.73 119.03 C 69.78 119.22 75.85 119.22 81.90 118.92 C 84.63 115.53 86.26 111.31 88.45 107.53 C 88.62 107.48 88.97 107.37 89.14 107.32 C 90.44 107.27 91.74 107.26 93.05 107.30 C 90.60 111.03 88.44 114.97 86.54 119.00 C 89.33 119.10 92.13 119.04 94.92 119.00 C 94.92 120.24 94.92 121.48 94.93 122.73 C 92.11 122.64 89.29 122.62 86.48 122.73 C 90.40 131.57 95.79 139.78 100.32 148.35 C 99.77 148.63 98.68 149.20 98.13 149.49 C 97.07 148.21 95.99 146.97 94.94 145.69 C 94.48 143.57 93.26 141.74 91.35 140.67 C 88.94 134.42 85.15 128.78 81.93 122.91 C 75.32 122.55 68.68 122.66 62.06 122.92 C 64.95 128.71 68.49 134.16 71.30 139.99 C 69.94 139.99 68.58 140.00 67.22 140.01 C 64.21 134.30 61.03 128.68 57.87 123.05 C 46.27 122.45 34.59 123.15 22.96 122.89 C 20.75 123.25 20.23 119.74 22.36 119.41 C 34.55 119.04 46.78 119.50 58.96 119.01 C 61.82 115.41 63.21 110.77 66.05 107.14 Z" />
<path fill="#999999" opacity="1.00" d=" M 202.86 119.72 C 211.55 120.32 220.28 120.09 228.99 120.30 C 230.95 120.49 233.20 119.83 234.88 121.14 C 234.85 121.77 234.78 123.01 234.75 123.64 C 225.05 125.05 214.96 123.05 205.25 124.15 C 204.55 125.29 203.89 126.47 202.89 127.38 C 202.80 124.83 202.76 122.27 202.86 119.72 Z" />
<path fill="#999999" opacity="1.00" d=" M 150.98 121.85 C 151.75 121.81 153.30 121.74 154.08 121.70 C 154.07 123.00 154.06 124.30 154.06 125.61 C 152.29 128.06 150.84 130.72 149.35 133.35 C 149.23 131.14 149.03 128.93 148.91 126.72 C 148.99 126.33 149.17 125.55 149.25 125.16 C 150.36 124.49 151.37 123.23 150.98 121.85 Z" />
<path fill="#999999" opacity="1.00" d=" M 165.11 136.21 C 166.51 136.20 167.90 136.18 169.30 136.17 C 165.71 143.73 161.00 150.71 157.46 158.30 C 155.95 158.29 154.43 158.28 152.92 158.29 C 156.89 150.88 161.08 143.59 165.11 136.21 Z" />
<path fill="#999999" opacity="1.00" d=" M 194.16 136.11 C 195.54 136.14 196.93 136.18 198.32 136.25 C 192.16 147.94 185.47 159.36 179.19 170.99 C 178.51 172.11 178.01 173.43 176.90 174.22 C 176.84 172.06 176.74 169.90 176.64 167.74 C 182.41 157.16 188.34 146.66 194.16 136.11 Z" />
<path fill="#999999" opacity="1.00" d=" M 110.60 143.08 C 111.39 142.07 112.21 141.09 112.98 140.08 C 115.95 140.25 118.93 140.22 121.91 140.03 C 122.18 141.07 122.48 142.12 122.79 143.16 C 118.73 143.19 114.66 143.29 110.60 143.08 Z" />
<path fill="#999999" opacity="1.00" d=" M 141.02 140.77 C 142.42 140.74 143.83 140.73 145.24 140.74 C 143.95 143.25 142.49 145.66 141.30 148.22 C 142.18 151.73 144.22 154.86 145.39 158.28 C 144.01 158.28 142.63 158.29 141.24 158.30 C 140.06 155.32 138.84 152.35 137.31 149.54 C 133.99 149.34 130.65 149.68 127.35 149.16 C 126.86 148.01 126.39 146.86 125.93 145.71 C 129.51 145.59 133.10 145.84 136.67 145.56 C 139.19 145.33 139.82 142.53 141.02 140.77 Z" />
<path fill="#999999" opacity="1.00" d=" M 103.29 149.23 C 105.76 147.65 107.93 145.67 110.10 143.72 C 109.08 148.09 106.36 151.76 104.91 155.97 C 112.77 156.00 120.63 156.10 128.49 155.89 C 129.29 157.04 130.12 158.17 130.94 159.33 C 121.79 159.92 112.61 159.39 103.45 159.59 C 99.63 165.68 96.82 172.56 93.83 179.15 C 103.23 179.45 112.63 179.16 122.04 179.29 C 124.30 179.25 126.67 179.55 128.80 178.59 C 130.70 182.43 135.42 182.76 139.17 182.19 C 137.45 182.70 135.69 183.03 133.89 183.05 C 120.92 182.78 107.95 183.02 94.98 182.92 C 93.71 183.06 91.65 182.48 91.20 184.19 C 83.31 200.69 75.43 217.19 67.48 233.66 C 67.16 234.82 65.33 235.53 64.53 234.48 C 63.29 233.42 64.36 231.91 64.83 230.78 C 72.90 213.85 81.24 197.04 89.04 180.00 C 87.60 175.42 84.54 171.34 82.21 167.10 C 83.52 167.10 84.82 167.12 86.13 167.14 L 86.72 167.15 C 88.22 169.85 89.15 173.07 91.58 175.11 C 92.97 172.37 94.14 169.53 95.43 166.75 C 96.21 165.25 97.02 163.76 97.70 162.21 C 98.55 160.17 100.03 158.30 100.24 156.05 C 99.69 154.63 98.99 153.28 98.34 151.91 C 99.48 151.34 100.62 150.75 101.74 150.13 C 101.28 153.00 104.48 151.06 103.29 149.23 Z" />
<path fill="#999999" opacity="1.00" d=" M 123.48 145.40 C 123.94 146.80 124.45 148.19 125.02 149.55 C 122.59 149.53 120.17 149.48 117.74 149.35 C 117.10 148.38 116.91 147.33 117.18 146.19 C 119.23 145.61 121.37 145.60 123.48 145.40 Z" />
<path fill="#999999" opacity="1.00" d=" M 111.94 166.90 C 117.29 166.30 122.69 166.67 128.06 166.67 C 128.06 167.58 128.07 169.40 128.08 170.31 C 123.38 170.42 118.68 170.49 113.98 170.35 C 111.80 170.74 111.25 168.51 111.94 166.90 Z" />
<path fill="#999999" opacity="1.00" d=" M 153.29 185.12 C 154.63 185.19 155.97 185.26 157.31 185.34 L 157.85 185.36 C 158.93 188.32 160.18 191.20 161.50 194.05 C 163.88 191.53 165.06 188.20 166.90 185.32 C 168.27 185.37 169.64 185.39 171.02 185.37 C 169.00 190.08 165.67 194.20 163.97 199.01 C 168.45 210.16 173.84 220.98 178.52 232.07 C 179.49 234.05 176.09 235.71 175.24 233.70 C 169.94 222.62 165.35 211.18 159.95 200.16 C 141.63 200.10 123.30 200.19 104.98 200.11 C 102.67 200.66 101.52 197.78 103.30 196.41 C 121.56 196.10 139.86 196.63 158.12 196.15 C 156.87 192.32 154.92 188.78 153.29 185.12 Z" />
</g>
<g id="#44d4fcff">
<path fill="#44d4fc" opacity="1.00" d=" M 132.28 63.23 C 132.70 63.08 133.55 62.77 133.97 62.62 C 145.30 62.49 156.64 62.57 167.97 62.58 C 170.40 62.48 172.64 64.65 172.63 67.08 C 172.71 70.70 172.65 74.32 172.66 77.94 C 172.88 80.51 170.67 83.11 168.05 83.00 C 157.02 83.03 145.99 83.02 134.96 83.01 C 133.58 83.17 132.31 82.52 131.34 81.60 C 129.19 79.25 130.26 75.84 130.01 72.98 C 130.26 69.70 128.94 65.36 132.28 63.23 Z" />
<path fill="#44d4fc" opacity="1.00" d=" M 53.08 82.18 C 64.36 81.56 75.71 82.08 87.01 81.91 C 89.62 81.53 92.36 83.34 92.64 86.04 C 92.75 90.07 92.71 94.11 92.66 98.14 C 92.45 100.51 90.31 102.48 87.91 102.41 C 77.25 102.48 66.60 102.42 55.94 102.44 C 54.23 102.50 52.32 102.20 51.21 100.76 C 49.20 98.29 50.33 94.88 50.04 91.98 C 50.13 88.58 49.09 83.79 53.08 82.18 Z" />
<path fill="#44d4fc" opacity="1.00" d=" M 158.27 111.22 C 158.71 111.10 159.59 110.87 160.03 110.75 C 171.01 110.63 182.00 110.73 192.98 110.70 C 195.60 110.39 198.29 112.37 198.35 115.10 C 198.44 118.73 198.37 122.36 198.39 126.00 C 198.63 128.52 196.60 131.13 194.00 131.13 C 182.99 131.20 171.99 131.14 160.98 131.16 C 158.52 131.45 156.00 129.54 155.84 127.03 C 155.73 123.01 155.75 118.97 155.83 114.95 C 155.86 113.34 156.97 112.02 158.27 111.22 Z" />
<path fill="#44d4fc" opacity="1.00" d=" M 53.17 142.18 C 53.64 142.07 54.57 141.84 55.04 141.73 C 66.33 141.68 77.62 141.66 88.92 141.74 C 91.10 141.83 93.06 143.74 93.18 145.93 C 93.26 149.95 93.28 153.97 93.17 158.00 C 93.02 160.51 90.47 162.45 88.00 162.16 C 77.00 162.14 66.00 162.20 55.00 162.12 C 50.82 162.02 50.16 157.20 50.61 153.95 C 51.11 150.07 49.06 144.61 53.17 142.18 Z" />
<path fill="#44d4fc" opacity="1.00" d=" M 132.31 160.49 C 133.72 159.62 135.50 160.11 137.07 159.97 C 147.41 160.01 157.75 159.93 168.09 160.01 C 170.56 160.09 172.60 162.57 172.37 165.03 C 172.37 168.67 172.42 172.31 172.35 175.95 C 172.32 178.31 170.27 180.35 167.92 180.41 C 156.97 180.48 146.03 180.42 135.09 180.44 C 132.47 180.74 129.75 178.66 129.80 175.94 C 129.73 172.30 129.76 168.65 129.78 165.01 C 129.60 163.14 130.66 161.34 132.31 160.49 Z" />
</g>
<g id="#6b6c6bff">
<path fill="#6b6c6b" opacity="1.00" d=" M 174.15 66.13 C 175.62 68.13 177.00 70.27 177.26 72.82 C 177.15 74.92 177.00 77.02 177.02 79.13 C 176.35 78.39 175.67 77.68 174.98 76.97 C 174.68 77.98 174.37 79.00 174.06 80.01 C 174.20 75.39 174.48 70.75 174.15 66.13 Z" />
<path fill="#6b6c6b" opacity="1.00" d=" M 141.36 84.71 C 142.72 84.72 144.09 84.73 145.46 84.74 C 145.04 85.83 144.62 86.93 144.20 88.02 C 142.80 88.02 141.40 88.04 140.00 88.07 C 140.45 86.95 140.90 85.83 141.36 84.71 Z" />
<path fill="#6b6c6b" opacity="1.00" d=" M 152.86 84.73 C 154.25 84.73 155.64 84.72 157.03 84.71 C 157.42 85.80 157.82 86.90 158.21 88.00 C 157.29 88.01 155.45 88.04 154.52 88.05 L 153.91 88.02 C 153.57 86.92 153.22 85.82 152.86 84.73 Z" />
<path fill="#6b6c6b" opacity="1.00" d=" M 94.17 91.86 C 95.16 92.04 96.12 92.29 97.08 92.61 C 97.10 94.84 97.18 97.07 97.24 99.30 C 96.58 102.29 95.09 105.02 93.05 107.30 C 91.74 107.26 90.44 107.27 89.14 107.32 C 89.44 106.15 89.76 104.98 90.08 103.82 C 91.94 102.76 93.90 101.32 94.17 99.02 C 94.34 96.63 94.10 94.24 94.17 91.86 Z" />
<path fill="#6b6c6b" opacity="1.00" d=" M 67.21 104.05 C 68.76 104.04 70.31 104.04 71.86 104.05 C 71.20 105.15 70.55 106.24 69.91 107.35 C 68.62 107.27 67.33 107.20 66.05 107.14 C 66.44 106.11 66.83 105.08 67.21 104.05 Z" />
<path fill="#6b6c6b" opacity="1.00" d=" M 200.12 114.59 C 201.60 115.86 203.01 117.67 202.86 119.72 C 202.76 122.27 202.80 124.83 202.89 127.38 C 202.77 130.79 200.91 134.10 198.32 136.25 C 196.93 136.18 195.54 136.14 194.16 136.11 C 194.77 134.91 195.37 133.70 196.03 132.53 C 197.99 131.34 199.97 129.53 199.98 127.06 C 200.07 122.91 199.89 118.74 200.12 114.59 Z" />
<path fill="#6b6c6b" opacity="1.00" d=" M 146.28 132.13 C 146.93 130.22 147.90 128.45 148.91 126.72 C 149.03 128.93 149.23 131.14 149.35 133.35 C 148.78 136.20 147.42 138.80 145.24 140.74 C 143.83 140.73 142.42 140.74 141.02 140.77 L 141.20 140.42 C 141.83 139.18 142.41 137.90 143.04 136.66 C 144.49 135.44 145.86 134.05 146.28 132.13 Z" />
<path fill="#6b6c6b" opacity="1.00" d=" M 167.04 132.86 C 168.37 132.87 169.70 132.87 171.04 132.87 C 170.65 133.97 170.27 135.06 169.89 136.16 L 169.30 136.17 C 167.90 136.18 166.51 136.20 165.11 136.21 C 165.75 135.09 166.39 133.97 167.04 132.86 Z" />
<path fill="#6b6c6b" opacity="1.00" d=" M 106.77 137.57 C 108.33 137.60 109.86 137.84 111.36 138.28 C 110.20 140.05 108.95 141.79 107.29 143.13 C 107.43 142.59 107.70 141.51 107.84 140.97 C 107.51 139.82 107.12 138.70 106.77 137.57 Z" />
<path fill="#6b6c6b" opacity="1.00" d=" M 124.11 139.02 C 125.48 139.44 126.85 139.87 128.22 140.32 C 127.83 141.75 127.10 142.92 125.42 142.91 C 125.47 143.40 125.59 144.40 125.65 144.89 C 124.97 142.98 124.40 141.03 124.11 139.02 Z" />
<path fill="#6b6c6b" opacity="1.00" d=" M 94.94 145.69 C 95.99 146.97 97.07 148.21 98.13 149.49 C 97.09 149.96 96.02 150.37 94.96 150.79 C 94.91 149.09 94.92 147.38 94.94 145.69 Z" />
<path fill="#6b6c6b" opacity="1.00" d=" M 80.84 163.87 C 82.21 163.87 83.58 163.87 84.96 163.87 C 85.35 164.96 85.74 166.05 86.13 167.14 C 84.82 167.12 83.52 167.10 82.21 167.10 C 81.75 166.03 81.29 164.95 80.84 163.87 Z" />
<path fill="#6b6c6b" opacity="1.00" d=" M 174.05 163.99 C 174.83 165.29 175.74 166.51 176.64 167.74 C 176.74 169.90 176.84 172.06 176.90 174.22 C 176.84 174.61 176.71 175.41 176.65 175.80 C 174.71 178.82 172.78 181.89 171.61 185.31 L 171.02 185.37 C 169.64 185.39 168.27 185.37 166.90 185.32 C 167.41 184.23 167.93 183.15 168.44 182.07 C 171.38 181.66 173.97 179.14 173.99 176.10 C 174.05 172.06 173.94 168.02 174.05 163.99 Z" />
<path fill="#6b6c6b" opacity="1.00" d=" M 152.03 182.06 C 153.39 182.06 154.76 182.06 156.13 182.06 C 156.52 183.15 156.91 184.25 157.31 185.34 C 155.97 185.26 154.63 185.19 153.29 185.12 C 152.87 184.10 152.45 183.08 152.03 182.06 Z" />
</g>
<g id="#b5805bff">
<path fill="#b5805b" opacity="1.00" d=" M 174.98 76.97 C 175.67 77.68 176.35 78.39 177.02 79.13 C 177.12 79.48 177.31 80.20 177.40 80.56 C 177.20 83.48 176.28 87.15 172.92 87.81 C 168.22 88.23 163.49 87.89 158.78 87.99 L 158.21 88.00 C 157.82 86.90 157.42 85.80 157.03 84.71 C 160.71 84.66 164.39 84.79 168.07 84.67 C 170.82 84.66 173.39 82.68 174.06 80.01 C 174.37 79.00 174.68 77.98 174.98 76.97 Z" />
<path fill="#b5805b" opacity="1.00" d=" M 133.45 84.65 C 136.09 84.70 138.72 84.72 141.36 84.71 C 140.90 85.83 140.45 86.95 140.00 88.07 C 137.24 88.33 134.68 87.24 133.45 84.65 Z" />
<path fill="#b5805b" opacity="1.00" d=" M 145.46 84.74 C 147.92 84.71 150.39 84.70 152.86 84.73 C 153.22 85.82 153.57 86.92 153.91 88.02 C 150.67 87.86 147.43 88.04 144.20 88.02 C 144.62 86.93 145.04 85.83 145.46 84.74 Z" />
<path fill="#b5805b" opacity="1.00" d=" M 53.76 104.11 C 58.24 104.02 62.73 104.10 67.21 104.05 C 66.83 105.08 66.44 106.11 66.05 107.14 C 62.08 107.16 55.43 109.08 53.76 104.11 Z" />
<path fill="#b5805b" opacity="1.00" d=" M 71.86 104.05 C 77.93 103.95 84.03 104.35 90.08 103.82 C 89.76 104.98 89.44 106.15 89.14 107.32 C 88.97 107.37 88.62 107.48 88.45 107.53 C 82.27 107.21 76.09 107.49 69.91 107.35 C 70.55 106.24 71.20 105.15 71.86 104.05 Z" />
<path fill="#b5805b" opacity="1.00" d=" M 146.49 107.98 C 148.62 110.17 148.82 113.18 149.07 116.07 C 148.45 117.45 148.92 119.70 150.87 119.25 C 151.68 119.26 153.28 119.29 154.08 119.30 C 151.52 119.46 148.96 119.47 146.41 119.39 C 146.23 115.58 146.46 111.78 146.49 107.98 Z" />
<path fill="#b5805b" opacity="1.00" d=" M 146.57 121.72 C 149.07 121.62 151.57 121.49 154.08 121.70 C 153.30 121.74 151.75 121.81 150.98 121.85 C 148.89 121.31 148.35 123.74 149.25 125.16 C 149.17 125.55 148.99 126.33 148.91 126.72 C 147.90 128.45 146.93 130.22 146.28 132.13 C 146.57 128.66 146.05 125.17 146.57 121.72 Z" />
<path fill="#b5805b" opacity="1.00" d=" M 158.88 132.78 C 161.60 132.88 164.32 132.86 167.04 132.86 C 166.39 133.97 165.75 135.09 165.11 136.21 C 162.45 136.29 160.18 135.11 158.88 132.78 Z" />
<path fill="#b5805b" opacity="1.00" d=" M 171.04 132.87 C 179.36 132.64 187.73 133.27 196.03 132.53 C 195.37 133.70 194.77 134.91 194.16 136.11 C 186.07 136.20 177.98 136.08 169.89 136.16 C 170.27 135.06 170.65 133.97 171.04 132.87 Z" />
<path fill="#b5805b" opacity="1.00" d=" M 99.78 137.25 C 103.90 137.21 108.02 137.60 112.13 137.20 C 111.93 137.47 111.55 138.01 111.36 138.28 C 109.86 137.84 108.33 137.60 106.77 137.57 C 107.12 138.70 107.51 139.82 107.84 140.97 C 104.72 140.82 101.42 140.22 99.78 137.25 Z" />
<path fill="#b5805b" opacity="1.00" d=" M 112.98 140.08 C 114.25 136.19 118.41 137.34 121.56 137.35 C 121.65 138.02 121.82 139.36 121.91 140.03 C 118.93 140.22 115.95 140.25 112.98 140.08 Z" />
<path fill="#b5805b" opacity="1.00" d=" M 123.91 137.29 C 130.28 136.97 136.77 137.97 143.04 136.66 C 142.41 137.90 141.83 139.18 141.20 140.42 C 136.88 140.59 132.53 140.77 128.22 140.32 C 126.85 139.87 125.48 139.44 124.11 139.02 C 124.06 138.59 123.96 137.72 123.91 137.29 Z" />
<path fill="#b5805b" opacity="1.00" d=" M 95.02 153.05 L 96.19 152.74 C 99.02 154.77 97.03 159.13 97.70 162.21 C 97.02 163.76 96.21 165.25 95.43 166.75 C 92.54 167.07 89.63 167.24 86.72 167.15 L 86.13 167.14 C 85.74 166.05 85.35 164.96 84.96 163.87 C 87.70 163.85 90.96 164.24 92.99 161.97 C 95.50 159.69 94.80 156.06 95.02 153.05 Z" />
<path fill="#b5805b" opacity="1.00" d=" M 53.99 163.78 C 62.94 163.97 71.89 163.79 80.84 163.87 C 81.29 164.95 81.75 166.03 82.21 167.10 C 74.47 167.17 66.72 167.16 58.98 167.11 C 56.79 167.24 54.69 165.86 53.99 163.78 Z" />
<path fill="#b5805b" opacity="1.00" d=" M 171.61 185.31 C 172.78 181.89 174.71 178.82 176.65 175.80 C 177.52 179.62 176.48 185.20 171.61 185.31 Z" />
<path fill="#b5805b" opacity="1.00" d=" M 139.17 182.19 C 143.45 181.91 147.74 182.14 152.03 182.06 C 152.45 183.08 152.87 184.10 153.29 185.12 C 148.57 185.71 143.79 185.25 139.05 185.39 C 137.19 185.43 134.54 185.12 133.89 183.05 C 135.69 183.03 137.45 182.70 139.17 182.19 Z" />
<path fill="#b5805b" opacity="1.00" d=" M 156.13 182.06 C 160.23 182.07 164.34 182.07 168.44 182.07 C 167.93 183.15 167.41 184.23 166.90 185.32 C 163.88 185.40 160.87 185.43 157.85 185.36 L 157.31 185.34 C 156.91 184.25 156.52 183.15 156.13 182.06 Z" />
</g>
<g id="#0000ffff">
<path fill="#0000ff" opacity="1.00" d=" M 100.12 104.16 C 113.42 103.96 126.73 104.11 140.02 104.08 C 142.57 103.96 144.83 106.39 144.71 108.91 C 144.72 116.31 144.75 123.71 144.69 131.11 C 144.63 133.52 142.50 135.57 140.10 135.61 C 127.38 135.70 114.65 135.64 101.93 135.65 C 99.26 135.91 96.49 133.81 96.58 131.01 C 96.51 123.69 96.55 116.37 96.56 109.05 C 96.36 106.80 98.02 104.75 100.12 104.16 Z" />
</g>
</svg>
