<?xml version="1.0" encoding="UTF-8" standalone="no"?>
<!DOCTYPE svg PUBLIC "-//W3C//DTD SVG 1.1//EN" "http://www.w3.org/Graphics/SVG/1.1/DTD/svg11.dtd">
<svg width="100%" height="100%" viewBox="0 0 512 512" version="1.1" xmlns="http://www.w3.org/2000/svg" xmlns:xlink="http://www.w3.org/1999/xlink" xml:space="preserve" xmlns:serif="http://www.serif.com/" style="fill-rule:evenodd;clip-rule:evenodd;stroke-linejoin:round;stroke-miterlimit:2;">
    <circle cx="256" cy="256" r="256" style="fill:rgb(2,122,195);"/>
    <path d="M162.796,412.824L131.711,412.824C131.711,385.755 147.528,362.396 170.418,351.457C163.037,362.33 158.718,375.452 158.718,389.585C158.718,397.748 160.16,405.571 162.796,412.824ZM334.379,412.824L303.294,412.824C303.294,385.755 319.111,362.396 342.005,351.457C334.624,362.33 330.301,375.452 330.301,389.585C330.301,397.748 331.748,405.571 334.379,412.824ZM422.999,394.105C414.754,365.846 389.107,344.839 358.185,344.839C320.641,344.839 290.199,375.273 290.199,412.817L254.734,412.817C254.73,375.273 224.293,344.839 186.749,344.839C149.206,344.839 118.764,375.273 118.764,412.817L90,412.817C88.352,403.176 87.484,393.279 87.484,383.17C87.484,344.002 100.385,307.838 122.163,278.707C107.309,267.705 95.834,251.893 90.408,232.713C78.86,191.94 102.529,149.594 143.294,138.058C152.966,135.321 159.079,125.277 156.338,115.609C153.601,105.938 143.058,100.325 133.39,103.062C126.459,105.023 119.245,100.999 117.287,94.065C115.321,87.13 119.342,79.924 126.28,77.958C149.83,71.294 174.29,84.95 180.954,108.5C187.621,132.045 173.953,156.502 150.403,163.17C130.021,168.938 118.186,190.108 123.954,210.493C128.583,226.837 140.197,239.291 154.633,245.549C184.256,222.386 221.557,208.579 262.073,208.579C293.72,208.579 323.398,216.998 348.994,231.717C351.013,212.273 362.124,195.177 378.479,186.021C378.924,187.835 379.308,189.684 379.598,191.568C381.723,205.404 379.094,218.808 373.028,230.069C376.637,228.697 380.412,227.642 384.37,227.037C398.152,224.917 411.572,228.072 422.721,235.046C414.576,242.988 404.091,248.528 392.155,250.366C386.468,251.238 380.847,251.199 375.42,250.381C412.898,282.401 436.664,330.012 436.664,383.17C436.664,386.724 436.563,390.282 436.351,393.78C436.18,397.768 433.807,400.354 430.272,400.54C426.728,400.723 424.659,398.516 422.999,394.105ZM370.019,295.775C370.019,288.898 364.449,283.323 357.572,283.323C350.699,283.323 345.12,288.898 345.12,295.775C345.12,302.648 350.699,308.226 357.572,308.226C364.449,308.225 370.019,302.648 370.019,295.775Z" style="fill:white;fill-rule:nonzero;"/>
</svg>
