<?xml version="1.0" encoding="UTF-8" standalone="no"?>
<!DOCTYPE svg PUBLIC "-//W3C//DTD SVG 1.1//EN" "http://www.w3.org/Graphics/SVG/1.1/DTD/svg11.dtd">
<svg width="100%" height="100%" viewBox="0 0 125 125" version="1.1" xmlns="http://www.w3.org/2000/svg" xmlns:xlink="http://www.w3.org/1999/xlink" xml:space="preserve" xmlns:serif="http://www.serif.com/" style="fill-rule:evenodd;clip-rule:evenodd;stroke-linejoin:round;stroke-miterlimit:2;">
    <g id="Logo---center" serif:id="Logo - center" transform="matrix(1.15908,0,0,1.15908,-19.8508,3.39105e-15)">
        <g transform="matrix(1.38481e-16,2.26156,-2.26156,1.38481e-16,169.634,-22.4198)">
            <path d="M37.497,19.832C22.263,19.832 9.913,32.182 9.913,47.416L37.497,47.416L37.497,19.832Z" style="fill:white;fill-opacity:0.71;"/>
        </g>
        <g transform="matrix(0.928712,0,1.27611e-31,0.928712,-26.1263,8.12207)">
            <circle cx="95.322" cy="58.426" r="41.455" style="fill:rgb(59,193,205);"/>
            <path d="M95.322,9.75C68.457,9.75 46.646,31.561 46.646,58.426C46.646,85.29 68.457,107.101 95.322,107.101C122.186,107.101 143.997,85.29 143.997,58.426C143.997,31.561 122.186,9.75 95.322,9.75ZM95.322,16.97C118.201,16.97 136.777,35.546 136.777,58.426C136.777,81.305 118.201,99.881 95.322,99.881C72.442,99.881 53.866,81.305 53.866,58.426C53.866,35.546 72.442,16.97 95.322,16.97Z"/>
        </g>
        <g transform="matrix(1.38481e-16,2.26156,-2.26156,1.38481e-16,169.634,-22.4198)">
            <path d="M37.497,19.832C22.263,19.832 9.913,32.182 9.913,47.416L37.497,47.416L37.497,19.832Z" style="fill:rgb(233,74,55);fill-opacity:0.71;"/>
            <path d="M37.497,19.832C22.263,19.832 9.913,32.182 9.913,47.416L37.497,47.416L37.497,19.832ZM34.522,22.986L34.522,44.441C34.522,44.441 13.067,44.441 13.067,44.441C14.418,33.228 23.31,24.337 34.522,22.986L34.522,22.986Z"/>
        </g>
    </g>
</svg>
