<?xml version="1.0" encoding="UTF-8" standalone="no"?>
<!DOCTYPE svg PUBLIC "-//W3C//DTD SVG 1.1//EN" "http://www.w3.org/Graphics/SVG/1.1/DTD/svg11.dtd">
<svg width="100%" height="100%" viewBox="0 0 512 512" version="1.1" xmlns="http://www.w3.org/2000/svg" xmlns:xlink="http://www.w3.org/1999/xlink" xml:space="preserve" xmlns:serif="http://www.serif.com/" style="fill-rule:evenodd;clip-rule:evenodd;stroke-linejoin:round;stroke-miterlimit:2;">
    <g transform="matrix(1.01322,0,0,1.01322,-0.356828,-0.396476)">
        <path d="M481,70.446C481,48.123 462.877,30 440.554,30L67.446,30C45.123,30 27,48.123 27,70.446L27,443.554C27,465.877 45.123,484 67.446,484L440.554,484C462.877,484 481,465.877 481,443.554L481,70.446Z" style="fill:rgb(57,57,59);"/>
    </g>
    <g id="icons8_webcam" transform="matrix(10.4667,0,0,10.4667,256,256)">
        <g transform="matrix(1,0,0,1,-15,-15)">
            <path d="M15,3C9.477,3 5,7.477 5,13C5,18.523 9.477,23 15,23C20.523,23 25,18.523 25,13C25,7.477 20.523,3 15,3ZM15,8C17.761,8 20,10.239 20,13C20,15.761 17.761,18 15,18C12.239,18 10,15.761 10,13C10,10.239 12.239,8 15,8ZM15,10C13.343,10 12,11.343 12,13C12,14.657 13.343,16 15,16C16.657,16 18,14.657 18,13C18,12.695 17.941,12.407 17.857,12.131C17.618,12.643 17.102,13 16.5,13C15.672,13 15,12.328 15,11.5C15,10.898 15.357,10.382 15.869,10.143C15.593,10.059 15.305,10 15,10ZM9.863,23.832L7.529,25.119C7.204,25.292 7.001,25.632 7,26C7,26.549 7.451,27 8,27L22,27C22.549,27 23,26.549 23,26C22.999,25.632 22.796,25.292 22.471,25.119L20.137,23.832C18.578,24.573 16.841,25 15,25C13.159,25 11.422,24.572 9.863,23.832Z" style="fill:white;fill-rule:nonzero;"/>
        </g>
    </g>
    <g transform="matrix(1,0,0,1,-25,0)">
        <g transform="matrix(0.921255,0.388959,-0.388959,0.921255,174.922,-22.4629)">
            <path d="M114.51,374L122.931,399.919L150.183,399.919L128.136,415.937L136.557,441.856L114.51,425.837L92.462,441.856L100.883,415.937L78.836,399.919L106.088,399.919L114.51,374Z" style="fill:rgb(236,19,33);"/>
        </g>
        <g transform="matrix(0.960161,0.279448,-0.279448,0.960161,200.716,5.17621)">
            <path d="M114.51,374L122.931,399.919L150.183,399.919L128.136,415.937L136.557,441.856L114.51,425.837L92.462,441.856L100.883,415.937L78.836,399.919L106.088,399.919L114.51,374Z" style="fill:rgb(236,19,33);"/>
        </g>
        <g transform="matrix(0.999605,-0.0281065,0.0281065,0.999605,153.955,34.3662)">
            <path d="M114.51,374L122.931,399.919L150.183,399.919L128.136,415.937L136.557,441.856L114.51,425.837L92.462,441.856L100.883,415.937L78.836,399.919L106.088,399.919L114.51,374Z" style="fill:rgb(236,19,33);"/>
        </g>
        <g transform="matrix(0.952421,-0.304787,0.304787,0.952421,132.189,70.6957)">
            <path d="M114.51,374L122.931,399.919L150.183,399.919L128.136,415.937L136.557,441.856L114.51,425.837L92.462,441.856L100.883,415.937L78.836,399.919L106.088,399.919L114.51,374Z" style="fill:rgb(236,19,33);"/>
        </g>
        <g transform="matrix(0.921261,-0.388944,0.388944,0.921261,178.922,64.6424)">
            <path d="M114.51,374L122.931,399.919L150.183,399.919L128.136,415.937L136.557,441.856L114.51,425.837L92.462,441.856L100.883,415.937L78.836,399.919L106.088,399.919L114.51,374Z" style="fill:rgb(236,19,33);"/>
        </g>
    </g>
    <g transform="matrix(3.4375,0,0,3.4375,170.063,25.375)">
        <path d="M25,6C22.801,6 21,7.801 21,10C21,11.184 21.547,12.234 22.375,12.969L15.5,24.875L8.719,21.469C8.898,21.016 9,20.516 9,20C9,17.801 7.199,16 5,16C2.801,16 1,17.801 1,20C1,22.176 2.77,23.965 4.938,24L7.75,36L42.25,36L45.063,24C47.23,23.965 49,22.176 49,20C49,17.801 47.199,16 45,16C42.801,16 41,17.801 41,20C41,20.469 41.098,20.926 41.25,21.344L34.406,24.781L27.594,13C28.441,12.266 29,11.199 29,10C29,7.801 27.199,6 25,6ZM25,8C26.117,8 27,8.883 27,10C27,11.117 26.117,12 25,12C23.883,12 23,11.117 23,10C23,8.883 23.883,8 25,8ZM5,18C6.117,18 7,18.883 7,20C7,21.117 6.117,22 5,22C3.883,22 3,21.117 3,20C3,18.883 3.883,18 5,18ZM45,18C46.117,18 47,18.883 47,20C47,21.117 46.117,22 45,22C43.883,22 43,21.117 43,20C43,18.883 43.883,18 45,18ZM8,38L8,43C8,43.555 8.449,44 9,44L41,44C41.555,44 42,43.555 42,43L42,38L8,38Z" style="fill:rgb(233,205,51);fill-rule:nonzero;"/>
    </g>
</svg>
