<?xml version="1.0" encoding="UTF-8" standalone="no"?><!DOCTYPE svg PUBLIC "-//W3C//DTD SVG 1.1//EN" "http://www.w3.org/Graphics/SVG/1.1/DTD/svg11.dtd"><svg width="100%" height="100%" viewBox="0 0 123 123" version="1.1" xmlns="http://www.w3.org/2000/svg" xmlns:xlink="http://www.w3.org/1999/xlink" xml:space="preserve" xmlns:serif="http://www.serif.com/" style="fill-rule:evenodd;clip-rule:evenodd;stroke-linejoin:round;stroke-miterlimit:2;"><path d="M54.096,28.836l-0.309,0.177l-15.572,7.078l-0.443,0.177l-0.221,0.442l-8.494,15.573l-0.221,0.353l0.044,0.399l1.416,21.234l0.044,0.487l0.31,0.398l14.156,15.572l0.354,0.354l0.487,0.089l19.819,2.831l0.398,0.044l0.354,-0.133l16.988,-7.078l0.398,-0.177l7.299,-10.219l0.177,-0.31l0.089,-0.309l2.831,-18.404l0.044,-0.354l-0.133,-0.354l-5.662,-15.572l-0.133,-0.398l-0.398,-0.265l-14.157,-9.91l-0.309,-0.221l-0.398,-0.044l-18.404,-1.416l-0.354,-0.044Zm0.045,3.097l3.539,2.831l-11.281,0.708l7.742,-3.539Zm4.689,0.132l7.476,0.575l-4.601,1.726l-2.875,-2.301Zm13.36,1.372l5.22,7.83l-12.21,-5.22l6.99,-2.61Zm5.928,3.716l6.017,4.247l-2.389,1.194l-3.628,-5.441Zm-19.996,0.442l-8.051,9.025l-8.008,-8.007l16.059,-1.018Zm5.486,0.796l14.952,6.415l-10.661,8.538l-4.291,-14.953Zm-2.832,0.443l4.159,14.466l-12.431,-5.176l8.272,-9.29Zm-20.748,1.814l8.14,8.14l-9.157,10.13l1.017,-18.27Zm-3.008,2.919l-0.84,15.174l-4.203,-5.883l5.043,-9.291Zm49.105,0.045l4.645,12.741l-4.335,1.769l-3.495,-12.918l3.185,-1.592Zm-5.662,3.273l3.052,11.237l-13.271,-3.052l10.219,-8.185Zm-28.8,4.026l12.918,5.353l-11.812,11.812l-1.106,-17.165Zm-2.743,1.239l1.018,16.634l-10.396,-6.238l9.378,-10.396Zm20.173,5.53l13.98,3.229l-9.688,12.874l-4.292,-16.103Zm-37.028,0.177l3.672,5.131l-2.964,5.884l-0.708,-11.015Zm34.33,0.663l4.379,16.457l-16.456,-4.38l12.077,-12.077Zm24.375,0.929l-1.415,9.335l-2.168,-7.919l3.583,-1.416Zm-5.883,3.761l3.052,11.104l-12.121,1.017l9.069,-12.121Zm-45.257,2.61l9.335,5.618l-6.504,4.645l-2.831,-10.263Zm-2.654,1.017l2.521,9.158l-5.839,-2.522l3.318,-6.636Zm14.156,6.548l6.68,10.44l-13.316,-5.707l6.636,-4.733Zm3.584,0.265l15.129,4.026l-8.095,7.078l-7.034,-11.104Zm32.073,3.628l-4.38,6.149l-6.149,-5.265l10.529,-0.884Zm-49.636,0.752l3.362,1.46l1.46,3.848l-4.822,-5.308Zm35.612,0.84l6.371,5.442l-13.626,0.929l7.255,-6.371Zm-28.667,2.168l12.52,5.353l-9.865,1.769l-2.655,-7.122Zm30.127,6.459l-8.051,3.362l-2.035,-2.699l10.086,-0.663Zm-13.404,0.973l1.681,2.212l-7.831,-1.106l6.15,-1.106Z" style="fill:#14558a;fill-rule:nonzero;"/><path d="M61.44,10.24c-14.093,0 -26.909,5.751 -36.18,15.02l-9.9,-9.9l-0,25.6l25.6,0l-8.47,-8.47c7.415,-7.423 17.636,-12.01 28.95,-12.01c22.628,0 40.96,18.332 40.96,40.96l10.24,0c-0,-28.183 -23.017,-51.2 -51.2,-51.2Zm2.94,83.46l-5.13,-0l5.13,-0Zm-54.14,-32.26c-0,28.183 23.017,51.2 51.2,51.2c14.093,-0 26.909,-5.751 36.18,-15.02l9.9,9.9l-0,-25.6l-25.6,-0l8.47,8.47c-7.415,7.423 -17.636,12.01 -28.95,12.01c-22.628,-0 -40.96,-18.332 -40.96,-40.96l-10.24,-0Z" style="fill:#f07e00;fill-rule:nonzero;"/></svg>