<?xml version="1.0" encoding="UTF-8" standalone="no"?><!DOCTYPE svg PUBLIC "-//W3C//DTD SVG 1.1//EN" "http://www.w3.org/Graphics/SVG/1.1/DTD/svg11.dtd"><svg width="100%" height="100%" viewBox="0 0 123 123" version="1.1" xmlns="http://www.w3.org/2000/svg" xmlns:xlink="http://www.w3.org/1999/xlink" xml:space="preserve" xmlns:serif="http://www.serif.com/" style="fill-rule:evenodd;clip-rule:evenodd;stroke-linejoin:round;stroke-miterlimit:2;"><g><rect x="18.24" y="18.24" width="86.4" height="86.4" style="fill:#c1c1c1;"/><path d="M106.711,106.711l-0,-90.542l-90.542,0l0,90.542l90.542,-0Zm-2.071,-88.471l-86.4,0l0,86.4l86.4,0l-0,-86.4Z" style="fill:#4a4a4a;"/><g><g><rect x="26.64" y="29.471" width="69.6" height="12.273" style="fill:#bad3ec;"/><rect x="31.196" y="33.604" width="60.489" height="4.008" style="fill:#88a1ba;"/></g><g><rect x="26.64" y="41.744" width="63.779" height="12.273" style="fill:#bad3ec;"/><rect x="30.815" y="45.877" width="55.43" height="4.008" style="fill:#88a1ba;"/></g><g><rect x="26.64" y="54.017" width="57.705" height="12.273" style="fill:#bad3ec;"/><rect x="30.417" y="58.15" width="50.151" height="4.008" style="fill:#88a1ba;"/></g><g><rect x="26.64" y="66.29" width="69.6" height="12.273" style="fill:#bad3ec;"/><rect x="31.196" y="70.423" width="60.489" height="4.008" style="fill:#88a1ba;"/></g><g><rect x="26.64" y="78.563" width="44.544" height="12.273" style="fill:#bad3ec;"/><rect x="29.556" y="82.696" width="38.713" height="4.008" style="fill:#88a1ba;"/></g><g><rect x="72.648" y="75.991" width="4.014" height="17.418" style="fill:#242424;"/><path d="M81.043,79.963l-0,-3.972l-12.775,-0l0,3.972l12.775,0Z" style="fill:#242424;"/><path d="M81.043,93.409l-0,-3.972l-12.775,-0l0,3.972l12.775,0Z" style="fill:#242424;"/></g></g></g></svg>