<?xml version="1.0" encoding="UTF-8" standalone="no"?>
<svg
   xmlns:dc="http://purl.org/dc/elements/1.1/"
   xmlns:cc="http://creativecommons.org/ns#"
   xmlns:rdf="http://www.w3.org/1999/02/22-rdf-syntax-ns#"
   xmlns:svg="http://www.w3.org/2000/svg"
   xmlns="http://www.w3.org/2000/svg"
   xmlns:sodipodi="http://sodipodi.sourceforge.net/DTD/sodipodi-0.dtd"
   xmlns:inkscape="http://www.inkscape.org/namespaces/inkscape"
   width="392pt"
   height="392pt"
   viewBox="0 0 392 392"
   version="1.1"
   id="svg41"
   sodipodi:docname="2018-11-14_23h29_50.svg"
   inkscape:version="0.92.3 (2405546, 2018-03-11)"
   inkscape:export-filename="C:\Users\tobse\Desktop\Commanderpng.png"
   inkscape:export-xdpi="94.523079"
   inkscape:export-ydpi="94.523079">
  <metadata
     id="metadata47">
    <rdf:RDF>
      <cc:Work
         rdf:about="">
        <dc:format>image/svg+xml</dc:format>
        <dc:type
           rdf:resource="http://purl.org/dc/dcmitype/StillImage" />
        <dc:title></dc:title>
      </cc:Work>
    </rdf:RDF>
  </metadata>
  <defs
     id="defs45" />
  <sodipodi:namedview
     pagecolor="#ffffff"
     bordercolor="#666666"
     borderopacity="1"
     objecttolerance="10"
     gridtolerance="10"
     guidetolerance="10"
     inkscape:pageopacity="0"
     inkscape:pageshadow="2"
     inkscape:window-width="3840"
     inkscape:window-height="2081"
     id="namedview43"
     showgrid="false"
     inkscape:zoom="1.8061224"
     inkscape:cx="-80.634157"
     inkscape:cy="142.19407"
     inkscape:window-x="-9"
     inkscape:window-y="-9"
     inkscape:window-maximized="1"
     inkscape:current-layer="svg41" />
  <rect
     style="opacity:1;fill:#ffffff;fill-opacity:1;stroke:#69899f;stroke-width:0.70423603;stroke-miterlimit:4;stroke-dasharray:none;stroke-opacity:1"
     id="rect4559"
     width="291.02094"
     height="221.43085"
     x="46.114365"
     y="169.70551" />
  <g
     id="#8da3caff"
     transform="translate(1.4999999)">
    <path
       d="m 11.31,0 h 284.37 c -0.0656,1.1440525 -0.12476,3.5207867 -0.13,8.53 40.7169,-2.9102033 -0.07,81.64 -0.11,122.46 0.18,5.43 -5.06,10.27 -10.37,10.33 -56.37,0 -112.74,-0.02 -169.1,0 -3.26,0.18 -6.22,-1.6 -8.46,-3.81 -2.26,-2.19 -2.02,-5.59 -2.12,-8.47 C 105.62,86.68 105.14,44.32 105.66,1.97 98.78,1.34 91.87,1.79 84.97,1.67 76.33,1.79 67.68,1.29 59.04,1.56 42.65,1.58 26.25,1.89 9.88,1.4 L 11.31,0 m 210.37,23.58 c 0.13,34.92 -0.03,69.84 0.1,104.76 13.91,-0.05 27.83,-0.26 41.74,0.06 0.1,-34.95 0.24,-69.93 -0.06,-104.88 -13.93,0.11 -27.86,-0.05 -41.78,0.06 z"
       id="path11"
       inkscape:connector-curvature="0"
       style="opacity:1;fill:#8da3ca"
       sodipodi:nodetypes="cccccccccccccccccc" />
    <path
       d="M 1.85,11 C 1.52,6.88 4.38,3.24 8.27,2.14 6.49,3.9 4.56,5.67 3.57,8.02 2.92,11.64 3.26,15.33 3.22,18.99 3.19,136.3 3.24,253.62 3.19,370.94 c 0.13,4.02 -0.79,8.61 1.93,12.02 2.4,3.28 6.87,3.42 10.32,4.97 4.93,2.14 10.37,1.17 15.57,1.32 9.29,-0.24 18.63,0.6 27.88,-0.41 1.37,-0.18 2.75,-0.32 4.13,-0.41 82.32,0.03 164.63,-0.01 246.95,0.02 7.15,0 14.3,0.08 21.45,-0.15 7.52,0.5 15.06,0.14 22.58,0.25 8.33,-0.12 16.72,0.41 24.99,-0.91 0.4,3.27 -2.83,4.04 -5.34,4.36 H 13.31 C 11.56,387.3 5.69,386.83 3.37,382.63 1.08,378.85 1.94,374.2 1.8,370.01 1.86,250.34 1.76,130.67 1.85,11 Z"
       id="path13"
       inkscape:connector-curvature="0"
       style="opacity:1;fill:#8da3ca" />
  </g>
  <g
     id="#2d5ec3ff"
     transform="translate(1.4999999)">
    <path
       d="m 8.27,2.14 c 0.4,-0.18 1.2,-0.55 1.61,-0.74 16.37,0.49 32.77,0.18 49.16,0.16 0.15,2.04 0.29,4.08 0.44,6.12 4.27,0.14 8.55,0.08 12.82,-0.12 0.85,-1.66 1.69,-3.33 2.5,-5.01 7.38,0.58 15,-1.05 22.16,1.33 2.99,0.68 6.25,-0.09 8.7,-1.91 -0.52,42.35 -0.04,84.71 -0.27,127.07 0.1,2.88 -0.14,6.28 2.12,8.47 2.24,2.21 5.2,3.99 8.46,3.81 56.36,-0.02 112.73,0 169.1,0 5.31,-0.06 10.55,-4.9 10.37,-10.33 0.04,-40.82 -0.14,-81.64 0.11,-122.46 3.85,-0.1 7.72,0.14 11.56,-0.22 C 309.25,7 309.77044,3.3728527 311.60044,1.7128527 316.06704,1.5070364 320.42,1.81 325.04,1.65 c 9.35,0.2 19.14374,-0.5835182 28.47374,0.046482 4.08922,3.5469255 8.03363,7.9958164 12.49626,12.013518 7.95711,8.081505 14.85,15.01 22.42,22.36 0.05,110.98 0,221.96 0.03,332.93 -0.04,3.28 0.23,6.58 -0.2,9.84 -0.73,3.81 -3.8,6.49 -6.87,8.55 -0.8,0.08 -1.61,0.16 -2.4,0.25 -8.27,1.32 -16.66,0.79 -24.99,0.91 -7.52,-0.11 -15.06,0.25 -22.58,-0.25 -0.42,-0.22 -1.25,-0.67 -1.67,-0.9 0.43,-0.54 1.3,-1.61 1.73,-2.14 0,-5.52 0.08,-11.05 -0.63,-16.53 l 0.56,-0.71 c 0.34,-59.66 0,-119.33 0.16,-178.99 0.23,-4.17 -0.67,-8.89 -4.31,-11.43 -4.02,-3.24 -9.48,-2.15 -14.25,-2.31 -80.66,0.04 -161.32,0 -241.98,0 -5.91,-0.55 -12.06,4.52 -11.64,10.67 -0.06,56.69 0,113.38 -0.03,170.06 -0.15,4.19 0.62,8.54 -0.7,12.61 -0.63,1.71 -0.99,3.51 -0.85,5.34 0.21,4.97 -0.69,10.09 1.08,14.87 -9.25,1.01 -18.59,0.17 -27.88,0.41 -5.2,-0.15 -10.64,0.82 -15.57,-1.32 -3.45,-1.55 -7.92,-1.69 -10.32,-4.97 -2.72,-3.41 -1.8,-8 -1.93,-12.02 C 3.24,253.62 3.19,136.3 3.22,18.99 3.26,15.33 2.92,11.64 3.57,8.02 4.56,5.67 6.49,3.9 8.27,2.14 m 342.07,340.34 c 0.2839,1.86428 -0.003,3.36895 -0.53,4.58 0.74,4.84 0.49,9.74 0.59,14.61 6.66,-0.06 13.32,0.16 19.97,-0.32 0.07,-6.23 0.08,-12.47 0.01,-18.7 m -348.94,0.78 c -0.92,5.1 -1.19,10.37 -0.4,15.5 0.39,2.8 3.86,2.47 5.97,2.56 4.15,-0.22 8.33,0.45 12.45,0.01 1.95,-3.43 0.68,-7.72 1.02,-11.5 -0.27,-2.32 0.57,-6.36 -2.53,-6.93 -5.45,-0.75 -11.09,-0.74 -16.51,0.36 z"
       id="path18"
       inkscape:connector-curvature="0"
       style="opacity:1;fill:#2d5ec3"
       sodipodi:nodetypes="cccccccccccccccccccccccccccccccccccccccccccccccccccccccccc" />
    <path
       d="m 221.68,23.58 c 13.92,-0.11 27.85,0.05 41.78,-0.06 0.3,34.95 0.16,69.93 0.06,104.88 -13.91,-0.32 -27.83,-0.11 -41.74,-0.06 -0.13,-34.92 0.03,-69.84 -0.1,-104.76 z"
       id="path20"
       inkscape:connector-curvature="0"
       style="opacity:1;fill:#2d5ec3" />
  </g>
  <g
     id="#1e3e87ff"
     transform="translate(1.4999999)">
    <path
       d="m 59.04,1.56 c 8.64,-0.27 17.29,0.23 25.93,0.11 6.9,0.12 13.81,-0.33 20.69,0.3 -2.45,1.82 -5.71,2.59 -8.7,1.91 C 89.8,1.5 82.18,3.13 74.8,2.55 73.99,4.23 73.15,5.9 72.3,7.56 68.03,7.76 63.75,7.82 59.48,7.68 59.33,5.64 59.19,3.6 59.04,1.56 Z"
       id="path23"
       inkscape:connector-curvature="0"
       style="opacity:1;fill:#1e3e87" />
    <path
       d="m 350.34,342.48 c 6.68,0.11 13.36,-0.11 20.04,0.17 0.07,6.23 0.06,12.47 -0.01,18.7 -6.65,0.48 -13.31,0.26 -19.97,0.32 -0.1,-4.87 -0.51067,-9.58648 -0.59,-14.61 0.0437,-1.61506 0.05,-3.1 0.53,-4.58 z"
       id="path25"
       inkscape:connector-curvature="0"
       style="opacity:1;fill:#1e3e87"
       sodipodi:nodetypes="cccccc" />
    <path
       d="m 21.44,343.43 c 5.42,-1.1 11.06,-1.11 16.51,-0.36 3.1,0.57 2.26,4.61 2.53,6.93 -0.34,3.78 0.93,8.07 -1.02,11.5 -4.12,0.44 -8.3,-0.23 -12.45,-0.01 -2.11,-0.09 -5.58,0.24 -5.97,-2.56 -0.79,-5.13 -0.52,-10.4 0.4,-15.5 z"
       id="path27"
       inkscape:connector-curvature="0"
       style="opacity:1;fill:#1e3e87" />
    <path
       d="m 57.81,373.97 c -0.14,-1.83 0.22,-3.63 0.85,-5.34 0.49,-0.01 1.47,-0.04 1.96,-0.06 -1.85,5.38 -0.9,11.13 -1.12,16.7 0.34,0.56 1.02,1.68 1.36,2.24 79.06,0.04 158.12,0 237.19,0.01 10.56,-0.02 21.13,0.1 31.7,-0.12 0.42,0.23 1.25,0.68 1.67,0.9 -7.15,0.23 -14.3,0.15 -21.45,0.15 -82.32,-0.03 -164.63,0.01 -246.95,-0.02 -1.38,0.09 -2.76,0.23 -4.13,0.41 -1.77,-4.78 -0.87,-9.9 -1.08,-14.87 z"
       id="path29"
       inkscape:connector-curvature="0"
       style="opacity:1;fill:#1e3e87" />
  </g>
  <g
     id="#d70005ff"
     transform="translate(1.4999999)">
    <path
       d="m 74.93,216.52 c 5.01,-0.43 10.03,-0.18 15.05,-0.23 58.31,-0.03 116.62,0 174.93,-0.01 17.08,0.13 34.18,-0.27 51.25,0.22 0.75418,0.24368 1.16656,0.63424 1.22,2.5 0.28,2.56 0.18716,6.86567 -1.25,7.36 -32.67,0.3 -65.36,0.04 -98.04,0.13 -47.41,-0.03 -94.81,0.05 -142.22,-0.04 -1.049767,-0.079 -2.358835,-0.0804 -2.36,-2.34 -0.01,-1.73 0,-3.46 0,-5.19 0.08749,-0.85953 0.148655,-2.21525 1.42,-2.4 z"
       id="path32"
       inkscape:connector-curvature="0"
       style="opacity:1;fill:#d70005"
       sodipodi:nodetypes="ccccccccccc" />
    <path
       d="m 60.62,368.57 c 90.08,0.17 180.6188,-0.14 270.6888,0.16 0.37049,5.49835 0.1712,11.01 0.1712,16.53 -0.0446,1.64946 -1.3,1.6 -1.73,2.14 -10.57,0.22 -21.14,0.1 -31.7,0.12 -79.07,-0.01 -158.13,0.03 -237.19,-0.01 0,0 -0.658083,-0.15228 -0.915008,-0.6019 C 59.393749,386.35686 59.5,385.27 59.5,385.27 c 0.22,-5.57 -0.73,-11.32 1.12,-16.7 z"
       id="path38"
       inkscape:connector-curvature="0"
       style="opacity:1;fill:#d70005"
       sodipodi:nodetypes="ccccccccc" />
  </g>
  <g
     inkscape:groupmode="layer"
     id="layer1"
     inkscape:label="Layer 1"
     style="display:inline" />
  <path
     d="m 76.187452,267.92773 c 5.01,-0.43 10.03,-0.18 15.049996,-0.23 58.310002,-0.03 116.620012,0 174.930012,-0.01 17.08,0.13 34.18,-0.27 51.25001,0.22 0.75417,0.24368 1.16655,0.63424 1.21999,2.5 0.28001,2.56 0.18716,6.86567 -1.24999,7.36 -32.67001,0.3 -65.36001,0.04 -98.04001,0.13 -47.41001,-0.03 -94.81001,0.05 -142.220008,-0.04 -1.049767,-0.079 -2.358835,-0.0804 -2.36,-2.34 -0.01,-1.73001 0,-3.46001 0,-5.19001 0.08749,-0.85953 0.148655,-2.21525 1.42,-2.4 z"
     id="path32-0"
     inkscape:connector-curvature="0"
     style="opacity:1;fill:#d70005;stroke-width:1"
     sodipodi:nodetypes="ccccccccccc" />
  <path
     d="m 76.597673,319.72342 c 5.01,-0.43 10.03,-0.18 15.049996,-0.23 58.310001,-0.03 116.620021,0 174.930021,-0.01 17.08,0.13 34.18,-0.27 51.25001,0.22 0.75417,0.24368 1.16655,0.63424 1.21999,2.5 0.28001,2.56 0.18716,6.86567 -1.24999,7.36 -32.67001,0.3 -65.36001,0.04 -98.04001,0.13 -47.41002,-0.03 -94.81002,0.05 -142.220017,-0.04 -1.049767,-0.079 -2.358835,-0.0804 -2.36,-2.34 -0.01,-1.73001 0,-3.46001 0,-5.19001 0.08749,-0.85954 0.148655,-2.21526 1.42,-2.40001 z"
     id="path32-0-7"
     inkscape:connector-curvature="0"
     style="opacity:1;fill:#d70005;stroke-width:1"
     sodipodi:nodetypes="ccccccccccc" />
</svg>
