<?xml version="1.0" encoding="UTF-8" standalone="no"?>
<!DOCTYPE svg PUBLIC "-//W3C//DTD SVG 1.1//EN" "http://www.w3.org/Graphics/SVG/1.1/DTD/svg11.dtd">
<svg width="100%" height="100%" viewBox="0 0 512 512" version="1.1" xmlns="http://www.w3.org/2000/svg" xmlns:xlink="http://www.w3.org/1999/xlink" xml:space="preserve" xmlns:serif="http://www.serif.com/" style="fill-rule:evenodd;clip-rule:evenodd;stroke-linecap:round;stroke-linejoin:round;">
    <g id="circle">
        <circle cx="255" cy="255" r="248" style="fill:rgb(16,170,70);"/>
        <path d="M255,7C391.875,7 503,118.125 503,255C503,391.875 391.875,503 255,503C118.125,503 7,391.875 7,255C7,118.125 118.125,7 255,7ZM255,29C379.733,29 481,130.267 481,255C481,379.733 379.733,481 255,481C130.267,481 29,379.733 29,255C29,130.267 130.267,29 255,29Z" style="fill:rgb(0,101,45);"/>
    </g>
    <g>
        <rect id="Form_1" x="254.5" y="116.5" width="1" height="138" style="stroke:white;stroke-width:45px;"/>
        <path id="Form_1_Kopie_2" d="M253.973,254.854L254.531,255.684L140.031,332.713L139.472,331.884L253.973,254.854Z" style="stroke:white;stroke-width:45px;"/>
        <path id="Form_1_Kopie" d="M255.688,255.845L256.24,255.011L371.358,331.111L370.807,331.945L255.688,255.845Z" style="stroke:white;stroke-width:45px;stroke-linecap:butt;"/>
        <path d="M232.021,241.827L127.005,312.617C116.482,319.71 113.698,334.012 120.791,344.534C127.884,355.057 142.186,357.841 152.709,350.748L254.295,282.27L358.362,350.226C368.987,357.165 383.247,354.171 390.185,343.546C397.124,332.921 394.13,318.662 383.505,311.723L278.007,242.832L278.007,116.968C278.007,104.278 267.704,93.975 255.014,93.975C242.324,93.975 232.021,104.278 232.021,116.968L232.021,241.827Z" style="fill:white;"/>
        <path d="M214.021,232.253L116.944,297.691C98.184,310.337 93.22,335.835 105.866,354.595C118.512,373.355 144.009,378.32 162.77,365.674C162.77,365.674 254.453,303.871 254.453,303.871C254.453,303.871 348.521,365.298 348.521,365.298C367.464,377.668 392.886,372.331 405.257,353.388C417.627,334.445 412.29,309.022 393.347,296.652C393.347,296.652 296.007,233.088 296.007,233.088C296.007,233.089 296.007,116.968 296.007,116.968C296.007,94.343 277.638,75.975 255.014,75.975C232.389,75.975 214.021,94.343 214.021,116.968L214.021,232.253ZM232.021,241.827L127.005,312.617C116.482,319.71 113.698,334.012 120.791,344.534C127.884,355.057 142.186,357.841 152.709,350.748L254.295,282.27L358.362,350.226C368.987,357.165 383.247,354.171 390.185,343.546C397.124,332.921 394.13,318.662 383.505,311.723L278.007,242.832L278.007,116.968C278.007,104.278 267.704,93.975 255.014,93.975C242.324,93.975 232.021,104.278 232.021,116.968L232.021,241.827Z" style="fill:rgb(46,205,102);"/>
    </g>
</svg>
