<?xml version="1.0" encoding="UTF-8" standalone="no"?>
<!DOCTYPE svg PUBLIC "-//W3C//DTD SVG 1.1//EN" "http://www.w3.org/Graphics/SVG/1.1/DTD/svg11.dtd">
<svg width="100%" height="100%" viewBox="0 0 512 512" version="1.1" xmlns="http://www.w3.org/2000/svg" xmlns:xlink="http://www.w3.org/1999/xlink" xml:space="preserve" xmlns:serif="http://www.serif.com/" style="fill-rule:evenodd;clip-rule:evenodd;stroke-linejoin:round;stroke-miterlimit:2;">
    <g id="circle" transform="matrix(2,0,0,2,0,0)">
        <circle cx="128" cy="128" r="128" style="fill:rgb(244,218,62);"/>
        <path d="M128,0C198.645,0 256,57.355 256,128C256,198.645 198.645,256 128,256C57.355,256 0,198.645 0,128C0,57.355 57.355,0 128,0ZM128,14C190.918,14 242,65.082 242,128C242,190.918 190.918,242 128,242C65.082,242 14,190.918 14,128C14,65.082 65.082,14 128,14Z"/>
    </g>
    <g id="Form_1" transform="matrix(2,0,0,2,0,0)">
        <path d="M92,36L119,68L127,55L150,41L156,36L244,149L247,168L227,196L206,215L187,228L159,241L146,241L109,216L121,204L114,203L51,130L60,102L81,44L92,36Z" style="fill:rgb(234,210,30);"/>
    </g>
    <g id="circle1" serif:id="circle" transform="matrix(2,0,0,2,0,0)">
        <path d="M128,0C198.645,0 256,57.355 256,128C256,198.645 198.645,256 128,256C57.355,256 0,198.645 0,128C0,57.355 57.355,0 128,0ZM128,14C190.918,14 242,65.082 242,128C242,190.918 190.918,242 128,242C65.082,242 14,190.918 14,128C14,65.082 65.082,14 128,14Z"/>
    </g>
    <g id="Ellipse_1_Kopie" transform="matrix(2,0,0,2,0,0)">
        <circle cx="128" cy="128" r="128" style="fill:rgb(244,218,62);fill-opacity:0;"/>
    </g>
    <g id="U" transform="matrix(1.886,0,-0.502,1.988,51.984,278.866)">
        <text x="0px" y="0px" style="font-family:'Arial-Black', 'Arial', sans-serif;font-weight:900;font-size:144.8px;">U</text>
    </g>
    <g id="E" transform="matrix(1.886,0,-0.502,1.988,197.984,432.866)">
        <text x="0px" y="0px" style="font-family:'Arial-Black', 'Arial', sans-serif;font-weight:900;font-size:144.8px;">E</text>
    </g>
</svg>
