<?xml version="1.0" encoding="UTF-8" standalone="no"?><!DOCTYPE svg PUBLIC "-//W3C//DTD SVG 1.1//EN" "http://www.w3.org/Graphics/SVG/1.1/DTD/svg11.dtd"><svg width="100%" height="100%" viewBox="0 0 512 512" version="1.1" xmlns="http://www.w3.org/2000/svg" xmlns:xlink="http://www.w3.org/1999/xlink" xml:space="preserve" xmlns:serif="http://www.serif.com/" style="fill-rule:evenodd;clip-rule:evenodd;stroke-linejoin:round;stroke-miterlimit:2;"><g><path d="M367.129,67.244l81.317,81.317l0.578,46.233l-110.582,110.582l-128.128,-128.127l110.583,-110.582l46.232,0.577Zm-114.388,110.005l85.701,85.7l80.426,-80.426l-0.267,-21.381l-64.053,-64.052l-21.381,-0.268l-80.426,80.427Z"/><path d="M231.528,177.249l95.504,-95.505l33.807,0.423l72.684,72.685l0.423,33.806l-95.504,95.505l-106.914,-106.914Z" style="fill:#d6dde5;"/><path d="M359.613,284.205l-138.989,138.988l48.776,48.775l-228.445,0.2l0.053,-226.891l51.343,49.935l139.641,-139.641l127.621,128.634Zm-266.97,53.141l-21.651,-21.059l-0.03,125.855l126.074,-0.11l-18.838,-18.839l139.072,-139.072l-85.362,-86.04l-139.265,139.265Z" style="fill:#2d6b2d;"/><path d="M199.411,423.193l139.031,-139.03l-106.492,-107.337l-139.453,139.453l-36.497,-35.497l-0.042,176.373l177.26,-0.155l-33.807,-33.807Z" style="fill:#44c32b;"/><path d="M344.78,199.646l38.878,-38.878l21.552,21.552l-38.878,38.877l-21.552,-21.551Z" style="fill:#5b5f65;"/><path d="M293.648,148.513l38.878,-38.878l21.551,21.552l-38.877,38.878l-21.552,-21.552Z" style="fill:#5b5f65;"/></g></svg>