<?xml version="1.0" encoding="UTF-8" standalone="no"?><!DOCTYPE svg PUBLIC "-//W3C//DTD SVG 1.1//EN" "http://www.w3.org/Graphics/SVG/1.1/DTD/svg11.dtd"><svg width="100%" height="100%" viewBox="0 0 512 512" version="1.1" xmlns="http://www.w3.org/2000/svg" xmlns:xlink="http://www.w3.org/1999/xlink" xml:space="preserve" xmlns:serif="http://www.serif.com/" style="fill-rule:evenodd;clip-rule:evenodd;stroke-linejoin:round;stroke-miterlimit:2;"><rect x="0" y="0" width="512" height="512" style="fill:#5b90a2;"/><rect x="31" y="30" width="450" height="450" style="fill:#ffb516;"/><circle cx="256" cy="256" r="74" style="fill:#fff;"/><path d="M256,72c101.552,0 184,82.448 184,184c0,101.552 -82.448,184 -184,184c-101.552,-0 -184,-82.448 -184,-184c0,-101.552 82.448,-184 184,-184Zm0,46.92c75.657,-0 137.08,61.423 137.08,137.08c0,75.657 -61.423,137.08 -137.08,137.08c-75.657,0 -137.08,-61.423 -137.08,-137.08c-0,-75.657 61.423,-137.08 137.08,-137.08Z" style="fill:#fff;"/><rect x="256" y="256" width="225" height="224" style="fill:#5b90a2;"/><path d="M308,475l168,-165l-0,165l-168,0Z" style="fill:#fffefc;"/><path d="M453,285l-168,165l0,-165l168,0Z" style="fill:#fff;"/></svg>