<svg id="Gruppe_1" data-name="Gruppe 1" xmlns="http://www.w3.org/2000/svg" width="256" height="256" viewBox="0 0 256 256">
  <defs>
    <style>
      .cls-1 {
        fill: #f5f5f5;
        stroke: #979797;
        stroke-width: 6px;
      }

      .cls-2, .cls-3 {
        fill: #fa572c;
      }

      .cls-2 {
        fill-rule: evenodd;
      }
    </style>
  </defs>
  <circle class="cls-1" cx="128" cy="128" r="121"/>
  <path id="Form_1" data-name="Form 1" class="cls-2" d="M86,138s6.318-4,8-7a20.276,20.276,0,0,0,2-13c-0.841-5.546-1.821-16.44-4-24s-3.488-13.9-5-20c-1.718-6.932-3.03-12.077-5-15s-3.89,1.122-4-5,3-7,3-7l4,1,4,2s3.834,0.934,2,3c-2.252,2.536-1.647,12.561,0,19s3.131,17.209,6,27,2.654,14.545,7,23,11,6,11,6a14.736,14.736,0,0,0,8-7c2.855-5.611,1-13,1-13v-3l8-2,3,5s3-.71-1,2-6,6.336-6,9-1.383,4.975,0,9a27.756,27.756,0,0,0,5,8h3s5.243-.025,8-2,12.847-8.722,15-11,6.381-7.047,9-10,7.1-7.441,8-12,11,0,11,0l2,6v6s-3.9-3.663-8-2-11.907,7.561-15,10c-3.159,2.492-11.792,9.312-14,12s-7.2,6.973-8,12-10,31-10,31l-7,25s-3.565.727-5,3a10.512,10.512,0,0,0-1,7c0.466,2.825,1,2.514,4,4s0,3,0,3l-8,1s1.083-1.37,1-5,0-7.1-2-10-16-21-16-21Z"/>
  <circle class="cls-3" cx="195" cy="93" r="24"/>
  <circle id="Ellipse_2_Kopie" data-name="Ellipse 2 Kopie" class="cls-3" cx="82.5" cy="43.5" r="14.5"/>
  <circle id="Ellipse_2_Kopie_2" data-name="Ellipse 2 Kopie 2" class="cls-3" cx="131.5" cy="96.5" r="16.5"/>
  <circle id="Ellipse_2_Kopie_3" data-name="Ellipse 2 Kopie 3" class="cls-3" cx="180" cy="199" r="10"/>
  <circle id="Ellipse_2_Kopie_4" data-name="Ellipse 2 Kopie 4" class="cls-3" cx="123" cy="225" r="10"/>
  <circle id="Ellipse_2_Kopie_5" data-name="Ellipse 2 Kopie 5" class="cls-3" cx="163.5" cy="171.5" r="6.5"/>
  <circle id="Ellipse_2_Kopie_6" data-name="Ellipse 2 Kopie 6" class="cls-3" cx="110.531" cy="164.531" r="41.469"/>
</svg>
