<?xml version="1.0" encoding="UTF-8" standalone="no"?>
<!DOCTYPE svg PUBLIC "-//W3C//DTD SVG 1.1//EN" "http://www.w3.org/Graphics/SVG/1.1/DTD/svg11.dtd">
<svg width="100%" height="100%" viewBox="0 0 512 512" version="1.1" xmlns="http://www.w3.org/2000/svg" xmlns:xlink="http://www.w3.org/1999/xlink" xml:space="preserve" xmlns:serif="http://www.serif.com/" style="fill-rule:evenodd;clip-rule:evenodd;stroke-linejoin:round;stroke-miterlimit:2;">
    <g transform="matrix(6.73446,0,0,9.46032,-433.908,-3318.76)">
        <rect x="64.431" y="350.808" width="76.027" height="54.121" style="fill:rgb(196,189,180);"/>
    </g>
    <g transform="matrix(4.41808,0,0,2.71969,-270.661,-603.282)">
        <rect x="64.431" y="350.808" width="76.027" height="54.121" style="fill:rgb(31,182,75);"/>
    </g>
    <g transform="matrix(1.76783,0,0,5.96458,249.694,-2078.42)">
        <rect x="64.431" y="350.808" width="76.027" height="54.121" style="fill:rgb(255,242,5);"/>
    </g>
    <g transform="matrix(1.76395,0,0,2.71969,250.24,-603.282)">
        <rect x="64.431" y="350.808" width="76.027" height="54.121" style="fill:rgb(253,1,16);"/>
    </g>
    <g transform="matrix(4.4119,0,0,5.96458,-270.263,-2078.42)">
        <rect x="64.431" y="350.808" width="76.027" height="54.121" style="fill:rgb(35,162,255);"/>
    </g>
    <g id="icons8_android_os" transform="matrix(10.7603,0,0,10.7603,181.711,175.404)">
        <g transform="matrix(1,0,0,1,-15,-15)">
            <path d="M9.678,1.516C9.408,1.522 9.189,1.746 9.189,2.016C9.189,2.119 9.221,2.22 9.281,2.305L10.76,4.441C9.34,5.529 8.346,7.145 8.08,9L21.92,9C21.654,7.145 20.66,5.529 19.24,4.441L20.719,2.305C20.779,2.22 20.811,2.119 20.811,2.016C20.811,1.741 20.585,1.516 20.311,1.516C20.309,1.516 20.308,1.516 20.307,1.516C20.142,1.517 19.988,1.6 19.896,1.736L18.406,3.893C17.398,3.328 16.239,3 15,3C13.761,3 12.602,3.328 11.594,3.893L10.104,1.736C10.009,1.595 9.848,1.512 9.678,1.516ZM12,5C12.552,5 13,5.448 13,6C13,6.552 12.552,7 12,7C11.448,7 11,6.552 11,6C11,5.448 11.448,5 12,5ZM18,5C18.552,5 19,5.448 19,6C19,6.552 18.552,7 18,7C17.448,7 17,6.552 17,6C17,5.448 17.448,5 18,5ZM5,11C4.448,11 4,11.448 4,12L4,20C4,20.552 4.448,21 5,21C5.552,21 6,20.552 6,20L6,12C6,11.448 5.552,11 5,11ZM8,11L8,21C8,22.105 8.895,23 10,23L10,26.5C10,27.328 10.672,28 11.5,28C12.328,28 13,27.328 13,26.5L13,23L17,23L17,26.5C17,27.328 17.672,28 18.5,28C19.328,28 20,27.328 20,26.5L20,23C21.105,23 22,22.105 22,21L22,11L8,11ZM25,11C24.448,11 24,11.448 24,12L24,20C24,20.552 24.448,21 25,21C25.552,21 26,20.552 26,20L26,12C26,11.448 25.552,11 25,11Z" style="fill:white;fill-rule:nonzero;"/>
        </g>
    </g>
</svg>
