<?xml version="1.0" encoding="UTF-8" standalone="no"?>
<!DOCTYPE svg PUBLIC "-//W3C//DTD SVG 1.1//EN" "http://www.w3.org/Graphics/SVG/1.1/DTD/svg11.dtd">
<svg width="100%" height="100%" viewBox="0 0 512 512" version="1.1" xmlns="http://www.w3.org/2000/svg" xmlns:xlink="http://www.w3.org/1999/xlink" xml:space="preserve" xmlns:serif="http://www.serif.com/" style="fill-rule:evenodd;clip-rule:evenodd;stroke-linejoin:round;stroke-miterlimit:2;">
    <g transform="matrix(1.11229,0,0,1.11229,-39.4864,-39.3653)">
        <g transform="matrix(0.98,0,0,3.0545,22.4699,-308.035)">
            <rect x="33" y="136" width="450" height="115" style="fill:rgb(0,187,149);"/>
        </g>
        <g transform="matrix(0.98,0,0,3.09859,3.16,-342.514)">
            <rect x="33" y="136" width="450" height="115" style="fill:rgb(66,66,66);"/>
        </g>
        <g transform="matrix(0.902222,0,0,1.00626,24.2267,-33.0701)">
            <rect x="33" y="136" width="450" height="115" style="fill:rgb(97,97,97);"/>
        </g>
        <g transform="matrix(0.952484,0,0,0.952484,28.8817,88.6767)">
            <text x="45.461px" y="118.133px" style="font-family:'MicrosoftSansSerif', 'Microsoft Sans Serif', sans-serif;font-size:113.267px;fill:white;">Wox</text>
        </g>
        <g transform="matrix(1,0,0,1,0,5)">
            <g transform="matrix(1,0,0,1.18605,0,-123.507)">
                <path d="M288,316.75C288,312.473 283.881,309 278.808,309L63.192,309C58.119,309 54,312.473 54,316.75L54,332.25C54,336.527 58.119,340 63.192,340L278.808,340C283.881,340 288,336.527 288,332.25L288,316.75Z" style="fill:rgb(166,166,166);"/>
            </g>
            <g transform="matrix(1,0,0,1.18605,0,-64.5072)">
                <path d="M288,316.75C288,312.473 283.881,309 278.808,309L63.192,309C58.119,309 54,312.473 54,316.75L54,332.25C54,336.527 58.119,340 63.192,340L278.808,340C283.881,340 288,336.527 288,332.25L288,316.75Z" style="fill:rgb(166,166,166);"/>
            </g>
            <g transform="matrix(1,0,0,1.18605,0,-5.50716)">
                <path d="M288,316.75C288,312.473 283.881,309 278.808,309L63.192,309C58.119,309 54,312.473 54,316.75L54,332.25C54,336.527 58.119,340 63.192,340L278.808,340C283.881,340 288,336.527 288,332.25L288,316.75Z" style="fill:rgb(166,166,166);"/>
            </g>
        </g>
    </g>
</svg>
