<?xml version="1.0" encoding="UTF-8" standalone="no"?>
<!DOCTYPE svg PUBLIC "-//W3C//DTD SVG 1.1//EN" "http://www.w3.org/Graphics/SVG/1.1/DTD/svg11.dtd">
<svg width="100%" height="100%" viewBox="0 0 512 512" version="1.1" xmlns="http://www.w3.org/2000/svg" xmlns:xlink="http://www.w3.org/1999/xlink" xml:space="preserve" xmlns:serif="http://www.serif.com/" style="fill-rule:evenodd;clip-rule:evenodd;stroke-linejoin:round;stroke-miterlimit:2;">
    <g>
        <g transform="matrix(6.21112,0,0,6.21112,154.074,315.969)">
            <path d="M12.705,27.786C7.942,27.653 0.983,24.803 -4.77,19.315C-10.675,13.681 -16.421,7.875 -22.12,2.031C-25.771,-1.712 -25.652,-4.992 -22.057,-8.821C-21.943,-8.942 -21.825,-9.06 -21.709,-9.18C-19.387,-11.565 -15.734,-13.645 -15.096,-16.418C-14.377,-19.54 -18.929,-21.17 -20.874,-23.718C-23.192,-26.755 -23.59,-29.776 -20.92,-32.722C-18.388,-35.516 -14.794,-35.461 -11.607,-32.674C-10.23,-31.469 -9.097,-30.239 -7.939,-28.844C-7.043,-27.766 -5.439,-25.469 -3.426,-26.845C-1.216,-28.355 0.813,-29.841 -0.541,-33.324C-1.48,-35.74 -1.806,-37.8 -2.109,-40.093C-2.572,-43.594 -0.818,-45.961 2.483,-46.815C6.033,-47.733 8.675,-46.231 10.062,-42.827C10.687,-41.295 11.156,-39.679 11.504,-38.06C12.014,-35.685 12.384,-33.819 15.771,-33.887C18.839,-33.948 20.254,-34.9 20.896,-37.761C21.293,-39.531 22.055,-41.231 22.753,-42.921C24.178,-46.37 26.888,-47.786 30.382,-46.783C34.143,-45.704 35.598,-42.828 34.832,-39.016C34.508,-37.402 33.952,-35.786 33.217,-34.313C31.749,-31.371 32.83,-29.828 35.298,-27.837C37.666,-25.927 39.204,-28.342 40.541,-29.552C41.972,-30.849 43.241,-32.521 44.893,-33.59C47.954,-35.569 50.949,-35.178 53.382,-32.361C55.694,-29.684 55.443,-26.909 53.372,-24.188C53.273,-24.057 53.115,-23.968 53.022,-23.834C51.277,-21.314 46.785,-19.921 47.54,-16.82C48.186,-14.171 51.614,-12.192 53.832,-9.937C58.832,-4.856 58.901,-1.871 53.978,3.104C48.704,8.434 43.447,13.784 38.042,18.978C31.817,24.962 24.247,27.882 12.705,27.786" style="fill:rgb(254,152,0);fill-rule:nonzero;"/>
        </g>
        <g transform="matrix(0.837518,0,0,0.837518,111.79,150.454)">
            <path d="M248.26,135C235.056,106.656 206.331,87 173,87C127.16,87 90,124.16 90,170C90,215.84 127.16,253 173,253C205.941,253 234.399,233.81 247.807,206L342.843,206C327.436,285.759 257.259,346 173,346C77.455,346 -0,268.545 -0,173C-0,77.455 77.455,-0 173,-0C255.489,-0 324.484,57.736 341.803,135L248.26,135Z" style="fill:rgb(4,113,197);"/>
        </g>
    </g>
</svg>
